<svg width="52" height="29" viewBox="0 0 52 29" fill="none" xmlns="http://www.w3.org/2000/svg">
<path d="M44.6452 28.3954C43.764 28.3961 42.9025 28.1353 42.1695 27.6463C41.4365 27.1572 40.865 26.4617 40.5273 25.6477C40.1897 24.8338 40.101 23.938 40.2725 23.0737C40.444 22.2093 40.868 21.4153 41.4909 20.792C42.1138 20.1687 42.9075 19.7441 43.7717 19.5719C44.6359 19.3998 45.5318 19.4878 46.346 19.8249C47.1601 20.1619 47.856 20.7329 48.3457 21.4655C48.8353 22.1982 49.0967 23.0596 49.0967 23.9407C49.0961 25.1215 48.627 26.2537 47.7924 27.0889C46.9578 27.9241 45.8259 28.394 44.6452 28.3954ZM44.6452 21.1111C44.0854 21.1104 43.538 21.2759 43.0723 21.5864C42.6065 21.8969 42.2433 22.3386 42.0286 22.8556C41.814 23.3726 41.7575 23.9417 41.8663 24.4908C41.9751 25.0399 42.2444 25.5444 42.64 25.9405C43.0356 26.3365 43.5398 26.6064 44.0887 26.7158C44.6377 26.8253 45.2069 26.7694 45.7241 26.5553C46.2413 26.3413 46.6835 25.9786 46.9945 25.5132C47.3056 25.0478 47.4717 24.5005 47.4717 23.9407C47.4714 23.1909 47.1736 22.4718 46.6437 21.9413C46.1138 21.4108 45.3951 21.1122 44.6452 21.1111ZM21.1705 28.3954C20.2893 28.3963 19.4276 28.1357 18.6944 27.6468C17.9613 27.1578 17.3897 26.4624 17.0518 25.6485C16.714 24.8346 16.6252 23.9388 16.7966 23.0743C16.968 22.2099 17.3919 21.4158 18.0147 20.7924C18.6375 20.1689 19.4313 19.7442 20.2955 19.572C21.1597 19.3998 22.0556 19.4877 22.8699 19.8248C23.6841 20.1618 24.3801 20.7328 24.8698 21.4654C25.3594 22.1981 25.6208 23.0595 25.6208 23.9407C25.62 25.1212 25.151 26.2531 24.3167 27.0882C23.4824 27.9233 22.3509 28.3934 21.1705 28.3954ZM21.1705 21.1111C20.6106 21.1102 20.0631 21.2755 19.5972 21.5859C19.1313 21.8963 18.768 22.3379 18.5531 22.8549C18.3383 23.3719 18.2816 23.9409 18.3903 24.4901C18.499 25.0393 18.7682 25.5439 19.1637 25.9401C19.5593 26.3363 20.0635 26.6062 20.6125 26.7157C21.1615 26.8253 21.7307 26.7695 22.248 26.5554C22.7653 26.3414 23.2075 25.9787 23.5186 25.5133C23.8298 25.0478 23.9958 24.5006 23.9958 23.9407C23.9952 23.1912 23.6975 22.4725 23.1679 21.942C22.6383 21.4116 21.92 21.1128 21.1705 21.1111Z" fill="white"/>
<path d="M50.5061 24.7532H48.2842C48.0687 24.7532 47.862 24.6676 47.7096 24.5152C47.5573 24.3628 47.4717 24.1562 47.4717 23.9407C47.4717 23.7252 47.5573 23.5185 47.7096 23.3662C47.862 23.2138 48.0687 23.1282 48.2842 23.1282H50.2764V18.8198C50.2759 18.2373 50.1267 17.6645 49.8431 17.1558L45.4448 9.27018C45.4072 9.20288 45.3523 9.14682 45.2859 9.10779C45.2194 9.06875 45.1437 9.04814 45.0667 9.0481H39.0726V23.1314H41.0074C41.2229 23.1314 41.4296 23.217 41.5819 23.3694C41.7343 23.5218 41.8199 23.7284 41.8199 23.9439C41.8199 24.1594 41.7343 24.3661 41.5819 24.5185C41.4296 24.6708 41.2229 24.7564 41.0074 24.7564H38.2601C38.0446 24.7564 37.8379 24.6708 37.6856 24.5185C37.5332 24.3661 37.4476 24.1594 37.4476 23.9439V8.2356C37.4476 8.02011 37.5332 7.81344 37.6856 7.66107C37.8379 7.5087 38.0446 7.4231 38.2601 7.4231H45.0667C45.4332 7.42292 45.7932 7.52063 46.1093 7.70613C46.4255 7.89163 46.6864 8.15819 46.865 8.47826L51.2622 16.3649C51.6803 17.1156 51.8999 17.9605 51.9003 18.8198V23.3589C51.8998 23.7285 51.7527 24.0828 51.4913 24.3442C51.23 24.6055 50.8757 24.7526 50.5061 24.7532ZM17.5316 24.7532H9.74133C9.52584 24.7532 9.31918 24.6676 9.16681 24.5152C9.01444 24.3628 8.92883 24.1562 8.92883 23.9407V17.692C8.92883 17.4765 9.01444 17.2699 9.16681 17.1175C9.31918 16.9651 9.52584 16.8795 9.74133 16.8795C9.95682 16.8795 10.1635 16.9651 10.3159 17.1175C10.4682 17.2699 10.5538 17.4765 10.5538 17.692V23.1282H17.5316C17.7471 23.1282 17.9537 23.2138 18.1061 23.3662C18.2585 23.5185 18.3441 23.7252 18.3441 23.9407C18.3441 24.1562 18.2585 24.3628 18.1061 24.5152C17.9537 24.6676 17.7471 24.7532 17.5316 24.7532ZM9.74133 14.8093C9.52584 14.8093 9.31918 14.7237 9.16681 14.5713C9.01444 14.4189 8.92883 14.2122 8.92883 13.9968V8.5411C8.92883 8.32561 9.01444 8.11894 9.16681 7.96657C9.31918 7.8142 9.52584 7.7286 9.74133 7.7286C9.95682 7.7286 10.1635 7.8142 10.3159 7.96657C10.4682 8.11894 10.5538 8.32561 10.5538 8.5411V14C10.553 14.2149 10.467 14.4208 10.3147 14.5724C10.1624 14.7241 9.95626 14.8093 9.74133 14.8093Z" fill="white"/>
<path d="M38.2601 24.7532H24.8083C24.5929 24.7532 24.3862 24.6676 24.2338 24.5152C24.0814 24.3628 23.9958 24.1561 23.9958 23.9407C23.9958 23.7252 24.0814 23.5185 24.2338 23.3661C24.3862 23.2138 24.5929 23.1282 24.8083 23.1282H37.4476V1.87207H10.5538V5.21849C10.5538 5.43398 10.4682 5.64064 10.3159 5.79301C10.1635 5.94538 9.95683 6.03099 9.74134 6.03099C9.52585 6.03099 9.31919 5.94538 9.16682 5.79301C9.01444 5.64064 8.92884 5.43398 8.92884 5.21849V1.72257C8.92941 1.33123 9.0852 0.956102 9.36202 0.679485C9.63884 0.402868 10.0141 0.247357 10.4054 0.24707H37.5971C37.9882 0.247643 38.3632 0.403281 38.6398 0.679867C38.9164 0.956453 39.072 1.33142 39.0726 1.72257V23.9407C39.0726 24.1561 38.987 24.3628 38.8346 24.5152C38.6822 24.6676 38.4756 24.7532 38.2601 24.7532ZM12.9534 18.5045H2.64117C2.42569 18.5045 2.21902 18.4189 2.06665 18.2665C1.91428 18.1141 1.82867 17.9075 1.82867 17.692C1.82867 17.4765 1.91428 17.2698 2.06665 17.1175C2.21902 16.9651 2.42569 16.8795 2.64117 16.8795H12.9534C13.1689 16.8795 13.3756 16.9651 13.5279 17.1175C13.6803 17.2698 13.7659 17.4765 13.7659 17.692C13.7659 17.9075 13.6803 18.1141 13.5279 18.2665C13.3756 18.4189 13.1689 18.5045 12.9534 18.5045Z" fill="white"/>
<path d="M21.1705 14.8093H6.78059C6.56511 14.8093 6.35844 14.7237 6.20607 14.5713C6.0537 14.4189 5.96809 14.2122 5.96809 13.9968C5.96809 13.7813 6.0537 13.5746 6.20607 13.4222C6.35844 13.2699 6.56511 13.1843 6.78059 13.1843H21.1705C21.386 13.1843 21.5927 13.2699 21.745 13.4222C21.8974 13.5746 21.983 13.7813 21.983 13.9968C21.983 14.2122 21.8974 14.4189 21.745 14.5713C21.5927 14.7237 21.386 14.8093 21.1705 14.8093ZM6.33318 10.5193H0.713928C0.49844 10.5193 0.291777 10.4337 0.139404 10.2813C-0.0129693 10.1289 -0.0985718 9.92225 -0.0985718 9.70676C-0.0985718 9.49127 -0.0129693 9.28461 0.139404 9.13223C0.291777 8.97986 0.49844 8.89426 0.713928 8.89426H6.33318C6.54867 8.89426 6.75533 8.97986 6.9077 9.13223C7.06008 9.28461 7.14568 9.49127 7.14568 9.70676C7.14568 9.92225 7.06008 10.1289 6.9077 10.2813C6.75533 10.4337 6.54867 10.5193 6.33318 10.5193ZM15.3433 6.031H5.42426C5.20877 6.031 5.00211 5.9454 4.84974 5.79303C4.69736 5.64066 4.61176 5.43399 4.61176 5.21851C4.61176 5.00302 4.69736 4.79636 4.84974 4.64398C5.00211 4.49161 5.20877 4.40601 5.42426 4.40601H15.3433C15.5588 4.40601 15.7654 4.49161 15.9178 4.64398C16.0702 4.79636 16.1558 5.00302 16.1558 5.21851C16.1558 5.43399 16.0702 5.64066 15.9178 5.79303C15.7654 5.9454 15.5588 6.031 15.3433 6.031Z" fill="white"/>
</svg>
