<svg width="52" height="52" viewBox="0 0 52 52" fill="none" xmlns="http://www.w3.org/2000/svg">
<path d="M26.2798 49.6641H25.7203C25.1985 49.6644 24.681 49.5707 24.1925 49.3876C18.8 47.3701 14.467 44.1005 11.3137 39.6695C8.83752 36.1899 7.12007 32.0304 6.20916 27.3064C4.70667 19.5146 5.92333 12.7604 5.97587 12.4767C6.24488 11.0241 7.21925 9.8169 8.58232 9.24744L24.3192 2.67292C24.8545 2.44931 25.42 2.33594 26 2.33594C26.5801 2.33594 27.1456 2.44931 27.6808 2.6729L43.4177 9.24742C44.7808 9.81693 45.7552 11.0241 46.0241 12.4766C46.0767 12.7604 47.2932 19.5154 45.7908 27.3064C44.8799 32.0304 43.1625 36.1899 40.6863 39.6695C37.533 44.1005 33.2 47.3701 27.8075 49.3876C27.319 49.5707 26.8015 49.6644 26.2798 49.6641ZM26 3.96094C25.638 3.96056 25.2796 4.03243 24.9457 4.17231L9.20873 10.7468C8.35367 11.1041 7.74245 11.8613 7.5737 12.7725C7.52345 13.0439 6.35975 19.505 7.80475 26.9987C8.67131 31.4926 10.2974 35.4386 12.6377 38.7273C15.5995 42.8893 19.6786 45.9639 24.7618 47.8656C25.0683 47.9805 25.3929 48.0392 25.7202 48.039H26.2798C26.6081 48.039 26.9306 47.9807 27.2382 47.8656C32.3214 45.9639 36.4005 42.8893 39.3623 38.7273C41.7027 35.4387 43.3287 31.4926 44.1953 26.9987C45.6401 19.5058 44.4765 13.0438 44.4263 12.7724C44.2576 11.8613 43.6463 11.1041 42.7913 10.7468L27.0544 4.17229C26.7205 4.03242 26.362 3.96057 26 3.96094Z" fill="white"/>
<path d="M26.2798 46.1164H25.7203C25.623 46.1164 25.5266 46.099 25.4356 46.0649C20.7182 44.3001 16.9395 41.4563 14.2042 37.6126C12.0246 34.5498 10.5067 30.8563 9.6926 26.6347C8.97291 22.9024 8.94792 19.436 9.05368 17.1852C9.16862 14.7396 9.45216 13.1875 9.46417 13.1226C9.48875 12.9899 9.54603 12.8653 9.63083 12.7603C9.71563 12.6552 9.82528 12.5729 9.94986 12.5209L25.6868 5.94635C25.786 5.90489 25.8924 5.88354 26 5.88354C26.1075 5.88354 26.214 5.90489 26.3132 5.94635L42.0501 12.5209C42.1747 12.5729 42.2843 12.6552 42.3691 12.7603C42.4539 12.8653 42.5112 12.9899 42.5358 13.1226C42.5478 13.1875 42.8313 14.7396 42.9463 17.1852C43.0521 19.436 43.0271 22.9024 42.3074 26.6347C41.4933 30.8563 39.9754 34.5498 37.7958 37.6126C35.0605 41.4563 31.2817 44.3001 26.5644 46.0649C26.4734 46.099 26.377 46.1164 26.2798 46.1164ZM25.8684 44.4914H26.1316C34.0642 41.4754 38.969 35.3649 40.7118 26.327C41.8293 20.5316 41.2241 15.3367 41.0059 13.8458L26 7.5766L10.9938 13.8458C10.9041 14.4561 10.749 15.6857 10.6746 17.3107C10.5756 19.474 10.6032 22.8025 11.2974 26.3746C13.0488 35.3866 17.9504 41.481 25.8684 44.4914Z" fill="white"/>
<path d="M29.916 36.0578H22.084C19.9807 36.0578 18.2696 34.3465 18.2696 32.2431V25.8787C18.2696 23.7752 19.9807 22.064 22.084 22.064H29.916C32.0193 22.064 33.7304 23.7752 33.7304 25.8787V32.2431C33.7304 34.3465 32.0193 36.0578 29.916 36.0578ZM22.084 23.689C20.8768 23.689 19.8946 24.6713 19.8946 25.8787V32.2431C19.8946 33.4505 20.8768 34.4328 22.084 34.4328H29.916C31.1233 34.4328 32.1054 33.4504 32.1054 32.2431V25.8787C32.1054 24.6713 31.1232 23.689 29.916 23.689H22.084ZM26 30.0318C24.7587 30.0318 23.7489 29.022 23.7489 27.7807C23.7489 26.5392 24.7587 25.5293 26 25.5293C27.2413 25.5293 28.2511 26.5392 28.2511 27.7807C28.2511 29.022 27.2413 30.0318 26 30.0318ZM26 27.1543C25.6547 27.1543 25.3739 27.4353 25.3739 27.7807C25.3739 28.1259 25.6548 28.4068 26 28.4068C26.3452 28.4068 26.6261 28.1259 26.6261 27.7807C26.6261 27.4353 26.3453 27.1543 26 27.1543Z" fill="white"/>
<path d="M31.0597 23.689C30.611 23.689 30.2472 23.3252 30.2472 22.8765V20.3878C30.2472 18.0459 28.3419 16.1406 26 16.1406C23.6581 16.1406 21.7528 18.0459 21.7528 20.3878V22.8765C21.7528 23.3252 21.389 23.689 20.9403 23.689C20.4916 23.689 20.1278 23.3252 20.1278 22.8765V20.3878C20.1278 18.8193 20.7386 17.3447 21.8477 16.2356C22.9568 15.1264 24.4315 14.5156 26 14.5156C27.5685 14.5156 29.0432 15.1264 30.1523 16.2356C31.2614 17.3447 31.8722 18.8193 31.8722 20.3878V22.8765C31.8722 23.3252 31.5085 23.689 31.0597 23.689ZM26 32.4568C25.5513 32.4568 25.1875 32.093 25.1875 31.6443V29.2192C25.1875 28.7705 25.5513 28.4067 26 28.4067C26.4487 28.4067 26.8125 28.7705 26.8125 29.2192V31.6443C26.8125 32.093 26.4487 32.4568 26 32.4568Z" fill="white"/>
</svg>
