<svg width="50" height="50" viewBox="0 0 50 50" fill="none" xmlns="http://www.w3.org/2000/svg">
<g clip-path="url(#clip0_1_261)">
<path d="M49.7712 39.8272L38.9899 29.0459C39.0433 29.004 39.0994 28.9657 39.1579 28.9311L42.0313 27.4022C42.7661 27.0159 43.3209 26.3577 43.5774 25.5681C43.8338 24.7785 43.7716 23.92 43.404 23.1756L41.9727 20.2483C41.8629 20.0252 41.8057 19.7798 41.8057 19.5311C41.8057 19.2824 41.8629 19.037 41.9727 18.8139L43.404 15.8866C43.7716 15.1422 43.8338 14.2837 43.5774 13.4941C43.3209 12.7045 42.7661 12.0463 42.0313 11.66L39.1548 10.1326C38.9348 10.0168 38.7445 9.8519 38.5984 9.65073C38.4524 9.44956 38.3546 9.2175 38.3126 8.97249L37.7493 5.76312C37.6091 4.94506 37.155 4.21409 36.4837 3.72606C35.8123 3.23803 34.9769 3.03154 34.1555 3.15062L30.929 3.60765C30.6829 3.64191 30.4323 3.61985 30.196 3.54311C29.9597 3.46638 29.7439 3.33698 29.5649 3.16468L27.2212 0.899056C26.6268 0.319349 25.8295 -0.00512695 24.9993 -0.00512695C24.1691 -0.00512695 23.3717 0.319349 22.7774 0.899056L20.4337 3.16468C20.2547 3.33698 20.0389 3.46638 19.8026 3.54311C19.5663 3.61985 19.3157 3.64191 19.0696 3.60765L15.8423 3.15062C15.0209 3.03195 14.1857 3.2386 13.5145 3.72656C12.8432 4.21452 12.389 4.94524 12.2485 5.76312L11.6852 8.97249C11.6432 9.21761 11.5453 9.44977 11.3991 9.65096C11.253 9.85215 11.0624 10.017 10.8423 10.1326L7.96881 11.66C7.23399 12.0463 6.67919 12.7045 6.42276 13.4941C6.16632 14.2837 6.22855 15.1422 6.59616 15.8866L8.02741 18.8139C8.13728 19.037 8.19442 19.2824 8.19442 19.5311C8.19442 19.7798 8.13728 20.0252 8.02741 20.2483L6.59303 23.1756C6.22542 23.92 6.1632 24.7785 6.41963 25.5681C6.67607 26.3577 7.23086 27.0159 7.96569 27.4022L10.8454 28.9295C10.9034 28.9643 10.9593 29.0026 11.0126 29.0444L0.231314 39.8256C0.1326 39.9242 0.0620864 40.0474 0.0271002 40.1825C-0.00788591 40.3175 -0.00606824 40.4595 0.0323644 40.5936C0.070797 40.7277 0.144442 40.8491 0.245649 40.9451C0.346855 41.0412 0.471929 41.1083 0.607877 41.1397L7.31335 42.6873L8.861 49.3928C8.89234 49.5288 8.95952 49.6538 9.05555 49.755C9.15157 49.8562 9.27295 49.9299 9.40707 49.9683C9.54118 50.0068 9.68314 50.0086 9.8182 49.9736C9.95325 49.9386 10.0765 49.8681 10.1751 49.7694L22.2712 37.6725L22.7782 38.1639C23.3726 38.7434 24.1699 39.0678 25.0001 39.0678C25.8302 39.0678 26.6275 38.7434 27.2219 38.1639L27.729 37.6725L39.8274 49.7709C39.926 49.8696 40.0492 49.9402 40.1843 49.9751C40.3193 50.0101 40.4613 50.0083 40.5954 49.9699C40.7295 49.9314 40.8509 49.8578 40.9469 49.7566C41.043 49.6554 41.1101 49.5303 41.1415 49.3944L42.6891 42.6889L49.3946 41.1412C49.5305 41.1099 49.6556 41.0427 49.7568 40.9467C49.858 40.8507 49.9317 40.7293 49.9701 40.5952C50.0085 40.4611 50.0104 40.3191 49.9754 40.184C49.9404 40.049 49.8699 39.9258 49.7712 39.8272ZM10.0641 47.6694L8.72428 41.8616C8.69139 41.7188 8.61901 41.5881 8.5154 41.4845C8.41179 41.3809 8.28113 41.3085 8.13835 41.2756L2.33053 39.9358L11.761 30.5053L12.2508 33.2991C12.3917 34.1167 12.846 34.8472 13.5172 35.3351C14.1883 35.823 15.0233 36.0298 15.8446 35.9116L19.0712 35.4545C19.3172 35.4206 19.5678 35.4428 19.804 35.5196C20.0402 35.5963 20.256 35.7255 20.4352 35.8975L21.1469 36.5858L10.0641 47.6694ZM23.8649 37.0405L22.8141 36.0248L21.5219 34.7748C20.9291 34.1978 20.1344 33.8749 19.3071 33.8748C19.1552 33.8751 19.0036 33.8858 18.8532 33.9069L15.6251 34.3639C15.2051 34.4256 14.7777 34.3204 14.4344 34.0709C14.0911 33.8213 13.8592 33.4472 13.7883 33.0287L13.2251 29.8194C13.156 29.455 13.0238 29.1055 12.8344 28.7866C12.8168 28.7485 12.7961 28.712 12.7727 28.6772C12.481 28.2026 12.0693 27.8135 11.579 27.5491L8.70006 26.0217C8.32425 25.8247 8.04035 25.4886 7.90898 25.0851C7.77761 24.6817 7.80917 24.2428 7.99694 23.8623L9.42819 20.9373C9.6429 20.5005 9.75455 20.0202 9.75455 19.5334C9.75455 19.0467 9.6429 18.5664 9.42819 18.1295L7.99694 15.2022C7.80917 14.8217 7.77761 14.3828 7.90898 13.9794C8.04035 13.5759 8.32425 13.2398 8.70006 13.0428L11.5782 11.5155C12.0089 11.2889 12.3817 10.9663 12.6678 10.5726C12.9539 10.179 13.1457 9.72476 13.2282 9.24515L13.7915 6.03577C13.861 5.61712 14.0921 5.24248 14.435 4.99237C14.7779 4.74227 15.2052 4.63667 15.6251 4.69827L18.8524 5.15531C19.334 5.22445 19.825 5.18215 20.2877 5.03167C20.7504 4.88119 21.1724 4.62655 21.5212 4.28734L23.8649 2.02171C24.1685 1.72537 24.5758 1.55949 25.0001 1.55949C25.4243 1.55949 25.8317 1.72537 26.1352 2.02171L28.479 4.28734C28.8276 4.62662 29.2494 4.88138 29.7119 5.032C30.1745 5.18261 30.6654 5.22506 31.1469 5.15609L34.3751 4.69827C34.795 4.63635 35.2225 4.74146 35.5659 4.99106C35.9092 5.24065 36.1411 5.61486 36.2118 6.03343L36.7751 9.24281C36.8576 9.7223 37.0493 10.1764 37.3353 10.57C37.6212 10.9637 37.9938 11.2864 38.4243 11.5131L41.3032 13.0405C41.679 13.2375 41.9629 13.5736 42.0943 13.977C42.2256 14.3805 42.1941 14.8193 42.0063 15.1998L40.5719 18.1248C40.3572 18.5617 40.2456 19.042 40.2456 19.5287C40.2456 20.0155 40.3572 20.4958 40.5719 20.9326L42.0032 23.86C42.191 24.2405 42.2225 24.6793 42.0911 25.0828C41.9598 25.4863 41.6759 25.8224 41.3001 26.0194L38.4219 27.5467C37.9912 27.7733 37.6184 28.0959 37.3323 28.4895C37.0462 28.8832 36.8545 29.3374 36.7719 29.817L36.2087 33.0264C36.1381 33.4446 35.9069 33.8186 35.5642 34.0685C35.2216 34.3185 34.7948 34.4245 34.3751 34.3639L31.1462 33.9061C30.6646 33.837 30.1735 33.8793 29.7109 34.0298C29.2482 34.1803 28.8262 34.4349 28.4774 34.7741L26.1337 37.0397C25.8303 37.3357 25.4233 37.5014 24.9994 37.5015C24.5756 37.5017 24.1685 37.3362 23.8649 37.0405ZM41.8618 41.2756C41.719 41.3085 41.5883 41.3809 41.4847 41.4845C41.3811 41.5881 41.3087 41.7188 41.2758 41.8616L39.936 47.6694L28.8524 36.5858L29.5633 35.8975C29.7427 35.7257 29.9585 35.5966 30.1947 35.5199C30.4309 35.4432 30.6814 35.4208 30.9274 35.4545L34.1548 35.9116C34.9761 36.03 35.8112 35.8233 36.4823 35.3354C37.1535 34.8474 37.6078 34.1168 37.7485 33.2991L38.2383 30.5053L47.6696 39.9358L41.8618 41.2756Z" fill="white"/>
<path d="M36.7187 19.5313C36.7191 16.7255 35.7122 14.0128 33.8812 11.8867C33.8171 11.8011 33.736 11.7295 33.6431 11.6765C33.5502 11.6235 33.4474 11.5901 33.3411 11.5784C33.2347 11.5667 33.1271 11.577 33.0249 11.6087C32.9227 11.6403 32.8281 11.6926 32.7469 11.7623C32.6657 11.832 32.5997 11.9176 32.553 12.0138C32.5063 12.1101 32.4798 12.2149 32.4753 12.3218C32.4708 12.4287 32.4882 12.5354 32.5266 12.6352C32.565 12.7351 32.6234 12.826 32.6984 12.9024C34.3749 14.8525 35.2482 17.3665 35.1416 19.936C35.035 22.5054 33.9566 24.9385 32.1244 26.7431C30.2922 28.5477 27.843 29.5891 25.2722 29.6566C22.7015 29.7242 20.201 28.8129 18.2765 27.107C16.3521 25.4011 15.1474 23.028 14.906 20.4677C14.6647 17.9074 15.4047 15.3509 16.9765 13.3155C18.5482 11.28 20.8344 9.91747 23.3725 9.50343C25.9106 9.08938 28.5112 9.65475 30.6484 11.0852C30.7334 11.1459 30.8298 11.189 30.9318 11.2118C31.0338 11.2346 31.1393 11.2368 31.2422 11.2181C31.345 11.1994 31.443 11.1603 31.5305 11.103C31.6179 11.0458 31.6929 10.9716 31.7512 10.8848C31.8094 10.798 31.8497 10.7004 31.8695 10.5978C31.8894 10.4952 31.8884 10.3896 31.8667 10.2874C31.8451 10.1851 31.8031 10.0883 31.7433 10.0026C31.6835 9.91684 31.6072 9.84398 31.5187 9.7883C29.3475 8.3349 26.7528 7.64879 24.147 7.83895C21.5412 8.02912 19.0736 9.08467 17.1364 10.8379C15.1992 12.5911 13.9035 14.9414 13.4551 17.5154C13.0067 20.0894 13.4313 22.7394 14.6615 25.0444C15.8918 27.3494 17.857 29.1772 20.245 30.2374C22.633 31.2975 25.3068 31.5292 27.8416 30.8956C30.3764 30.2621 32.6268 28.7996 34.2351 26.7405C35.8435 24.6815 36.7177 22.144 36.7187 19.5313Z" fill="white"/>
<path d="M29.5117 15.8689L23.4242 22.2798L20.5086 18.9579C20.443 18.8742 20.3611 18.8047 20.2678 18.7538C20.1744 18.7028 20.0717 18.6715 19.9658 18.6616C19.86 18.6517 19.7532 18.6636 19.6521 18.6964C19.5509 18.7293 19.4576 18.7824 19.3777 18.8526C19.2978 18.9228 19.2331 19.0085 19.1875 19.1046C19.142 19.2007 19.1165 19.305 19.1126 19.4113C19.1088 19.5175 19.1267 19.6235 19.1652 19.7226C19.2037 19.8217 19.2621 19.9119 19.3367 19.9876L22.8125 23.9525C22.884 24.0342 22.9719 24.1001 23.0703 24.146C23.1688 24.1918 23.2757 24.2167 23.3843 24.2189H23.4C23.506 24.2188 23.6109 24.1972 23.7082 24.1553C23.8056 24.1133 23.8934 24.0521 23.9664 23.9751L30.6422 16.9439C30.7166 16.8703 30.7756 16.7825 30.8154 16.6856C30.8553 16.5888 30.8753 16.485 30.8742 16.3803C30.8732 16.2756 30.8511 16.1722 30.8093 16.0762C30.7674 15.9802 30.7068 15.8936 30.6308 15.8215C30.5548 15.7494 30.4652 15.6933 30.3671 15.6566C30.2691 15.6199 30.1646 15.6032 30.06 15.6076C29.9554 15.6121 29.8528 15.6375 29.7582 15.6823C29.6636 15.7272 29.5789 15.7907 29.5093 15.8689H29.5117Z" fill="white"/>
</g>
<defs>
<clipPath id="clip0_1_261">
<rect width="50" height="50" fill="white"/>
</clipPath>
</defs>
</svg>
