<svg width="99" height="18" viewBox="0 0 99 18" fill="none" xmlns="http://www.w3.org/2000/svg">
<g clip-path="url(#clip0_8194_17351)">
<path d="M0.647461 1.11328H98.3105V17.5393H0.647461V1.11328ZM1.55455 2.03437V16.6182H97.4036V2.03437H1.55455Z" fill="black"/>
<path d="M5.95132 12.86H4.06944C3.95753 12.86 3.8633 12.8211 3.78673 12.7434C3.71016 12.6656 3.67188 12.5729 3.67188 12.4653V6.17634C3.67188 6.06866 3.71016 5.97595 3.78673 5.8982C3.8633 5.82046 3.95753 5.78161 4.06944 5.78161H5.35936C5.58317 5.78161 5.79522 5.82494 5.9955 5.91168C6.19575 5.99838 6.3695 6.11651 6.51674 6.26603C6.66403 6.41554 6.78032 6.59197 6.86574 6.79535C6.95113 6.99868 6.99384 7.214 6.99384 7.44131C6.99384 7.80013 6.88783 8.1291 6.67579 8.42814C6.90552 8.50588 7.11458 8.61203 7.30307 8.74662C7.49156 8.88121 7.65354 9.04117 7.78899 9.2266C7.92447 9.41202 8.03047 9.61685 8.10708 9.84113C8.18364 10.0654 8.2219 10.3032 8.2219 10.5543C8.2219 10.8714 8.16302 11.1704 8.04522 11.4515C7.92741 11.7326 7.76547 11.9778 7.5593 12.1871C7.35313 12.3965 7.11164 12.5609 6.83483 12.6805C6.55798 12.8002 6.26349 12.86 5.95132 12.86ZM5.35936 6.57107H4.45821V8.30254H5.44772C5.54197 8.30254 5.6347 8.27713 5.726 8.22629C5.81731 8.17546 5.89832 8.10966 5.969 8.02893C6.03969 7.94816 6.0971 7.85694 6.14128 7.75527C6.18542 7.6536 6.20751 7.54895 6.20751 7.44131C6.20751 7.32168 6.18542 7.20953 6.14128 7.10487C6.0971 7.00018 6.0367 6.90746 5.96014 6.82674C5.88358 6.74601 5.79379 6.68323 5.69068 6.63837C5.58758 6.5935 5.47717 6.57107 5.35936 6.57107ZM5.95132 9.101H4.45821V12.0615H5.95132C6.15749 12.0615 6.35035 12.0227 6.53001 11.9449C6.70964 11.8672 6.86721 11.7595 7.00266 11.6219C7.13814 11.4844 7.24419 11.3244 7.32075 11.142C7.39731 10.9596 7.43557 10.7637 7.43557 10.5543C7.43557 10.345 7.39584 10.1507 7.31634 9.97124C7.23684 9.79178 7.13079 9.63779 6.99825 9.50921C6.86574 9.38059 6.70821 9.28042 6.5256 9.20864C6.343 9.13687 6.15157 9.101 5.95132 9.101ZM18.1958 12.86H15.8369C15.7308 12.86 15.6395 12.8211 15.563 12.7434C15.4864 12.6656 15.4481 12.5729 15.4481 12.4653V6.17634C15.4481 6.06269 15.4864 5.96848 15.563 5.89373C15.6395 5.81897 15.7308 5.78161 15.8369 5.78161C15.9488 5.78161 16.0415 5.81897 16.1151 5.89373C16.1888 5.96848 16.2256 6.06269 16.2256 6.17634V12.0705H18.1958C18.3077 12.0705 18.402 12.1094 18.4785 12.1871C18.5551 12.2649 18.5934 12.3576 18.5934 12.4653C18.5934 12.5729 18.5551 12.6656 18.4785 12.7434C18.402 12.8211 18.3077 12.86 18.1958 12.86ZM28.1167 12.86C27.7456 12.86 27.3981 12.7882 27.0742 12.6447C26.7502 12.5011 26.466 12.3067 26.2216 12.0615C25.9772 11.8163 25.7842 11.5277 25.6429 11.1958C25.5015 10.8639 25.4309 10.5095 25.4309 10.1327V6.17634C25.4309 6.06866 25.4691 5.97595 25.5457 5.8982C25.6223 5.82046 25.7165 5.78161 25.8284 5.78161C25.9345 5.78161 26.0258 5.82046 26.1023 5.8982C26.1789 5.97595 26.2172 6.06866 26.2172 6.17634V10.1327C26.2172 10.4018 26.2673 10.653 26.3674 10.8863C26.4675 11.1196 26.603 11.3229 26.7738 11.4963C26.9446 11.6698 27.1463 11.8074 27.379 11.909C27.6117 12.0107 27.8576 12.0615 28.1167 12.0615C28.3818 12.0615 28.6291 12.0107 28.8589 11.909C29.0886 11.8074 29.2903 11.6698 29.4641 11.4963C29.6378 11.3229 29.7748 11.118 29.8749 10.8818C29.975 10.6456 30.0251 10.3958 30.0251 10.1327V6.17634C30.0251 6.06866 30.0634 5.97595 30.1399 5.8982C30.2165 5.82046 30.3078 5.78161 30.4138 5.78161C30.5257 5.78161 30.62 5.82046 30.6966 5.8982C30.7731 5.97595 30.8114 6.06866 30.8114 6.17634V10.1327C30.8114 10.5095 30.7408 10.8639 30.5993 11.1958C30.458 11.5277 30.2651 11.8163 30.0207 12.0615C29.7762 12.3067 29.4906 12.5011 29.1637 12.6447C28.8368 12.7882 28.4878 12.86 28.1167 12.86ZM41.8631 12.86H38.8239C38.7121 12.86 38.6178 12.8211 38.5413 12.7434C38.4646 12.6656 38.4262 12.5729 38.4262 12.4653V12.4473V12.4294V6.17634C38.4262 6.06866 38.4646 5.97595 38.5413 5.8982C38.6178 5.82046 38.7121 5.78161 38.8239 5.78161H41.8631C41.9749 5.78161 42.0693 5.82046 42.1456 5.8982C42.2228 5.97595 42.2608 6.06866 42.2608 6.17634C42.2608 6.28995 42.2228 6.38415 42.1456 6.45891C42.0693 6.53367 41.9749 6.57107 41.8631 6.57107H39.2126V8.85877H41.4482C41.5539 8.85877 41.6454 8.89613 41.7218 8.97089C41.7981 9.04565 41.8365 9.13986 41.8365 9.25351C41.8365 9.36115 41.7981 9.45386 41.7218 9.53164C41.6454 9.60935 41.5539 9.64824 41.4482 9.64824H39.2126V12.0615H41.8631C41.9749 12.0615 42.0693 12.1004 42.1456 12.1782C42.2228 12.256 42.2608 12.3516 42.2608 12.4653C42.2608 12.5729 42.2228 12.6656 42.1456 12.7434C42.0693 12.8211 41.9749 12.86 41.8631 12.86ZM52.6941 12.86C52.2053 12.86 51.7472 12.7658 51.3201 12.5774C50.8929 12.389 50.5205 12.1333 50.2029 11.8103C49.8844 11.4873 49.6328 11.1091 49.4474 10.6755C49.2617 10.2419 49.169 9.77682 49.169 9.28042C49.169 8.78999 49.2617 8.33095 49.4474 7.90333C49.6328 7.47568 49.8844 7.10487 50.2029 6.79087C50.5205 6.47687 50.8929 6.23016 51.3201 6.05071C51.7472 5.87129 52.2053 5.78161 52.6941 5.78161C53.1653 5.78161 53.6128 5.8698 54.0371 6.04623C54.461 6.22265 54.8411 6.48135 55.1768 6.82226C55.2592 6.90597 55.3005 7.00171 55.3005 7.10935C55.3005 7.21699 55.2592 7.3097 55.1768 7.38745C55.1 7.46519 55.0085 7.50408 54.9032 7.50408C54.797 7.50408 54.7055 7.46519 54.6288 7.38745C54.3638 7.11831 54.0665 6.91497 53.7366 6.77739C53.4066 6.63986 53.0592 6.57107 52.6941 6.57107C52.3111 6.57107 51.9534 6.64131 51.6206 6.78187C51.2878 6.92243 50.9979 7.11383 50.7504 7.35606C50.503 7.59829 50.3086 7.88385 50.1673 8.21282C50.0261 8.54179 49.955 8.89763 49.955 9.28042C49.955 9.66316 50.0273 10.0236 50.1718 10.3615C50.316 10.6994 50.512 10.9939 50.7594 11.2452C51.0065 11.4963 51.2964 11.6952 51.6296 11.8417C51.9624 11.9883 52.3172 12.0615 52.6941 12.0615C53.0592 12.0615 53.4066 11.9927 53.7366 11.8552C54.0665 11.7176 54.3638 11.5173 54.6288 11.2541C54.7055 11.1704 54.797 11.1285 54.9032 11.1285C55.0085 11.1285 55.1 11.1704 55.1768 11.2541C55.2592 11.3319 55.3005 11.4246 55.3005 11.5323C55.3005 11.6399 55.2592 11.7326 55.1768 11.8103C54.8411 12.1513 54.461 12.4114 54.0371 12.5909C53.6128 12.7703 53.1653 12.86 52.6941 12.86ZM67.3684 12.86C67.2622 12.86 67.1707 12.8211 67.0944 12.7434C67.0176 12.6656 66.9796 12.5729 66.9796 12.4653V9.42392H63.5076V12.4653C63.5076 12.5729 63.4692 12.6656 63.3924 12.7434C63.3157 12.8211 63.2246 12.86 63.1184 12.86C63.0066 12.86 62.9122 12.8211 62.8359 12.7434C62.7591 12.6656 62.7211 12.5729 62.7211 12.4653V6.17634C62.7211 6.06866 62.7591 5.97595 62.8359 5.8982C62.9122 5.82046 63.0066 5.78161 63.1184 5.78161C63.2246 5.78161 63.3157 5.82046 63.3924 5.8982C63.4692 5.97595 63.5076 6.06866 63.5076 6.17634V8.6255H66.9796V6.17634C66.9796 6.06866 67.0176 5.97595 67.0944 5.8982C67.1707 5.82046 67.2622 5.78161 67.3684 5.78161C67.4799 5.78161 67.5742 5.82046 67.6509 5.8982C67.7277 5.97595 67.7661 6.06866 67.7661 6.17634V12.4653C67.7661 12.5729 67.7277 12.6656 67.6509 12.7434C67.5742 12.8211 67.4799 12.86 67.3684 12.86ZM78.8176 12.86H75.7784C75.6665 12.86 75.5722 12.8211 75.4954 12.7434C75.4191 12.6656 75.3807 12.5729 75.3807 12.4653V12.4473V12.4294V6.17634C75.3807 6.06866 75.4191 5.97595 75.4954 5.8982C75.5722 5.82046 75.6665 5.78161 75.7784 5.78161H78.8176C78.9295 5.78161 79.0238 5.82046 79.1002 5.8982C79.177 5.97595 79.2149 6.06866 79.2149 6.17634C79.2149 6.28995 79.177 6.38415 79.1002 6.45891C79.0238 6.53367 78.9295 6.57107 78.8176 6.57107H76.1671V8.85877H78.4024C78.5081 8.85877 78.6 8.89613 78.6764 8.97089C78.7527 9.04565 78.7911 9.13986 78.7911 9.25351C78.7911 9.36115 78.7527 9.45386 78.6764 9.53164C78.6 9.60935 78.5081 9.64824 78.4024 9.64824H76.1671V12.0615H78.8176C78.9295 12.0615 79.0238 12.1004 79.1002 12.1782C79.177 12.256 79.2149 12.3516 79.2149 12.4653C79.2149 12.5729 79.177 12.6656 79.1002 12.7434C79.0238 12.8211 78.9295 12.86 78.8176 12.86ZM94.2514 9.23555C94.1101 9.61834 93.9717 9.99661 93.8361 10.3704C93.701 10.7442 93.5756 11.0852 93.4609 11.3932C93.3461 11.7012 93.2502 11.9629 93.1734 12.1782C93.0971 12.3935 93.0468 12.534 93.0231 12.5998C92.9942 12.6776 92.9456 12.7404 92.8778 12.7882C92.81 12.8361 92.7349 12.86 92.6524 12.86C92.5699 12.86 92.4948 12.8361 92.4274 12.7882C92.3596 12.7404 92.3106 12.6776 92.2812 12.5998L90.3555 7.27081L88.4204 12.5998C88.391 12.6776 88.3441 12.7404 88.2787 12.7882C88.2142 12.8361 88.1403 12.86 88.0582 12.86C87.9757 12.86 87.9006 12.8361 87.8328 12.7882C87.765 12.7404 87.7164 12.6776 87.687 12.5998C87.6638 12.534 87.6119 12.3935 87.5327 12.1782C87.4531 11.9629 87.3571 11.7012 87.2452 11.3932C87.1333 11.0852 87.0096 10.7442 86.8741 10.3704C86.7389 9.99661 86.6005 9.61834 86.4592 9.23555C86.3236 8.85877 86.1897 8.48946 86.057 8.12757C85.9247 7.76576 85.8067 7.43977 85.7038 7.14974C85.6005 6.85966 85.518 6.62041 85.4559 6.432C85.3947 6.24364 85.3636 6.13745 85.3636 6.11352C85.3636 6.00584 85.402 5.91313 85.4784 5.83543C85.5547 5.75764 85.6462 5.71875 85.752 5.71875C85.8344 5.71875 85.9096 5.74272 85.9774 5.79056C86.0451 5.83837 86.0937 5.90119 86.1231 5.97893L88.0582 11.3079L89.9843 5.97893C90.0137 5.90119 90.0619 5.83837 90.1301 5.79056C90.1979 5.74272 90.273 5.71875 90.3555 5.71875C90.4376 5.71875 90.5115 5.74272 90.576 5.79056C90.6409 5.83837 90.6883 5.90119 90.7173 5.97893L92.6524 11.3079L94.5785 5.97893C94.6079 5.90119 94.6565 5.83837 94.7243 5.79056C94.792 5.74272 94.8672 5.71875 94.9497 5.71875C95.0554 5.71875 95.1469 5.75764 95.2232 5.83543C95.3 5.91313 95.3384 6.00584 95.3384 6.11352C95.3384 6.13745 95.3074 6.24364 95.2457 6.432C95.1836 6.62041 95.1012 6.85966 94.9983 7.14974C94.8949 7.43977 94.7786 7.76576 94.6491 8.12757C94.5197 8.48946 94.387 8.85877 94.2514 9.23555Z" fill="black"/>
</g>
<defs>
<clipPath id="clip0_8194_17351">
<rect width="98" height="17" fill="white" transform="translate(0.5 0.964844)"/>
</clipPath>
</defs>
</svg>
