<svg width="61" height="15" viewBox="0 0 61 15" fill="none" xmlns="http://www.w3.org/2000/svg">
<path d="M48.269 9.71652C48.488 10.732 49.0654 11.0904 50.2601 11.0904C51.3154 11.0904 51.8928 10.7121 51.8928 10.1147C51.8928 9.25857 51.1163 9.19883 49.5035 8.78071C47.6119 8.28293 46.3974 7.8648 45.8399 7.46659C44.7846 6.72988 44.2868 5.67461 44.2868 4.34058C44.2868 1.71234 46.3575 0 49.9614 0C53.4657 0 55.5166 1.53314 55.7555 4.28084H51.6339C51.4946 3.4645 50.9371 3.08619 49.8818 3.08619C48.9659 3.08619 48.5079 3.38485 48.5079 4.00209C48.5079 4.71888 49.2048 4.85826 50.5189 5.19674C52.2114 5.63478 53.5454 5.89363 54.4016 6.49095C55.5962 7.28739 56.1338 8.26302 56.1338 9.65679C56.1338 12.6036 54.0232 14.3358 50.0809 14.3358C46.4372 14.3358 44.3067 12.6235 44.028 9.71652H48.269ZM32.2606 8.68115C32.0217 12.2452 29.6722 14.3358 25.7697 14.3358C21.4291 14.3358 18.8009 11.5881 18.8009 7.16792C18.8009 2.72779 21.4689 0 25.69 0C29.6324 0 31.9421 1.99109 32.2009 5.51532H28.0594C27.94 4.14147 27.1634 3.40476 25.7498 3.40476C24.0374 3.40476 23.2012 4.65915 23.2012 7.16792C23.2012 9.63687 24.1171 10.9112 25.8891 10.9112C27.2033 10.9112 28.0395 10.1147 28.1789 8.66124H32.2606V8.68115ZM31.3248 0.398218H35.7649L38.0547 9.15901L40.5037 0.398218H44.7846L40.225 13.9774H35.8844L31.3248 0.398218ZM4.84333 0.019911C4.32564 0.019911 3.80796 0.21902 3.42965 0.617238L0.582394 3.4645C-0.194131 4.24102 -0.194131 5.51532 0.582394 6.31175L8.6264 14.3358L16.6505 6.29184C17.427 5.51532 17.427 4.24102 16.6505 3.44459L13.8032 0.617238C13.405 0.21902 12.8873 0.019911 12.3896 0.019911C11.8719 0.019911 11.3542 0.21902 10.956 0.617238L8.6264 2.96672L6.27691 0.617238C5.87869 0.21902 5.36101 0.019911 4.84333 0.019911Z" fill="#CC0000"/>
<path d="M58.6443 3.76327C57.5691 3.76327 56.8125 2.96683 56.8125 1.89164C56.8125 0.776634 57.6687 0.0200195 58.6443 0.0200195C59.6199 0.0200195 60.4761 0.756723 60.4761 1.89164C60.4761 3.02656 59.6199 3.76327 58.6443 3.76327ZM58.6443 0.358505C57.828 0.358505 57.2107 0.995653 57.2107 1.89164C57.2107 2.74781 57.7682 3.42478 58.6443 3.42478C59.4407 3.42478 60.0779 2.78763 60.0779 1.89164C60.0779 0.995653 59.4407 0.358505 58.6443 0.358505ZM58.2859 2.96683H57.9474V0.91601H58.724C59.2217 0.91601 59.4806 1.09521 59.4806 1.51334C59.4806 1.89164 59.2615 2.05093 58.943 2.07084L59.5204 2.98674H59.1421L58.6045 2.11066H58.2859V2.96683ZM58.6642 1.812C58.9231 1.812 59.1421 1.79209 59.1421 1.49343C59.1421 1.23458 58.9031 1.21467 58.6841 1.21467H58.266V1.812H58.6642Z" fill="#CC0000"/>
</svg>
