<svg width="57" height="20" viewBox="0 0 57 20" fill="none" xmlns="http://www.w3.org/2000/svg">
<g clip-path="url(#clip0_8194_17354)">
<path d="M46.0068 17.4354C46.0068 16.6289 46.5058 16.0958 47.49 16.0958C48.6405 16.0958 48.9732 16.4922 49.3752 18.1325C49.5138 18.6929 49.8603 19.0347 50.7613 19.0347C51.9811 19.0347 52.6464 18.3785 52.6464 17.408C52.6464 16.5606 51.7732 15.8771 50.0682 14.8109C48.1969 13.6764 47.1712 12.5965 47.1712 11.0109C47.1712 8.55048 49.9435 7.07422 52.4801 7.07422C55.3356 7.07422 56.4306 8.2771 56.4306 9.41163C56.4306 10.1634 55.9316 10.5735 55.0722 10.5735C53.991 10.5735 53.6583 10.1498 53.2979 8.87854C53.1316 8.23609 52.7989 7.97638 52.1474 7.97638C51.1217 7.97638 50.4286 8.4958 50.4286 9.43897C50.4286 10.3411 51.3296 10.9016 53.3118 12.1318C55.1831 13.2116 56.0148 14.4008 56.0148 15.7951C56.0148 18.0915 53.5058 19.9505 50.3732 19.9505C47.2544 19.9095 46.0068 18.6519 46.0068 17.4354Z" fill="black"/>
<path d="M1.87212 6.7996C1.87212 6.26651 1.87212 4.61255 1.81667 4.28449C1.7335 3.83341 1.60875 3.80608 0.887958 3.62838C0.638453 3.5737 0.583008 3.396 0.583008 3.20464C0.583008 2.95859 0.610731 2.93126 1.37311 2.7809C2.87014 2.43917 4.13152 1.93341 5.35132 1.23629C5.60083 1.05859 5.65628 1.05859 5.71172 1.05859C5.91964 1.05859 5.91964 1.29097 5.91964 1.59169V4.24349L5.89192 8.56291C5.89192 8.83629 5.89192 8.97298 6.01667 8.97298C6.04439 8.97298 6.09984 8.97298 6.43251 8.67226C7.61073 7.68809 8.94142 7.10032 10.48 7.10032C11.6305 7.10032 12.684 7.45572 13.4741 8.28953C14.1672 9.00032 14.2642 10.0528 14.2642 11.2147V17.9536C14.2642 18.555 14.3889 18.7874 15.1652 18.9924C15.1652 18.9924 15.3731 19.0881 15.8305 19.0881C16.288 19.0881 16.4682 19.0197 16.4682 19.0197C17.3137 18.7737 17.3137 18.4593 17.3137 17.1471L17.286 13.8665C17.286 13.3334 17.2583 10.6816 17.2028 10.3536C17.1196 9.90248 16.9949 9.87514 16.2741 9.69744C16.0246 9.64277 15.9691 9.46507 15.9691 9.2737C15.9691 9.02766 15.9969 9.00032 16.7592 8.84996C18.2424 8.5219 19.5038 8.01615 20.7236 7.30536C20.9731 7.12766 21.0286 7.12766 21.084 7.12766C21.2919 7.12766 21.2919 7.36003 21.2919 7.66075V17.3521C21.2919 18.5413 21.3889 18.76 22.2622 18.9924C22.2622 18.9924 22.5394 19.0881 23.0523 19.0881C23.5513 19.0881 23.8286 18.9924 23.8286 18.9924C24.8543 18.7464 24.8543 18.391 24.8543 17.1744C24.8543 15.0557 24.8543 12.3219 24.7711 10.8046C24.7434 9.88881 24.7157 9.87514 23.4959 9.6701C23.1909 9.61543 23.1632 9.46507 23.1632 9.26003C23.1632 8.95931 23.288 8.93197 23.7454 8.84996C24.8266 8.61759 26.4899 8.19385 27.9454 7.36003C28.4028 7.08665 28.4583 7.08665 28.5276 7.08665C28.7078 7.08665 28.7078 7.29169 28.7078 7.44205V8.5219C28.7078 8.76795 28.7078 8.8773 28.8325 8.8773C28.9157 8.8773 28.9573 8.8773 29.1375 8.6996C30.3989 7.59241 31.4939 7.05931 32.9078 7.05931C34.183 7.05931 35.2088 7.46939 35.9573 8.46723C36.3454 8.97298 36.3731 9.00032 36.4701 9.00032C36.5256 9.00032 36.5672 9.00032 37.0385 8.57658C37.8286 7.83845 39.1592 7.03198 40.9058 7.03198C41.1414 7.03198 43.387 7.05931 44.288 8.61759C44.6206 9.19169 44.8008 9.50608 44.8008 12.855V17.8852C44.8008 18.309 44.8008 18.719 45.6187 18.9241C45.9236 19.0061 46.1038 19.0471 46.1038 19.4025C46.1038 19.6349 46.0484 19.7852 45.688 19.8126H44.9256H42.1117H40.0187C39.7691 19.8126 39.4503 19.7579 39.4503 19.3341C39.4503 19.0881 39.6028 19.0334 39.88 18.9514C40.3929 18.801 40.7256 18.719 40.7256 17.4888V15.042C40.7256 14.3313 40.7256 11.1327 40.6701 10.6953C40.6424 10.2715 40.5177 8.78162 38.7988 8.78162C38.286 8.78162 36.7751 9.16435 36.7751 10.5723V17.8169C36.7751 18.555 36.8998 18.7327 37.7177 18.9241C37.9949 19.0061 38.1751 19.0471 38.1751 19.3341C38.1751 19.7579 37.9394 19.8126 37.2602 19.8126H35.0286H32.1038C31.7434 19.8126 31.4662 19.7852 31.4662 19.3888C31.4662 19.1428 31.5632 19.0881 31.8266 19.0061C32.7553 18.7327 32.7553 18.3773 32.7553 17.2428C32.7553 16.0536 32.7553 11.1327 32.6305 10.3262C32.4503 9.28737 31.5493 8.95931 30.8701 8.95931C29.9969 8.95931 29.1513 9.56075 28.9018 10.2032C28.8187 10.4082 28.8187 13.0874 28.8187 13.5111C28.8187 14.2629 28.8187 17.5298 28.8741 18.0356C28.9295 18.719 29.484 18.8694 30.0246 18.9924C30.2741 19.0744 30.4127 19.0881 30.4127 19.4025C30.4127 19.8126 30.08 19.8262 29.7196 19.8262H26.781H24.2028H21.7909H19.5177H16.5929H15.2345H14.4998H12.1711H9.91172H9.19093C8.98301 19.7989 8.9137 19.5938 8.9137 19.4161C8.9137 19.1701 9.03845 19.0881 9.2741 19.0334C9.66222 18.9377 9.91172 18.8557 10.0226 18.5823C10.1474 18.2269 10.1474 17.5435 10.1751 17.0104C10.2028 14.5363 10.2028 14.4816 10.2028 11.7068C10.2028 10.6269 10.2028 8.8773 8.27608 8.8773C7.40281 8.8773 6.76519 9.38305 6.55727 9.58809C6.07212 10.0392 5.89192 10.2169 5.89192 11.16V17.8715C5.89192 18.5003 5.97509 18.76 6.83449 18.9787C7.07014 19.0334 7.31964 19.0744 7.31964 19.3341C7.31964 19.7852 6.98697 19.8126 6.52954 19.8126H4.40875H1.26222C0.80479 19.8126 0.596869 19.8126 0.596869 19.4025C0.596869 19.1564 0.749344 19.1018 1.02657 19.0197C1.87212 18.719 1.87212 18.391 1.87212 17.1471V14.0852V8.65859V6.7996Z" fill="black"/>
<path d="M19.3241 1.98828C18.0627 1.98828 17.1201 3.05447 17.1201 4.189C17.1201 5.58325 18.2429 6.30771 19.2409 6.30771C20.3914 6.30771 21.4449 5.37821 21.4449 4.07965C21.4449 2.97245 20.5439 1.98828 19.3241 1.98828Z" fill="black"/>
</g>
<defs>
<clipPath id="clip0_8194_17354">
<rect width="56" height="19" fill="white" transform="translate(0.5 0.964844)"/>
</clipPath>
</defs>
</svg>
