<svg xmlns="http://www.w3.org/2000/svg" viewBox="0 0 158 48.67"><defs><style>.cls-1{fill:#ccecfc;}.cls-1,.cls-2,.cls-3,.cls-4{fill-rule:evenodd;}.cls-2{fill:#9adbf9;}.cls-3{fill:#00c0f3;}.cls-4{fill:#283b4a;}</style></defs><g id="Layer_2" data-name="Layer 2"><g id="Layer_1-2" data-name="Layer 1"><path class="cls-1" d="M32.63,15a3.14,3.14,0,0,1-3.06,0l-4.13-2.39A3.15,3.15,0,0,1,24,10.15V5.28a3.15,3.15,0,0,1,1.44-2.49L29.53.42a3.14,3.14,0,0,1,3.14,0l4.09,2.37A3.15,3.15,0,0,1,38.2,5.28v4.87a3.15,3.15,0,0,1-1.44,2.49Z"/><path class="cls-2" d="M16.63,15a3.14,3.14,0,0,1-3.06,0L9.44,12.64A3.15,3.15,0,0,1,8,10.15V5.28A3.15,3.15,0,0,1,9.44,2.79L13.53.42a3.13,3.13,0,0,1,3.13,0l4.09,2.37a3.1,3.1,0,0,1,1.44,2.49v4.87a3.1,3.1,0,0,1-1.44,2.49Z"/><path class="cls-3" d="M8.63,28.89a3.14,3.14,0,0,1-3.06,0L1.44,26.5A3.16,3.16,0,0,1,0,24V19.14a3.18,3.18,0,0,1,1.44-2.5l4.09-2.36a3.13,3.13,0,0,1,3.13,0l4.09,2.36a3.13,3.13,0,0,1,1.44,2.5V24a3.11,3.11,0,0,1-1.44,2.49Z"/><path class="cls-4" d="M16.63,42.74a3.09,3.09,0,0,1-3.06,0L9.44,40.36A3.16,3.16,0,0,1,8,37.87V33A3.16,3.16,0,0,1,9.44,30.5l4.09-2.36a3.13,3.13,0,0,1,3.13,0l4.09,2.36A3.11,3.11,0,0,1,22.19,33v4.88a3.11,3.11,0,0,1-1.44,2.49Z"/><path class="cls-4" d="M35.05,22.14a.58.58,0,0,0-.57-.57H31.67a.58.58,0,0,0-.57.57V42.62a.52.52,0,0,0,.52.52h9.47a.54.54,0,0,0,.54-.52V40.25a.54.54,0,0,0-.54-.51h-6V22.14"/><path class="cls-4" d="M52.16,33.54h-6v-.12c0-2.24,1.28-3.49,3-3.49s3,1.28,3,3.49Zm3.78,2V33.9c0-4.23-2.39-7.21-6.76-7.21s-6.82,2.78-6.82,7.21V36c0,5.59,4,7.12,6.88,7.12a25.23,25.23,0,0,0,5.5-.48c.51-.08.6-.28.6-.74V40c0-.29-.23-.43-.51-.43h-.09c-1.19.12-3.15.29-5.22.29-2.73,0-3.41-2-3.41-3.61v-.08h9.26c.39,0,.57-.26.57-.71"/><path class="cls-4" d="M68.25,44.21c0,1-.48,1.62-3.21,1.62s-3.38-.71-3.38-1.87V43.7a2.81,2.81,0,0,1,.71-2l2.53.6c3,.71,3.35,1.08,3.35,1.7ZM67.94,32.4c0,1.42-.69,2.24-3,2.24-2.64,0-3.07-1.19-3.07-2.24v-.23c0-1.33.65-2.41,3.07-2.41s3,1,3,2.41Zm4.37-3.55V27.66a.76.76,0,0,0-.77-.77H64.9c-4.92,0-6.76,2.39-6.76,5.23v.19a4.4,4.4,0,0,0,1.16,3.33,2.79,2.79,0,0,0-1.13,2.3v0a3.29,3.29,0,0,0,1.28,2.61A4.25,4.25,0,0,0,58,43.7V44c0,3,2.44,4.71,7,4.71,4.83,0,7-1.56,7-4.46V44c0-3-2.5-3.63-6.36-4.54l-3.36-.79c-.65-.15-1-.37-1-.94A.9.9,0,0,1,61.8,37a8.51,8.51,0,0,0,3.1.48c4.29,0,6.73-1.62,6.73-5.17v-.19a3.67,3.67,0,0,0-.71-2.28l.94-.37c.33-.14.45-.19.45-.62"/><path class="cls-4" d="M78.09,24.65V22.14a.58.58,0,0,0-.57-.57H74.77a.6.6,0,0,0-.6.57v2.51a.6.6,0,0,0,.6.57h2.75a.58.58,0,0,0,.57-.57M78,42.31V27.46a.57.57,0,0,0-.57-.57H74.82a.58.58,0,0,0-.57.57V42.31a.6.6,0,0,0,.57.6h2.61a.6.6,0,0,0,.57-.6"/><path class="cls-4" d="M88.37,42.42V40.64c0-.29-.22-.43-.59-.43H86.27c-1,0-1.11-.17-1.11-1.59V29.7h2.56a.57.57,0,0,0,.57-.57V27.46a.58.58,0,0,0-.57-.57H85.16V23.44a.47.47,0,0,0-.57-.48L82,23.4a.74.74,0,0,0-.59.67v.48h0v3.28h0V38.62c0,3.8,1.3,4.51,4.51,4.51a12,12,0,0,0,1.93-.19c.37-.06.54-.23.54-.52"/><path class="cls-3" d="M104.78,37.2c0-2.24-.82-4.06-3.94-5.79L97.43,29.5c-1.85-1-2.33-1.59-2.33-2.52,0-1.28.88-2,3-2,1.85,0,3.72.11,5.59.29h.06a.49.49,0,0,0,.49-.52v-2.1a.59.59,0,0,0-.52-.54,31.32,31.32,0,0,0-5.45-.51c-5.28,0-7.1,2.27-7.1,5.4,0,2,.71,3.63,3.35,5.19l3.75,2.25c1.88,1.1,2.41,1.67,2.41,2.78,0,1.65-.76,2.55-3.29,2.55-1.05,0-3.89-.14-5-.28h0a.54.54,0,0,0-.54.54v2.05a.59.59,0,0,0,.54.56,21.24,21.24,0,0,0,5,.51c5.68,0,7.47-3.06,7.47-5.93"/><path class="cls-3" d="M117.29,42V40.18c0-.28-.22-.43-.51-.43h-.09A23.22,23.22,0,0,1,113,40c-1.33,0-2.72-.76-2.72-3.72V33.59c0-3,1.39-3.72,2.72-3.72a24.51,24.51,0,0,1,3.66.2h.09c.29,0,.51-.14.51-.42V27.8c0-.46-.11-.63-.6-.74a15.54,15.54,0,0,0-3.66-.37c-3.69,0-6.47,2.27-6.47,6.9v2.64c0,4.63,2.78,6.9,6.47,6.9a15,15,0,0,0,3.66-.37c.49-.11.6-.28.6-.73"/><path class="cls-3" d="M127.87,29.3v-2a.58.58,0,0,0-.57-.57,6.62,6.62,0,0,0-4.06,1.37v-.6a.57.57,0,0,0-.57-.57H120.2a.57.57,0,0,0-.56.57V42.31a.59.59,0,0,0,.56.6h2.62a.59.59,0,0,0,.56-.6V30.9a8,8,0,0,1,3.92-1,.57.57,0,0,0,.57-.57"/><path class="cls-3" d="M145.55,36c0,2.33-.59,4.06-3,4.06a24.39,24.39,0,0,1-2.73-.2V30a15.82,15.82,0,0,1,2.73-.2c2.44,0,3,1.73,3,4.06Zm3.75,0V33.82c0-4.43-2.21-7.13-6.78-7.13a24.43,24.43,0,0,0-5.71.74c-.66.17-.77.34-.77.77V48a.57.57,0,0,0,.57.57h2.61a.58.58,0,0,0,.57-.57v-5a21.57,21.57,0,0,0,2.73.19c4.57,0,6.78-2.69,6.78-7.12"/><path class="cls-3" d="M133.42,24.65V22.14a.57.57,0,0,0-.56-.57H130.1a.59.59,0,0,0-.59.57v2.51a.59.59,0,0,0,.59.57h2.76a.57.57,0,0,0,.56-.57m-.08,17.66V27.46a.58.58,0,0,0-.57-.57h-2.61a.58.58,0,0,0-.57.57V42.31a.6.6,0,0,0,.57.6h2.61a.6.6,0,0,0,.57-.6"/><path class="cls-3" d="M158,42.42V40.64c0-.29-.23-.43-.6-.43h-1.5c-1,0-1.11-.17-1.11-1.59V29.7h2.56a.56.56,0,0,0,.56-.57V27.46a.57.57,0,0,0-.56-.57h-2.56V23.44a.47.47,0,0,0-.57-.48l-2.61.44a.75.75,0,0,0-.6.67v.48h0v3.28h0V38.62c0,3.8,1.31,4.51,4.52,4.51a12.11,12.11,0,0,0,1.93-.19c.37-.06.54-.23.54-.52"/></g></g></svg>