<?xml version="1.0" encoding="UTF-8"?> <svg xmlns="http://www.w3.org/2000/svg" width="385" height="112" viewBox="0 0 385 112" fill="none"><g clip-path="url(#clip0_221_8163)"><path d="M39.9137 89.1545C40.6829 89.1545 42.2009 89.0326 42.5855 89.0326C44.1035 89.0326 44.9941 90.312 44.9941 91.5915C44.9941 92.8709 44.1035 94.2722 42.5855 94.2722C37.8897 94.1504 29.3684 94.0082 22.1223 94.0082C16.2727 94.0082 8.78371 94.2722 4.71535 94.2722C3.1973 94.2722 2.54961 92.8709 2.54961 91.5915C2.54961 90.312 3.17706 89.0326 4.71535 89.0326C4.95824 89.0326 6.37508 89.1545 6.73941 89.1545C8.64202 89.1545 8.90515 86.5956 9.0266 83.1634C9.28972 72.3186 9.41117 62.7533 9.41117 53.452C9.41117 42.2213 9.14804 31.3968 8.78371 20.1662C8.66226 15.5764 8.13601 14.1751 5.48449 14.1751C4.71535 14.1751 3.07586 14.4188 2.42816 14.4188C0.768433 14.4188 0.0195312 13.4034 0.0195312 11.7381C0.0195312 10.215 0.910117 8.93552 2.69129 8.93552C16.1715 8.93552 25.7048 5.36121 32.5664 5.36121C36.0073 5.36121 36.7562 6.64065 36.7562 10.0728C36.7562 17.2214 31.9187 30.4829 31.9187 43.7444C31.9187 44.902 32.5462 45.5316 33.8213 45.5316C34.7119 45.5316 35.3394 44.7599 35.4811 43.7444C36.7562 29.2035 42.6057 22.9484 57.4623 22.9484C73.6143 22.9484 78.1887 31.3562 78.1887 48.192C78.1887 57.2497 76.7921 73.8215 76.7921 81.7215C76.7921 86.6971 77.9458 89.256 81.1236 89.256C81.5082 89.256 82.5202 89.1341 82.7833 89.1341C84.3014 89.1341 84.9491 90.4136 84.9491 91.8149C84.9491 92.9725 84.3216 94.2316 82.7833 94.2316C78.5935 94.1098 73.1286 93.602 67.785 93.602C63.9798 93.602 60.0329 94.1098 55.8431 94.2316C51.1473 94.2316 49.7507 90.9213 49.7507 81.9855C49.7507 70.633 50.7627 55.7265 50.7627 47.1766C50.7627 42.7087 49.2447 39.6421 45.2977 39.6421C40.6019 39.6421 37.8087 42.7087 37.161 55.0766C36.655 61.4535 36.5336 68.724 36.5336 75.6086C36.5336 78.4112 36.5336 80.9701 36.655 83.1431C36.9181 87.347 37.8087 89.1341 39.9542 89.1341" fill="white"></path><path d="M104.502 25.5073C109.34 25.5073 113.772 24.7356 118.367 24.7356C120.533 24.7356 121.16 25.8932 121.16 28.3099C121.16 30.8688 120.27 49.8573 120.27 60.5803C120.27 64.3983 120.27 74.4917 120.391 80.9904C120.512 87.3673 120.897 89.1545 122.678 89.1545C123.69 89.1545 124.581 88.8905 125.35 88.8905C127.131 88.8905 127.9 90.1699 127.9 91.4493C127.9 93.1146 127.131 94.2519 125.35 94.2519C121.909 94.2519 112.011 93.7442 105.13 93.7442C99.1587 93.7442 94.0783 94.2519 88.7348 94.2519C87.2167 94.2519 86.3261 93.4802 86.3261 91.4493C86.3261 89.6622 87.2167 88.8905 88.7348 88.8905C89.2408 88.8905 90.1314 89.1545 91.022 89.1545C92.4186 89.1545 92.54 86.8596 92.6817 84.057C93.0663 74.1058 93.4508 63.1392 93.4508 52.2944C93.4508 46.8111 93.3294 40.82 93.0663 35.8444C92.8234 30.9907 92.0542 29.9752 89.8885 29.9752C88.7348 29.9752 87.9859 30.0971 87.6013 30.0971C85.9416 30.0971 85.4355 28.6958 85.4355 27.4164C85.4355 26.0151 85.9416 24.7356 87.6013 24.7356C92.9448 24.7356 98.0252 25.5073 104.502 25.5073ZM122.415 11.3523C122.415 18.3587 118.225 20.9176 106.02 21.0395C93.8152 21.1613 89.6253 18.3587 89.6253 11.3523C89.6253 3.31006 97.2561 -0.000244141 106.02 -0.000244141C114.784 -0.000244141 122.415 3.1882 122.415 11.3523Z" fill="white"></path><path d="M166.156 82.6355C166.156 75.8727 160.569 72.8061 148.87 68.8663C136.786 64.7842 127.779 59.6868 127.779 46.0394C127.779 33.5496 136.301 23.0907 159.679 23.0907C178.745 23.0907 188.663 28.3303 188.663 37.3676C188.663 43.115 184.473 46.5471 176.579 46.5471C168.686 46.5471 162.856 44.1304 162.856 38.5049C162.856 35.8242 163.747 34.1589 165.144 32.8997C165.913 32.128 166.419 31.4985 166.419 30.6049C166.419 29.0817 165.144 27.9241 160.448 27.9241C153.08 27.9241 150.145 31.1126 150.145 35.5805C150.145 40.4342 153.202 44.6381 169.333 49.6137C186.497 54.9752 190.93 62.7534 190.93 73.3342C190.93 87.8751 179.616 95.9173 157.877 95.9173C133.346 95.9173 126.605 89.0327 126.605 80.7468C126.605 74.4917 131.058 71.1814 139.58 71.1814C147.595 71.1814 152.918 74.6339 152.918 79.6095C152.918 82.5339 152.149 84.0774 151.016 85.2147C149.862 86.1083 149.498 86.7378 149.498 87.7736C149.498 89.4389 151.279 90.4543 155.975 90.4543C162.33 90.4543 166.135 87.5299 166.135 82.6761" fill="white"></path><path d="M240.336 29.0817C240.336 36.9817 239.567 46.547 239.567 56.7623C239.567 66.9775 241.227 77.4161 241.227 87.6313C241.227 103.31 234.244 111.616 219.61 111.616C206.393 111.616 200.037 105.239 200.037 94.6581C200.037 85.8645 205.239 80.8889 212.87 80.8889C221.006 80.8889 224.427 86.2503 224.427 92.8709C224.427 97.8465 221.755 100.141 219.59 101.807C218.193 102.822 217.181 103.716 217.181 104.995C217.181 106.153 217.95 106.782 219.468 106.782C225.318 106.782 230.783 100.527 230.783 91.4697C230.783 83.0619 226.714 77.3146 217.302 76.0351C214.003 75.5274 212.101 74.3698 212.101 70.0441C212.101 65.7184 212.728 58.8134 212.728 52.1928C212.728 47.6031 212.485 41.8558 212.222 37.6519C211.716 31.3968 211.594 29.9955 208.66 29.9955C208.032 29.9955 207 30.1174 206.494 30.1174C204.834 30.1174 204.207 28.7161 204.207 27.4367C204.207 25.7714 205.097 24.7559 206.878 24.7559C210.825 24.7559 214.752 25.1418 218.577 25.1418C224.548 25.1418 230.519 24.8778 236.49 24.7559C239.284 24.7559 240.296 26.5431 240.296 29.0817M241.692 11.1086C241.692 18.2572 237.502 20.7958 225.297 20.9379C213.092 21.0598 208.902 18.2572 208.902 11.1086C208.943 3.31006 216.574 -0.000244141 225.338 -0.000244141C234.102 -0.000244141 241.733 3.31006 241.733 11.0882" fill="white"></path><path d="M279.987 95.5314C253.674 95.5314 244.141 82.8995 244.141 62.8752C244.141 33.9355 258.876 23.2125 279.987 23.2125C301.098 23.2125 315.954 34.565 315.833 62.8752C315.833 82.2699 306.299 95.5314 279.987 95.5314ZM280.25 28.1881C275.291 28.1881 272.498 32.7779 272.498 60.0726C272.498 80.7265 275.028 86.7175 280.25 86.7175C285.472 86.7175 287.617 81.62 287.617 60.0726C287.617 32.1483 284.946 28.1881 280.25 28.1881Z" fill="white"></path><path d="M311.258 27.0302C311.258 25.6289 312.27 24.7354 313.424 24.7354C317.37 24.7354 324.232 25.5071 332.49 25.5071C338.461 25.5071 344.432 24.8775 350.423 24.7354C351.82 24.7354 352.711 25.7508 352.711 27.2942C352.711 28.4315 351.82 29.711 350.423 29.711C347.63 29.711 347.124 30.8685 347.124 34.4226C347.124 43.9879 350.686 61.7173 354.37 71.6685C355.645 75.2428 357.042 76.766 359.714 76.766C362.001 76.766 364.41 75.6084 364.41 68.4801C364.41 51.2584 357.427 33.2853 357.427 27.9238C357.427 26.2585 357.933 24.7354 360.098 24.7354C362.001 24.7354 367.466 25.1212 371.413 25.1212C375.987 25.1212 379.792 24.7354 382.343 24.7354C383.739 24.7354 384.509 25.3649 384.509 27.1521C384.509 29.1829 378.032 38.1187 373.963 62.9967C367.871 91.4288 363.033 111.961 336.72 111.961C322.491 111.961 317.026 106.356 317.026 98.0697C317.026 90.2915 322.613 85.194 333.3 85.194C343.987 85.194 348.177 88.3825 348.177 95.0234C348.177 98.2118 346.274 99.999 344.23 101.4C342.712 102.416 341.558 103.066 341.558 104.711C341.558 105.604 342.185 106.234 343.461 106.234C350.201 106.234 358.337 94.7594 358.337 87.9966C358.337 81.6197 354.654 80.2184 347.408 80.2184C341.943 80.2184 336.214 80.9902 330.75 80.9902C327.572 80.9902 326.175 80.2184 325.163 75.385C319.314 48.5979 317.917 38.403 313.1 30.6248C311.703 29.4673 311.319 28.4518 311.319 27.0505" fill="white"></path></g><defs><clipPath id="clip0_221_8163"><rect width="384.47" height="111.982" fill="white"></rect></clipPath></defs></svg> 