<svg width="56" height="68" viewBox="0 0 56 68" fill="none" xmlns="http://www.w3.org/2000/svg">
<g clip-path="url(#clip0_8477_11320)">
<path d="M38.7969 0.0546875H6.54688C3.20728 0.0546875 0.5 2.77296 0.5 6.12612V56.0467C0.5 59.3999 3.20728 62.1182 6.54688 62.1182H38.7969C42.1365 62.1182 44.8438 59.3999 44.8438 56.0467V6.12612C44.8438 2.77296 42.1365 0.0546875 38.7969 0.0546875Z" fill="#CADEEF"/>
<path d="M44.8439 45.0576V56.0469C44.8414 57.6564 44.2036 59.1993 43.0701 60.3373C41.9366 61.4754 40.4 62.1159 38.797 62.1183H29.1892C27.2509 57.9019 26.4272 53.2552 26.7973 48.6262C26.8139 48.4775 26.88 48.3387 26.9848 48.2322C27.0896 48.1257 27.2271 48.0578 27.3751 48.0393C33.7378 47.1691 39.6435 42.1838 39.704 42.1366C39.8257 42.032 39.9806 41.9746 40.1407 41.9746C40.3009 41.9746 40.4557 42.032 40.5774 42.1366C41.9175 43.2259 43.3445 44.2028 44.8439 45.0576Z" fill="#7BADD7"/>
<path d="M44.8422 25.6895V56.0466C44.8398 57.6561 44.2019 59.199 43.0684 60.3371C41.9349 61.4751 40.3983 62.1156 38.7953 62.118H6.54531C5.1626 62.1161 3.82217 61.6392 2.74664 60.7667C1.67111 59.8942 0.925204 58.6785 0.632812 57.3216C26.0297 58.745 40.8109 49.9752 44.8422 25.6895Z" fill="#7BADD7"/>
<path d="M32.75 15.5705C32.75 17.5718 32.1589 19.5282 31.0515 21.1923C29.9441 22.8564 28.3701 24.1533 26.5286 24.9192C24.6871 25.6851 22.6607 25.8855 20.7057 25.4951C18.7508 25.1046 16.955 24.1409 15.5456 22.7257C14.1361 21.3105 13.1763 19.5075 12.7874 17.5446C12.3985 15.5817 12.5981 13.5471 13.3609 11.6981C14.1237 9.84905 15.4154 8.26867 17.0728 7.15677C18.7301 6.04488 20.6786 5.4514 22.6719 5.4514C23.9979 5.44234 25.3125 5.69789 26.5393 6.20321C27.7661 6.70853 28.8807 7.45354 29.8183 8.395C30.756 9.33645 31.498 10.4556 32.0012 11.6874C32.5045 12.9192 32.759 14.2391 32.75 15.5705Z" fill="#7BADD7"/>
<path d="M30.0108 22.1478C30.0232 22.2472 30.0126 22.3482 29.98 22.443C29.9474 22.5377 29.8936 22.6236 29.8227 22.6942C28.8874 23.6432 27.7741 24.3965 26.547 24.9106C25.32 25.4247 24.0035 25.6895 22.6739 25.6895C21.3443 25.6895 20.0279 25.4247 18.8008 24.9106C17.5738 24.3965 16.4604 23.6432 15.5252 22.6942C15.4543 22.6236 15.4005 22.5377 15.3678 22.443C15.3352 22.3482 15.3247 22.2472 15.337 22.1478C15.5415 20.3378 16.4025 18.6667 17.7557 17.4533C19.1089 16.24 20.8597 15.5693 22.6739 15.5693C24.4882 15.5693 26.2389 16.24 27.5922 17.4533C28.9454 18.6667 29.8064 20.3378 30.0108 22.1478Z" fill="#0054AA"/>
<path d="M22.6719 18.6066C25.2693 18.6066 27.375 16.4923 27.375 13.8843C27.375 11.2763 25.2693 9.16211 22.6719 9.16211C20.0744 9.16211 17.9688 11.2763 17.9688 13.8843C17.9688 16.4923 20.0744 18.6066 22.6719 18.6066Z" fill="#0054AA"/>
<path d="M7.89062 32.4361H37.4531C37.6313 32.4361 37.8022 32.365 37.9282 32.2385C38.0542 32.112 38.125 31.9404 38.125 31.7615C38.125 31.5826 38.0542 31.411 37.9282 31.2845C37.8022 31.158 37.6313 31.0869 37.4531 31.0869H7.89062C7.71243 31.0869 7.54154 31.158 7.41554 31.2845C7.28954 31.411 7.21875 31.5826 7.21875 31.7615C7.21875 31.9404 7.28954 32.112 7.41554 32.2385C7.54154 32.365 7.71243 32.4361 7.89062 32.4361Z" fill="#0677BA"/>
<path d="M37.4531 38.5068H7.89062C7.71243 38.5068 7.54154 38.5779 7.41554 38.7044C7.28954 38.8309 7.21875 39.0025 7.21875 39.1814C7.21875 39.3604 7.28954 39.5319 7.41554 39.6585C7.54154 39.785 7.71243 39.856 7.89062 39.856H37.4531C37.6313 39.856 37.8022 39.785 37.9282 39.6585C38.0542 39.5319 38.125 39.3604 38.125 39.1814C38.125 39.0025 38.0542 38.8309 37.9282 38.7044C37.8022 38.5779 37.6313 38.5068 37.4531 38.5068Z" fill="#0677BA"/>
<path d="M37.4531 45.9277H7.89062C7.71243 45.9277 7.54154 45.9988 7.41554 46.1253C7.28954 46.2518 7.21875 46.4234 7.21875 46.6023C7.21875 46.7813 7.28954 46.9528 7.41554 47.0794C7.54154 47.2059 7.71243 47.2769 7.89062 47.2769H37.4531C37.6313 47.2769 37.8022 47.2059 37.9282 47.0794C38.0542 46.9528 38.125 46.7813 38.125 46.6023C38.125 46.4234 38.0542 46.2518 37.9282 46.1253C37.8022 45.9988 37.6313 45.9277 37.4531 45.9277Z" fill="#0677BA"/>
<path d="M42.6382 68.0549C42.5615 68.0867 42.4793 68.1028 42.3963 68.1021C42.3133 68.1034 42.2309 68.0873 42.1545 68.0549C27.0507 62.1791 29.0327 43.9041 29.0529 43.7219C29.0695 43.5732 29.1356 43.4344 29.2404 43.3279C29.3453 43.2214 29.4827 43.1535 29.6307 43.135C35.9934 42.2648 41.8991 37.2795 41.9596 37.2323C42.0813 37.1277 42.2362 37.0703 42.3963 37.0703C42.5565 37.0703 42.7113 37.1277 42.833 37.2323C42.8868 37.2795 48.7993 42.2648 55.162 43.135C55.3099 43.1535 55.4474 43.2214 55.5522 43.3279C55.6571 43.4344 55.7231 43.5732 55.7398 43.7219C55.7599 43.9041 57.742 62.1791 42.6382 68.0549Z" fill="#1DD882"/>
<path d="M39.5799 58.4567C39.4002 58.4569 39.2226 58.4163 39.0602 58.3379C38.8977 58.2595 38.7544 58.1452 38.6407 58.0033L35.0453 53.526C34.8382 53.2787 34.731 52.9604 34.7454 52.6356C34.7598 52.3107 34.8948 52.0036 35.1231 51.7765C35.2448 51.6633 35.3879 51.5766 35.5436 51.5216C35.6994 51.4667 35.8644 51.4447 36.0287 51.4569C36.1931 51.4691 36.3532 51.5153 36.4995 51.5927C36.6457 51.6702 36.7749 51.7771 36.8793 51.9071L39.8597 55.6189L49.3482 47.4242C49.4854 47.3414 49.6373 47.287 49.7952 47.2642C49.9531 47.2413 50.1138 47.2504 50.2682 47.291C50.4226 47.3315 50.5677 47.4027 50.6951 47.5006C50.8224 47.5984 50.9296 47.7208 51.0105 47.861C51.0914 48.0011 51.1444 48.1561 51.1664 48.3171C51.1884 48.4781 51.1791 48.642 51.1389 48.7993C51.0987 48.9567 51.0285 49.1044 50.9322 49.234C50.836 49.3636 50.7156 49.4726 50.5779 49.5547L40.1937 58.286C40.0077 58.3977 39.7958 58.4566 39.5799 58.4567Z" fill="url(#paint0_linear_8477_11320)"/>
<path d="M39.1206 57.3237C38.9408 57.3239 38.7633 57.2834 38.6009 57.205C38.4384 57.1265 38.2951 57.0123 38.1814 56.8704L34.586 52.3931C34.379 52.1458 34.272 51.8277 34.2865 51.503C34.3009 51.1783 34.4359 50.8713 34.664 50.6442C34.7857 50.531 34.9288 50.4443 35.0845 50.3893C35.2402 50.3344 35.4053 50.3123 35.5696 50.3246C35.734 50.3368 35.8941 50.383 36.0404 50.4604C36.1866 50.5378 36.3159 50.6448 36.4202 50.7748L39.4007 54.4865L48.8891 46.2919C49.0263 46.2096 49.1781 46.1556 49.3357 46.1331C49.4934 46.1105 49.6539 46.1199 49.808 46.1606C49.9621 46.2013 50.1068 46.2725 50.2339 46.3703C50.3611 46.468 50.468 46.5903 50.5488 46.7302C50.6295 46.8701 50.6825 47.0248 50.7046 47.1855C50.7267 47.3463 50.7175 47.5099 50.6776 47.667C50.6377 47.8242 50.5678 47.9718 50.4719 48.1014C50.3761 48.231 50.2561 48.34 50.1189 48.4224L39.7348 57.1529C39.5487 57.2647 39.3366 57.3237 39.1206 57.3237Z" fill="#E8F1F8"/>
<path d="M42.5907 68.2886C42.5141 68.3204 42.4318 68.3365 42.3489 68.3358C42.2659 68.3371 42.1835 68.321 42.107 68.2886C39.6568 66.9375 39.6568 66.9375 35.7695 64.087C51.1084 65.1461 53.1092 47.8887 54.2581 42.9775C54.6747 43.072 54.7347 43.0818 55.1512 43.1358C55.2992 43.1543 55.4367 43.2222 55.5415 43.3287C55.6463 43.4351 55.7124 43.5739 55.7291 43.7227C55.7492 43.9049 57.6945 62.4128 42.5907 68.2886Z" fill="url(#paint1_linear_8477_11320)"/>
</g>
<defs>
<linearGradient id="paint0_linear_8477_11320" x1="37.5914" y1="46.3863" x2="46.7302" y2="57.3687" gradientUnits="userSpaceOnUse">
<stop stop-color="#068C46"/>
<stop offset="1" stop-color="#068C46" stop-opacity="0"/>
</linearGradient>
<linearGradient id="paint1_linear_8477_11320" x1="37.3376" y1="43.4544" x2="55.8588" y2="58.2945" gradientUnits="userSpaceOnUse">
<stop stop-color="#068C46"/>
<stop offset="1" stop-color="#068C46" stop-opacity="0"/>
</linearGradient>
<clipPath id="clip0_8477_11320">
<rect width="56" height="68" fill="white"/>
</clipPath>
</defs>
</svg>
