<svg width="103" height="22" viewBox="0 0 103 22" fill="none" xmlns="http://www.w3.org/2000/svg">
<path d="M37.3362 21.1051C37.127 20.964 36.9604 20.7682 36.8546 20.539C36.7488 20.3098 36.7079 20.056 36.7362 19.8051C36.7265 19.4561 36.7971 19.1094 36.9426 18.792C37.0881 18.4745 37.3045 18.1947 37.5752 17.9742C38.4962 17.0532 40.3152 16.1551 43.3752 15.0801C43.9075 14.472 44.2593 13.7274 44.3912 12.9301C44.3672 12.8951 44.2142 13.0011 44.0602 13.1431C42.4892 14.5961 40.7772 15.3281 39.8792 14.9501C39.545 14.7418 39.2909 14.4267 39.158 14.0559C39.0252 13.6851 39.0214 13.2804 39.1472 12.9071C39.2772 12.4821 39.0412 12.5071 38.5562 12.9541C37.819 13.6414 36.9831 14.2144 36.0762 14.6541C35.5462 14.9452 34.9433 15.0765 34.3402 15.0321C34.0932 15.077 33.8395 15.0696 33.5954 15.0105C33.3514 14.9515 33.1224 14.842 32.9232 14.6891C32.6508 14.499 32.4215 14.2537 32.2502 13.9691C32.1562 13.7561 32.0262 13.5791 31.9502 13.5791C31.6682 13.6767 31.3955 13.7991 31.1352 13.9451C30.035 14.5544 28.8205 14.9289 27.5682 15.0451C26.1982 15.0571 25.8082 14.6451 25.8912 13.2021C25.9126 12.9361 25.9206 12.669 25.9152 12.4021C25.7428 12.5307 25.581 12.6728 25.4312 12.8271C24.3176 13.9957 22.8545 14.7709 21.2622 15.0361C20.6482 15.0481 20.5182 15.0121 20.2462 14.7531C19.0652 13.5601 20.2342 10.3711 22.6202 8.25314C24.3488 6.64003 26.6105 5.71921 28.9742 5.66614C30.1742 5.66614 30.9352 5.85515 31.0882 6.20915C31.3882 6.84715 30.9112 7.60314 29.6352 8.52414C29.211 8.94636 28.8827 9.45503 28.6727 10.0155C28.4627 10.576 28.3759 11.1751 28.4182 11.7721C28.4862 11.9948 28.6032 12.1994 28.7604 12.371C28.9177 12.5427 29.1114 12.677 29.3272 12.7641C29.4102 12.7761 29.5512 12.7881 29.6462 12.7991C30.3618 12.6608 31.0566 12.4305 31.7132 12.1142C31.9022 11.9841 31.9962 11.7831 32.0442 11.3141C32.2922 9.25915 34.1702 5.98714 36.3902 3.75514C37.1922 2.89227 38.12 2.15562 39.1422 1.57014C40.3422 0.826144 41.6112 0.755137 42.2012 1.41614C42.5082 1.75914 42.6382 2.43215 42.4372 2.64415C42.3791 2.70571 42.342 2.78414 42.3312 2.86815C41.8625 4.25736 41.1014 5.52995 40.0992 6.60014C38.5539 8.35473 36.8585 9.9712 35.0322 11.4312C34.7252 11.6672 34.7012 11.7381 34.7962 12.0101C34.8856 12.2111 35.0227 12.3872 35.1956 12.5231C35.3684 12.659 35.5719 12.7507 35.7882 12.7901C36.4971 12.7356 37.1827 12.5128 37.7882 12.1402C38.847 11.3844 39.8178 10.5123 40.6822 9.54014C41.5665 8.46077 42.6547 7.56619 43.8848 6.90749C45.1149 6.24878 46.4627 5.83886 47.8512 5.70114C49.7292 5.59514 50.6032 5.93714 50.5322 6.76414C50.3759 7.34581 50.0224 7.85513 49.5322 8.20514C49.1422 8.44114 49.1542 8.41815 48.1972 11.1701C48.0792 11.5012 47.8432 12.0702 47.6772 12.4462C47.3342 13.2022 47.3232 13.2261 47.5002 13.2261C48.1351 12.8892 48.7397 12.4981 49.3072 12.0571C49.5902 11.8441 51.6462 9.78914 52.0832 9.28114L52.3662 8.96214L52.1182 8.51314C51.7752 7.89914 51.7872 7.52114 52.2012 6.64714C52.3313 6.26518 52.5755 5.93235 52.9008 5.6936C53.2261 5.45486 53.6168 5.32172 54.0202 5.31215C54.6812 5.31215 54.9292 5.57215 54.9292 6.24515C54.9292 6.54515 54.9882 6.76514 55.0832 6.80014C56.0526 6.71071 57.0037 6.47994 57.9062 6.11514C58.5912 5.80814 58.8272 5.93815 58.8272 6.63515C58.7211 7.27616 58.4152 7.86727 57.9532 8.32414C57.8822 8.39514 57.4812 8.83214 57.0792 9.30414C56.1102 10.4381 55.7332 11.1821 55.7792 11.9041C55.7611 12.0683 55.7931 12.234 55.8711 12.3795C55.9491 12.525 56.0695 12.6435 56.2162 12.7191C56.7002 13.0501 57.2912 13.0621 58.3542 12.7661L59.1102 12.5531L59.2522 11.8531C59.8432 8.75915 63.4212 5.68814 66.4212 5.66414C67.094 5.61328 67.7621 5.81073 68.2992 6.21915C68.4684 6.50557 68.5615 6.83049 68.5697 7.16304C68.578 7.49558 68.501 7.8247 68.3462 8.11914C67.7322 9.28814 65.5352 11.0481 63.5032 11.9931C63.1312 12.1303 62.787 12.3335 62.4872 12.5931C62.4872 12.9001 63.2432 13.1361 64.3772 13.1931C65.5233 13.2593 66.6712 13.0989 67.7552 12.7211L68.6052 12.4491L68.6762 11.8701C68.8762 10.1701 70.5762 7.91314 72.5262 6.77014C73.4549 6.13884 74.5356 5.76766 75.6562 5.69514C77.5562 5.57714 78.3252 6.29515 77.8882 7.78615C77.5222 9.05015 74.8762 11.2111 72.5612 12.1801C71.8762 12.4631 71.7932 12.6521 72.2072 12.9121C73.3292 13.6561 75.6562 12.9002 78.1952 10.9872C79.8793 9.63 81.4225 8.10663 82.8012 6.44014C83.4272 5.64014 83.4392 5.64014 83.9012 5.70814C84.7282 5.85014 84.8462 5.96814 84.7872 6.60814C84.6429 7.26153 84.3784 7.88241 84.0072 8.43915C83.7373 8.85963 83.5117 9.30703 83.3342 9.77414C83.7432 9.51547 84.1269 9.21883 84.4802 8.88814C87.5742 6.23014 89.5002 5.22714 90.6342 5.65214C91.2342 5.88814 91.1422 6.31314 90.3032 7.19914C89.1217 8.36334 88.2281 9.78706 87.6932 11.3571C87.6489 11.4913 87.6491 11.6362 87.6938 11.7703C87.7385 11.9043 87.8253 12.0204 87.9412 12.1011C88.0284 12.2226 88.1527 12.3125 88.2953 12.3572C88.438 12.4019 88.5913 12.3991 88.7322 12.3492C89.8322 12.1722 91.1322 11.2491 93.0792 9.24315C93.8942 8.41615 94.9692 7.22315 95.4532 6.60915C96.5282 5.26315 96.6462 5.15615 97.3662 4.84915C97.6069 4.69959 97.8842 4.61933 98.1675 4.61722C98.4509 4.6151 98.7293 4.6912 98.9722 4.83714C99.6222 5.15614 99.7872 5.54614 99.3502 5.77014C99.1792 5.86358 99.0237 5.98301 98.8892 6.12414C98.3342 6.80914 98.3342 6.82415 98.2752 9.14815C98.2162 11.3481 98.2042 11.4041 97.8752 12.0181C97.7391 12.2202 97.6377 12.4436 97.5752 12.6791C98.3464 12.8533 99.1346 12.9405 99.9252 12.9391C100.599 13.0363 101.287 12.9757 101.933 12.7621C102.195 12.6635 102.469 12.5999 102.748 12.5731C102.762 12.6883 102.737 12.8046 102.677 12.9041C102.606 13.0461 102.488 13.3411 102.405 13.5541C102.074 14.154 101.549 14.6244 100.917 14.8891C99.2592 15.3474 97.5013 15.2937 95.8742 14.7351C95.1062 14.4871 95.0742 14.4871 94.6462 14.6881C93.9297 15.0146 93.1325 15.1214 92.3552 14.9951C91.7642 14.8301 91.5752 14.4751 91.7292 13.8381C91.8232 13.4721 91.9292 13.3542 92.4852 13.0582C92.9863 12.7899 93.5469 12.6524 94.1152 12.6581C95.0152 12.6111 95.1072 12.5751 95.3792 12.2581C95.6247 11.9293 95.7899 11.5476 95.8616 11.1436C95.9333 10.7396 95.9096 10.3244 95.7922 9.93115C95.5682 8.26615 95.6382 8.25414 93.8922 10.0851C92.4458 11.7061 90.7464 13.0822 88.8602 14.1601C88.2932 14.4431 87.7262 14.7151 87.6202 14.7741C87.3055 14.8798 86.9813 14.9548 86.6522 14.9981C86.2997 15.1062 85.9256 15.1239 85.5645 15.0497C85.2033 14.9754 84.8666 14.8115 84.5852 14.5731C84.3372 14.2731 84.3132 14.1601 84.3722 13.4731C84.5657 12.2074 85.087 11.0142 85.8842 10.0121C86.1455 9.66809 86.3672 9.29575 86.5452 8.90214C85.8973 9.21111 85.3031 9.62199 84.7852 10.1191C83.37 11.2764 82.167 12.6713 81.2302 14.2411C80.8052 14.9501 80.7812 14.9611 80.1672 15.0321C79.8169 15.0782 79.4611 15.0623 79.1162 14.9851C78.7502 14.8911 78.6672 14.8081 78.6082 14.4851C78.6322 13.5926 78.9335 12.7297 79.4702 12.0161C80.0012 11.1541 79.9902 10.9161 79.4462 11.4251C77.9337 12.8137 76.1641 13.893 74.2372 14.6021C73.471 14.919 72.6446 15.064 71.8162 15.0271C71.2002 15.1177 70.5712 15.0231 70.0092 14.7551C69.6625 14.5736 69.3475 14.3372 69.0762 14.0551L68.7102 13.6421L67.6352 14.0201C66.6064 14.3745 65.5572 14.6664 64.4932 14.8941C63.8666 14.9776 63.2354 15.021 62.6032 15.0241C62.0963 15.1035 61.5781 15.0695 61.086 14.9244C60.5938 14.7793 60.14 14.5268 59.7572 14.1851C59.3912 13.8661 59.3082 13.8312 59.1072 13.9722C58.0061 14.4492 56.8524 14.7943 55.6702 15.0002C52.2922 15.4722 51.8432 13.0751 54.7012 9.88614C54.9595 9.62697 55.1854 9.33753 55.3742 9.02414C55.0786 8.99803 54.7809 9.0098 54.4882 9.05914L53.6612 9.14215L52.7612 10.2171C51.8978 11.2376 50.9366 12.171 49.8912 13.0041C49.7022 13.1461 49.5252 13.3041 49.4912 13.3351C48.6801 13.9234 47.8275 14.4525 46.9402 14.9182C46.2902 15.2492 46.0902 15.4261 45.3102 16.4651C44.3181 17.7539 43.185 18.9279 41.9322 19.9651C41.5331 20.2397 41.1191 20.492 40.6922 20.7211C40.1185 21.105 39.4309 21.2814 38.7432 21.2211C38.2716 21.2881 37.791 21.2478 37.3372 21.1031L37.3362 21.1051ZM39.6862 19.9592C40.5965 19.3672 41.3762 18.5954 41.9772 17.6911C42.9222 16.3911 42.8862 16.3211 41.6232 16.9111C39.7232 17.7971 38.5052 18.9191 38.5052 19.7691C38.5052 20.2451 38.9772 20.3272 39.6862 19.9612V19.9592ZM24.2962 12.0221C25.6696 11.1615 26.8591 10.0376 27.7962 8.71515C28.0384 8.40491 28.2631 8.0814 28.4692 7.74614C28.259 7.65202 28.0364 7.58838 27.8082 7.55714C26.9582 7.4804 26.1019 7.59787 25.3039 7.90069C24.506 8.20352 23.7873 8.68377 23.2022 9.30514C22.8556 9.64458 22.5574 10.0302 22.3162 10.4511C21.9032 11.3511 22.1032 12.3291 22.7162 12.4231C23.2704 12.446 23.8193 12.3074 24.2962 12.0241V12.0221ZM43.7612 11.9161C44.4528 11.4714 45.0875 10.9438 45.6512 10.3451C46.7512 9.23514 47.8242 7.86514 47.6942 7.73514C47.4853 7.65089 47.2671 7.59149 47.0442 7.55815C46.2172 7.46557 45.3801 7.57282 44.6031 7.87089C43.8262 8.16897 43.1321 8.64918 42.5792 9.27115C41.6582 10.1801 41.3392 10.7241 41.3392 11.4211C41.3402 12.5791 42.2022 12.7562 43.7612 11.9182V11.9161ZM63.1312 10.7821C64.9382 9.73115 66.1432 8.56214 66.1432 7.86514C66.1432 7.14514 65.7532 7.03814 64.8432 7.49914C63.6309 8.21505 62.6834 9.30493 62.1432 10.6051C61.8122 11.5141 61.8712 11.5261 63.1352 10.7821H63.1312ZM71.8712 11.1721C73.2421 10.4978 74.4539 9.5396 75.4262 8.36114C75.7452 7.76114 75.5802 7.20415 75.0832 7.20415C74.1981 7.46966 73.4046 7.97704 72.7922 8.66914C72.0242 9.51914 71.0682 11.3381 71.3982 11.3381C71.5586 11.2917 71.7165 11.2369 71.8712 11.1741V11.1721ZM36.1072 8.95215C37.4732 7.64965 38.6608 6.17216 39.6392 4.55815C39.8008 4.24755 39.9347 3.92328 40.0392 3.58914C40.0286 3.51694 40.0034 3.44767 39.9651 3.38553C39.9268 3.32339 39.8763 3.26968 39.8166 3.22768C39.7569 3.18567 39.6893 3.15625 39.6179 3.1412C39.5465 3.12616 39.4728 3.1258 39.4012 3.14015C38.4092 3.45915 36.1532 6.55315 35.1142 9.03415C34.9602 9.42415 34.7952 9.81415 34.7602 9.89615C34.5962 10.2881 35.1032 9.93414 36.1072 8.95314V8.95215Z" fill="#E62725"/>
<path d="M4.46335 15.0011C4.05677 14.9243 3.67357 14.7541 3.34389 14.5041C3.0142 14.254 2.74702 13.9309 2.56335 13.5601C1.92535 12.2841 2.18534 10.1471 3.24834 7.87914C3.99305 6.35999 4.92971 4.94275 6.03535 3.66214C6.09435 3.66214 6.14134 3.57914 6.14134 3.48514C6.14134 3.27214 6.08235 3.27214 5.49135 3.48514C4.47678 3.70654 3.42768 3.71845 2.40835 3.52014C1.8388 3.40733 1.25227 3.41141 0.684349 3.53214C0.470482 3.59736 0.246186 3.62146 0.0233455 3.60314C-0.118655 3.47314 0.413347 2.43414 0.909347 1.89014C1.70935 1.00414 2.17335 0.898144 5.00935 0.990144C6.04902 1.05836 7.09277 1.03057 8.12734 0.907137C8.81234 0.777137 8.97735 0.777137 8.97735 0.907137C8.75406 1.5633 8.45184 2.18989 8.07735 2.77313C7.40089 3.79239 6.79706 4.85804 6.27035 5.96214C5.55092 7.17876 5.16784 8.56475 5.16035 9.97814C5.14835 11.1951 5.30235 11.6081 5.89235 12.1161C6.25835 12.4231 6.39235 12.4591 7.13235 12.4591C8.40835 12.4591 8.38435 12.4711 8.38435 11.2071C8.38435 7.93514 10.6163 4.10714 13.2153 2.92714C13.5859 2.72718 13.9958 2.61084 14.4161 2.58631C14.8364 2.56177 15.2571 2.62965 15.6483 2.78514C16.1483 3.05714 16.2983 3.38514 16.2983 4.22614C16.3033 5.00342 16.1168 5.76997 15.7553 6.45813C15.6013 6.78913 15.4723 7.09614 15.4723 7.11914C15.0853 7.83338 14.6555 8.52364 14.1853 9.18614C13.4942 10.146 12.7108 11.0359 11.8463 11.8431C11.5033 12.1151 11.6103 12.3431 12.1773 12.5631C13.3943 13.0631 14.9173 12.6461 16.4173 11.4061C19.2993 9.05614 20.9173 3.80014 19.3583 1.85114L18.9923 1.40213L19.4413 0.977144C19.6908 0.717308 19.9949 0.51613 20.3316 0.388155C20.6683 0.26018 21.0293 0.208597 21.3883 0.237139C22.0383 0.237139 22.1443 0.272136 22.4513 0.603136C22.8643 1.05214 22.9593 1.51214 22.8883 2.82314C22.7099 4.47916 22.2085 6.08411 21.4123 7.54714C20.924 8.54527 20.3173 9.481 19.6053 10.3341C18.2777 12.0653 16.5661 13.4645 14.6053 14.4211C14.2743 14.5511 13.9053 14.6931 13.8053 14.7521C12.9221 15.0179 11.9949 15.1063 11.0773 15.0121C10.4512 14.9305 9.86959 14.644 9.42335 14.1971C9.18735 13.9731 9.05735 13.9371 8.95135 14.0321C8.69829 14.1819 8.43013 14.3046 8.15134 14.3981C7.79734 14.5401 7.39534 14.7051 7.26534 14.7641C6.61154 14.9558 5.9377 15.0709 5.25735 15.1071C5.12535 15.0951 4.77035 15.0481 4.46335 15.0011ZM12.0813 9.48514C13.146 8.35367 13.9732 7.02045 14.5143 5.56413C14.7973 4.70213 14.7143 4.37114 14.1953 4.37114C13.9593 4.37114 13.6953 4.56014 13.1793 5.10314C11.9799 6.50715 11.2308 8.23959 11.0293 10.0751C10.9243 10.6311 11.2553 10.4371 12.0813 9.48514Z" fill="#E62725"/>
</svg>
