<svg width="35" height="35" viewBox="0 0 35 35" fill="none" xmlns="http://www.w3.org/2000/svg">
<path d="M5.81316 11.4622C5.94788 11.5406 6.10092 11.5821 6.25681 11.5825C6.40966 11.5825 6.56265 11.5422 6.70217 11.4616L8.90027 10.1926C9.17897 10.0317 9.34529 9.74401 9.34529 9.42292C9.34529 9.1019 9.1789 8.81418 8.90027 8.65333L6.70217 7.38431C6.42354 7.22339 6.09118 7.22332 5.81316 7.38376C5.53521 7.54427 5.36923 7.8322 5.36923 8.15397V10.6921C5.36916 11.0138 5.53514 11.3017 5.81316 11.4622ZM6.18948 8.1539C6.18948 8.14392 6.18948 8.11363 6.22331 8.09408C6.23346 8.08798 6.24504 8.08468 6.25688 8.08451C6.2685 8.08451 6.28026 8.08793 6.29202 8.0947L8.49011 9.36372C8.49872 9.36871 8.52504 9.38382 8.52504 9.42292C8.52504 9.46202 8.49879 9.47713 8.49011 9.48212L6.29202 10.7511C6.2818 10.7578 6.26992 10.7613 6.25775 10.7614C6.24559 10.7615 6.23364 10.7582 6.22331 10.7518C6.18948 10.7322 6.18948 10.7019 6.18948 10.6919V8.1539ZM2.46102 14.0005H11.3639C12.3439 14.0005 13.1413 13.2032 13.1413 12.2232V6.62272C13.1413 5.64272 12.3439 4.84537 11.3639 4.84537H2.46102C1.48102 4.84537 0.683675 5.64272 0.683675 6.62272V12.2232C0.683743 13.2032 1.48102 14.0005 2.46102 14.0005ZM1.50406 6.62272C1.50406 6.09505 1.93335 5.66568 2.46109 5.66568H11.364C11.8917 5.66568 12.321 6.09498 12.321 6.62272V12.2232C12.321 12.7509 11.8917 13.1802 11.364 13.1802H2.46102C1.93335 13.1802 1.50399 12.7509 1.50399 12.2232V6.62272H1.50406ZM22.156 19.4957C22.1328 19.4091 22.0819 19.3324 22.011 19.2775C21.9401 19.2226 21.8532 19.1925 21.7635 19.1917L19.8955 19.1752L18.5067 13.9921C18.4061 13.6164 18.1643 13.3018 17.8257 13.1064C17.4872 12.911 17.0938 12.8587 16.7181 12.9594C16.3423 13.0601 16.0278 13.302 15.8324 13.6405C15.6369 13.979 15.5847 14.3724 15.6854 14.748L15.8455 15.3456C15.2325 16.4772 13.0869 19.6417 7.59905 21.4073C6.59355 21.7308 5.54457 21.9934 4.53005 22.2474C4.01838 22.3755 3.48928 22.508 2.96975 22.6472C2.16495 22.8629 1.4966 23.3831 1.08795 24.1121C0.677728 24.8437 0.575531 25.7083 0.800159 26.5464C1.19035 28.0027 2.43668 28.9459 3.82123 28.9458C4.08695 28.9458 4.35799 28.911 4.62876 28.8386C4.69152 28.8217 4.75448 28.8044 4.81737 28.7872L7.55037 33.5209C7.845 34.0311 8.38115 34.3167 8.93178 34.3166C9.21037 34.3167 9.48405 34.2432 9.72516 34.1037C10.0923 33.8916 10.3553 33.5482 10.4656 33.1366C10.5759 32.725 10.5199 32.296 10.3079 31.9289L7.98418 27.9041C8.40801 27.7933 8.83341 27.6889 9.25765 27.5975C14.8934 26.3826 18.3336 28.0504 19.4302 28.7239L19.5903 29.3214C19.765 29.9731 20.3565 30.4041 21.0014 30.404C21.1261 30.404 21.2529 30.3879 21.379 30.3542C22.1569 30.1457 22.6201 29.3433 22.4116 28.5655L21.0228 23.3823L22.6323 22.434C22.7096 22.3885 22.7698 22.3189 22.8037 22.2359C22.8377 22.1529 22.8435 22.0611 22.8203 21.9745L22.156 19.4957ZM4.41637 28.046C3.17893 28.3777 1.93848 27.6255 1.59244 26.334C1.42353 25.7037 1.49845 25.057 1.8034 24.513C2.10302 23.9787 2.59261 23.5973 3.18201 23.4395C3.69497 23.302 4.22079 23.1703 4.72925 23.043C5.62059 22.8199 6.53818 22.59 7.43902 22.3164L8.6645 26.89C7.7478 27.1034 6.83848 27.363 5.95521 27.6154C5.45092 27.7596 4.92954 27.9085 4.41637 28.046ZM9.59739 32.3388C9.69987 32.5162 9.72673 32.7241 9.67314 32.9241C9.61954 33.1241 9.49233 33.2907 9.31494 33.3931C9.13754 33.4955 8.9298 33.5225 8.72964 33.4688C8.52962 33.4152 8.3631 33.2879 8.2607 33.1106L5.63337 28.56C5.81712 28.5079 6.00012 28.4557 6.18059 28.4042C6.5055 28.3114 6.83424 28.2177 7.16496 28.1256L9.59739 32.3388ZM9.46738 26.717L8.22084 22.0649C11.7015 20.8708 14.572 18.8247 16.1409 16.448L19.1348 27.6213C16.5878 26.3475 13.0788 26.0108 9.46738 26.717ZM21.1667 29.5617C20.8256 29.6531 20.474 29.45 20.3826 29.1091L16.4777 14.5357C16.4337 14.3717 16.4568 14.1994 16.5428 14.0506C16.6286 13.9018 16.7663 13.7957 16.9304 13.7517C16.984 13.7373 17.0394 13.73 17.0949 13.73C17.2059 13.73 17.3159 13.7594 17.4155 13.8168C17.5642 13.9026 17.6704 14.0403 17.7143 14.2043L21.6193 28.7776C21.7106 29.1186 21.5076 29.4703 21.1667 29.5617ZM20.8025 22.56L20.1158 19.9974L21.4443 20.0092L21.9471 21.8855L20.8025 22.56ZM24.2126 15.018L22.7616 17.5311C22.7347 17.5778 22.6989 17.6187 22.6561 17.6515C22.6134 17.6843 22.5646 17.7083 22.5126 17.7223C22.4606 17.7362 22.4063 17.7398 22.3529 17.7327C22.2995 17.7257 22.248 17.7082 22.2014 17.6812C22.1072 17.6268 22.0384 17.5372 22.0103 17.4322C21.9821 17.3271 21.9969 17.2151 22.0512 17.1209L23.5022 14.6078C23.5569 14.5144 23.6465 14.4464 23.7512 14.4187C23.8559 14.3911 23.9673 14.4059 24.0611 14.4601C24.1549 14.5142 24.2235 14.6033 24.2518 14.7078C24.2802 14.8123 24.2661 14.9238 24.2126 15.018ZM26.4299 25.5344L23.9168 24.0834C23.8697 24.0567 23.8285 24.0209 23.7953 23.9782C23.7622 23.9354 23.7378 23.8865 23.7237 23.8343C23.7095 23.7821 23.7058 23.7276 23.7128 23.674C23.7197 23.6203 23.7372 23.5686 23.7643 23.5218C23.7913 23.4749 23.8274 23.4339 23.8703 23.401C23.9133 23.3682 23.9624 23.3442 24.0147 23.3303C24.0669 23.3165 24.1215 23.3132 24.1751 23.3205C24.2286 23.3278 24.2803 23.3457 24.3269 23.373L26.84 24.824C26.887 24.8508 26.9283 24.8865 26.9615 24.9293C26.9946 24.972 27.019 25.0209 27.0331 25.0731C27.0473 25.1253 27.051 25.1798 27.044 25.2334C27.0371 25.2871 27.0195 25.3388 26.9925 25.3857C26.9655 25.4325 26.9294 25.4735 26.8864 25.5064C26.8435 25.5392 26.7944 25.5633 26.7421 25.5771C26.6898 25.5909 26.6353 25.5943 26.5817 25.5869C26.5281 25.5796 26.4765 25.5618 26.4299 25.5344ZM24.4839 19.7757L27.287 19.0246C27.392 18.9965 27.504 19.0112 27.5982 19.0656C27.6924 19.12 27.7611 19.2096 27.7893 19.3147C27.8032 19.3667 27.8068 19.421 27.7997 19.4744C27.7927 19.5278 27.7752 19.5793 27.7483 19.6259C27.7214 19.6725 27.6855 19.7134 27.6428 19.7462C27.6 19.779 27.5512 19.803 27.4992 19.817L24.6962 20.5681C24.5911 20.5962 24.4792 20.5814 24.385 20.527C24.2908 20.4726 24.222 20.3831 24.1938 20.278C24.1657 20.173 24.1805 20.061 24.2349 19.9668C24.2893 19.8726 24.3789 19.8038 24.4839 19.7757ZM32.159 0.683105H22.1707C20.981 0.683105 20.0131 1.65101 20.0131 2.84066V7.92024C20.0131 9.1099 20.981 10.0778 22.1707 10.0778H23.2386V12.4212C23.2386 12.499 23.2607 12.5751 23.3023 12.6408C23.3439 12.7065 23.4033 12.7589 23.4736 12.7921C23.5439 12.8253 23.6222 12.8379 23.6994 12.8283C23.7765 12.8187 23.8494 12.7874 23.9094 12.738L27.144 10.0778H32.1591C33.3487 10.0778 34.3166 9.1099 34.3166 7.92024V2.84066C34.3165 1.65101 33.3487 0.683105 32.159 0.683105ZM33.4962 7.92018C33.4962 8.6575 32.8963 9.25742 32.1589 9.25742H26.9969C26.9019 9.25742 26.8098 9.29044 26.7364 9.3508L24.059 11.5528V9.66758C24.059 9.5588 24.0157 9.45447 23.9388 9.37755C23.8619 9.30064 23.7576 9.25742 23.6488 9.25742H22.1707C21.4333 9.25742 20.8334 8.65757 20.8334 7.92018V2.84066C20.8334 2.10334 21.4333 1.50342 22.1707 1.50342H32.159C32.8963 1.50342 33.4962 2.10327 33.4962 2.84066V7.92018H33.4962ZM31.817 3.45781C31.817 3.56659 31.7738 3.67092 31.6969 3.74784C31.6199 3.82476 31.5156 3.86797 31.4068 3.86797H22.9228C22.814 3.86797 22.7097 3.82476 22.6328 3.74784C22.5559 3.67092 22.5127 3.56659 22.5127 3.45781C22.5127 3.34903 22.5559 3.24471 22.6328 3.16779C22.7097 3.09087 22.814 3.04766 22.9228 3.04766H31.4068C31.5156 3.04766 31.6199 3.09087 31.6969 3.16779C31.7738 3.24471 31.817 3.34903 31.817 3.45781ZM31.817 7.30296C31.817 7.41174 31.7738 7.51606 31.6969 7.59298C31.6199 7.6699 31.5156 7.71312 31.4068 7.71312H26.9969C26.8881 7.71312 26.7838 7.6699 26.7069 7.59298C26.63 7.51606 26.5868 7.41174 26.5868 7.30296C26.5868 7.19418 26.63 7.08985 26.7069 7.01294C26.7838 6.93602 26.8881 6.8928 26.9969 6.8928H31.4068C31.5156 6.8928 31.6199 6.93602 31.6969 7.01294C31.7738 7.08985 31.817 7.19418 31.817 7.30296ZM31.817 5.38042C31.817 5.4892 31.7738 5.59353 31.6969 5.67044C31.6199 5.74736 31.5156 5.79058 31.4068 5.79058H22.9228C22.814 5.79058 22.7097 5.74736 22.6328 5.67044C22.5559 5.59353 22.5127 5.4892 22.5127 5.38042C22.5127 5.27164 22.5559 5.16732 22.6328 5.0904C22.7097 5.01348 22.814 4.97026 22.9228 4.97026H31.4068C31.5156 4.97026 31.6199 5.01348 31.6969 5.0904C31.7738 5.16732 31.817 5.27164 31.817 5.38042ZM31.8655 26.3808C31.1511 26.3808 30.4797 26.7189 30.0206 27.2798C29.5613 26.7189 28.8901 26.3808 28.1757 26.3808C26.8242 26.3808 25.7246 27.5603 25.7246 29.0102C25.7246 30.2228 27.1608 31.7688 28.7609 33.3793C29.0203 33.6403 29.2442 33.8657 29.4108 34.046C29.5694 34.2176 29.7916 34.3159 30.0206 34.3159C30.2497 34.3159 30.4719 34.2175 30.6303 34.046C30.7969 33.8657 31.0208 33.6403 31.2802 33.3793C32.8803 31.7688 34.3165 30.2228 34.3165 29.0102C34.3165 27.5603 33.2169 26.3808 31.8655 26.3808ZM30.6983 32.8011C30.4333 33.0677 30.2045 33.2981 30.0278 33.4893C30.0237 33.4936 30.0211 33.4951 30.0209 33.4955C30.018 33.4939 30.0153 33.4918 30.0132 33.4892C29.8366 33.298 29.6077 33.0677 29.3427 32.8011C28.3649 31.817 26.5448 29.985 26.5448 29.0102C26.5448 28.0126 27.2764 27.2011 28.1756 27.2011C28.7968 27.2011 29.3734 27.6027 29.6446 28.2242C29.6765 28.2974 29.7291 28.3597 29.7959 28.4034C29.8626 28.4471 29.9407 28.4704 30.0206 28.4704C30.1004 28.4704 30.1785 28.4471 30.2453 28.4034C30.3121 28.3597 30.3646 28.2974 30.3966 28.2242C30.6677 27.6027 31.2443 27.2011 31.8655 27.2011C32.7647 27.2011 33.4962 28.0126 33.4962 29.0102C33.4962 29.985 31.6761 31.8169 30.6983 32.8011Z" fill="#B11E54"/>
</svg>
