<svg width="40" height="38" viewBox="0 0 40 38" fill="none" xmlns="http://www.w3.org/2000/svg">
<path d="M36.6437 3.5436C32.0231 -1.1031 24.3974 -0.872113 19.9981 3.95796C15.5985 -0.871942 7.9731 -1.10319 3.35247 3.54368C-1.24234 8.11951 -1.08581 15.6545 3.64843 20.071C1.22638 22.3842 2.61394 26.541 5.91061 26.9462C5.71314 29.2036 7.63448 31.2737 9.90718 31.2353C10.0465 33.7203 12.5407 35.4992 14.932 34.8425C15.7165 37.8031 19.4878 38.8148 21.6514 36.6357C22.8802 35.4143 23.8575 34.644 23.9198 32.7941C25.9502 32.7375 27.707 30.9569 27.7379 28.9276C29.7878 28.896 31.5739 27.1094 31.6054 25.0601C33.732 25.0278 35.5759 23.1084 35.4769 20.9416L36.6435 19.775C41.1187 15.3 41.1187 8.01855 36.6437 3.5436ZM5.40752 21.9388L6.5033 20.843C6.63809 20.7081 6.79822 20.6011 6.97448 20.5282C7.15075 20.4553 7.33969 20.4179 7.53044 20.4182C8.80609 20.4098 9.47196 21.9869 8.55741 22.8971L7.46162 23.9929C6.0432 25.2988 4.10152 23.3578 5.40752 21.9388ZM8.46294 27.2203C8.46294 26.8322 8.61409 26.4675 8.88842 26.1931L9.9848 25.0968C10.1193 24.9617 10.2793 24.8546 10.4555 24.7816C10.6317 24.7087 10.8206 24.6714 11.0113 24.672C12.2978 24.6697 12.9499 26.2432 12.0383 27.1515L11.0714 28.1184C10.7759 28.4533 10.3699 28.68 9.91538 28.6727C9.13479 28.6888 8.44678 28.001 8.46294 27.2203ZM12.8849 31.9859C12.3214 31.4453 12.3214 30.4725 12.8849 29.9319L13.8518 28.9649C14.4155 28.2957 15.4051 28.2086 16.0349 28.836C16.6011 29.4023 16.6011 30.3237 16.0349 30.8901L14.939 31.986C14.3727 32.5525 13.4513 32.5524 12.8849 31.9859ZM20.9338 33.7265L19.8381 34.8223C19.7035 34.9576 19.5434 35.0649 19.3672 35.1379C19.1909 35.2109 19.0018 35.2483 18.811 35.2478C18.6202 35.2483 18.4311 35.2109 18.2548 35.1379C18.0785 35.0649 17.9184 34.9576 17.7839 34.8223C17.2205 34.2816 17.2202 33.3088 17.784 32.7682L18.8797 31.6724C19.4459 31.106 20.3675 31.106 20.9338 31.6723C21.4973 32.213 21.4974 33.1858 20.9338 33.7265ZM32.4883 22.0753C31.9476 22.6388 30.9748 22.6389 30.4342 22.0753L24.7273 16.3684L22.9138 18.1819L28.6208 23.8888C29.187 24.4552 29.187 25.3765 28.6208 25.9429C28.0544 26.5094 27.133 26.5093 26.5667 25.9429L20.9565 20.3328L20.8597 20.236L19.0463 22.0494L19.143 22.1462L24.7532 27.7564C25.3196 28.3227 25.3196 29.2442 24.7532 29.8106C24.1868 30.3769 23.2654 30.3769 22.699 29.8106L22.6979 29.8117C21.6559 28.8043 20.1996 28.4726 18.8843 28.8166C18.4656 27.1056 16.7456 25.8103 15.016 25.848C14.9322 24.0064 13.3753 22.3428 11.5354 22.1441C11.7782 18.9844 8.30804 16.8085 5.56952 18.365C1.75555 14.9581 1.52063 8.97747 5.1661 5.35706C8.79062 1.70715 14.7794 1.94899 18.1848 5.77142L15.0144 8.94182L17.5548 11.4823C19.5063 13.4339 22.5134 13.7024 24.7555 12.2881L32.4886 20.0212C33.0546 20.5875 33.0546 21.509 32.4883 22.0753ZM34.8303 17.9616L34.4395 18.3523C34.3948 18.303 34.3489 18.2548 34.3019 18.2078L24.8563 8.76213L23.9495 9.66881C22.6865 10.9318 20.6314 10.932 19.3681 9.66881L18.6411 8.94182L22.2259 5.35706C30.9338 -2.6577 42.8433 9.25933 34.8303 17.9616Z" fill="#B11E54"/>
</svg>
