<svg xmlns="http://www.w3.org/2000/svg" fill="none" height="48" width="48"><path stroke-miterlimit="10" stroke-width="2" stroke="#B11E54" d="m12.325 1.925 1.358 1.358a2.447 2.447 0 0 1-.472 3.83L6.401 11.2c.8 3.2 4 7.2 7.2 8.8l4.674-1.85M8.313 22.188l4.18-2.834M20.8 8v12.8c6.398 1.343 11.125 1.138 14.4-1.6L32.38 6.167a7.54 7.54 0 0 0-1.231-2.503l-1.343-1.79"></path><path stroke-miterlimit="10" stroke-width="2" stroke="#B11E54" d="m22.51 21.129.755 2.265a7.449 7.449 0 0 0 2.596 3.602l12.735 9.552A3.506 3.506 0 0 1 40 39.355v2.04c0 .6-.384 1.134-.953 1.323l-.406.135c-.531.177-.963.624-1.03 1.18a1.394 1.394 0 0 0 1.384 1.567h2.69c.929 0 1.778-.525 2.193-1.355l2.178-4.357c.227-.452.344-.982.344-1.488a3.205 3.205 0 0 0-1.304-2.578l-.417-.313c-.706-.53-1.494-.98-2.361-1.136a1.727 1.727 0 0 1-1.208-.872l-3.513-6.441a4.15 4.15 0 0 0-2.312-1.965c-1.577-.526-3.23-.822-3.858-3.964M3.2 45.6h27.2M32 45.6h7.2"></path><path stroke-miterlimit="10" stroke-width="2" stroke="#B11E54" d="M38.853 36.76c1.215-.218 2.382-1.28 3.155-2.475M18.4 28.8c0 1.723-.683 3.382-2.206 4.44"></path><path stroke-miterlimit="10" stroke-width="2" stroke="#B11E54" d="m12.358 22.758 6.118 6.118a2.474 2.474 0 0 0 1.748.724h2.49a2.087 2.087 0 0 1 1.994 2.7L22 41.1a1.84 1.84 0 0 1-3.6-.54v-2.034c0-.612-.117-1.218-.344-1.787l-.869-2.171a3.216 3.216 0 0 0-1.269-1.525L4.083 25.568a5.326 5.326 0 0 1-.352-8.766l3.816-2.861M33.6 2.4h9.6M44.8 2.4h1.6"></path><path fill="#B11E54" d="M39.2 4.8h-1.6v1.6h1.6V4.8ZM42.4 4.8h-1.6v1.6h1.6V4.8ZM45.6 4.8H44v1.6h1.6V4.8Z"></path><path stroke-miterlimit="10" stroke-width="2" stroke="#B11E54" d="M36.8 12.8h9.6M1.6 3.2h4.8M8 3.2h1.6M41.6 45.6H48"></path></svg>