<svg fill="none" viewBox="0 0 41 40" xmlns="http://www.w3.org/2000/svg" width="40" height="40">
              <g clip-path="url(#a)" width="40" height="40">
                <path d="M35.233 27.183a17.282 17.282 0 0 0 1.267-6.517c0-1.573-.21-3.099-.603-4.549M33.775 30c.277-.432.534-.877.772-1.334M31.744 32.593c.355-.374.693-.763 1.013-1.167M28.816 35.067c.494-.331.97-.688 1.426-1.066M4.905 10.812a17.242 17.242 0 0 0-3.022 8.522M7.647 7.715c-.529.47-1.03.974-1.498 1.506M38.148 14.503c-1.259-3.868-3.614-7.113-6.605-9.507M38.761 17.26a19.607 19.607 0 0 0-.234-1.143M21.733 3.522a17.507 17.507 0 0 0-2.566-.189c-1.826 0-3.585.282-5.237.806M26.352 4.888a17.239 17.239 0 0 0-3.09-1.068" stroke="#0d3c15e9" stroke-width="2" stroke-miterlimit="10"></path>
                <path d="M7.167 26.667H5.834V28h1.333v-1.333Z" fill="#0d3c15e9"></path>
                <path d="m27.578 10.411-.762-.761a5.633 5.633 0 0 0-4.856-1.582M20.381 8.562a5.642 5.642 0 0 0-1.53 1.088l-.762.761M16.834 33l1.282-1.283c.631-.63 1.1-.957 1.718-1.05 1.448-.219 2.567-.568 3.333-1.334l7.96-7.959a2.416 2.416 0 0 0 0-3.415l-6.587-6.586a2.415 2.415 0 0 0-3.414.001l-6.542 6.542a.292.292 0 0 1-.21.084.287.287 0 0 1-.28-.233l-.966-4.828a2 2 0 0 0-3.935.716l1.266 7.83a3.22 3.22 0 0 1-.902 2.791L8.834 25M15.433 38.4l1.694-1.693a2.415 2.415 0 0 0 0-3.414L8.54 24.707a2.416 2.416 0 0 0-3.415 0l-1.694 1.694" stroke="#0d3c15e9" stroke-width="2" stroke-miterlimit="10"></path>
              </g>
              <defs>
                <clipPath id="a">
                  <path fill="#fff" transform="translate(.5)" d="M0 0h40v40H0z"></path>
                </clipPath>
              </defs>
            </svg>
