<svg xmlns="http://www.w3.org/2000/svg" width="32" height="32" fill="none"><g stroke-width="1.5" stroke-miterlimit="10" stroke="#333"><path d="m24.533 30.4h-21.333a1.6 1.6 0 0 1 -1.6-1.6v-11.733a1.6 1.6 0 0 1 1.6-1.6h21.333a1.6 1.6 0 0 1 1.6 1.6v11.733a1.6 1.6 0 0 1 -1.6 1.6z"/><path d="m19.2 15.467v-4.8a5.333 5.333 0 1 0 -10.667 0v4.8"/><path d="m22.4 15.467v-4.8a8.533 8.533 0 0 0 -8.533-8.534 8.533 8.533 0 0 0 -8.534 8.534v4.8m22.4-13.867v2.667m0 2.133v2.667m3.734-3.734h-2.667m-2.133 0h-2.667m-16.533 12.8v2.667m0 2.134v2.666m3.733-3.733h-2.667m-2.133 0h-2.667"/></g><path fill="#333" d="m24.533 17.067h-1.066v1.067h1.066zm0 2.133h-1.066v1.067h1.066zm0 2.134h-1.066v1.066h1.066z"/><path stroke-width="1.5" stroke-miterlimit="10" stroke="#333" d="m28.267 12.8v6.933m0 1.067v1.6"/></svg>