<svg xmlns:xlink="http://www.w3.org/1999/xlink" xmlns="http://www.w3.org/2000/svg" width="40" height="40" fill="none"><mask y="0" x="0" width="40" maskUnits="userSpaceOnUse" height="40" id="a"><path fill="#d9d9d9" d="m0 0h40v40h-40z"/></mask><g mask="url(#a)" fill="#244442"><path d="m19.679 8.224c1.987 0 3.605-1.654 3.605-3.688s-1.618-3.689-3.605-3.689c-1.988 0-3.606 1.655-3.606 3.689s1.618 3.688 3.606 3.688zm0-6.056c1.277 0 2.314 1.061 2.314 2.368 0 1.306-1.037 2.368-2.314 2.368s-2.315-1.062-2.315-2.368c0-1.307 1.038-2.368 2.315-2.368zm-3.762 11.286-.334 3.705a.656.656 0 0 0 .585.718c.02 0 .039.003.06.003a.65.65 0 0 0 .641-.6l.332-3.706a.656.656 0 0 0 -.585-.717.648.648 0 0 0 -.701.597zm7.393-.597a.654.654 0 0 0 -.608.696l.205 3.705c.018.351.303.624.644.624h.037a.654.654 0 0 0 .607-.697l-.205-3.704a.653.653 0 0 0 -.68-.622zm-3.353 11.563a.652.652 0 0 0 -.644.66v14.257c0 .365.29.66.644.66a.654.654 0 0 0 .644-.66v-14.257c0-.365-.29-.66-.644-.66z"/><path d="m13.543 17.6a.652.652 0 0 0 .748-.534l.834-4.817s0-.01.003-.014c.177-1.163 1.01-2.107 2.123-2.4l1.033-.276a.662.662 0 0 0 .463-.805.644.644 0 0 0 -.787-.473l-1.033.275c-1.61.428-2.816 1.789-3.072 3.47l-.835 4.81a.659.659 0 0 0 .523.766v-.003zm8.137-9.32a.644.644 0 0 0 -.787.474.662.662 0 0 0 .463.805l1.033.275a2.925 2.925 0 0 1 2.123 2.401v.014l.836 4.816a.648.648 0 0 0 .747.534.66.66 0 0 0 .523-.765l-.836-4.81c-.257-1.681-1.463-3.042-3.071-3.47l-1.033-.276.002.003z"/><path d="m27.817 13.37a.648.648 0 0 0 -.73.56c-.05.36.196.694.548.746 4.465.65 5.503 1.6 5.538 1.815 0 .007-.27.781-3.689 1.495-2.549.532-5.92.826-9.486.826s-6.936-.294-9.486-.826c-3.416-.714-3.686-1.488-3.688-1.49.032-.214 1.052-1.151 5.423-1.803a.659.659 0 0 0 .545-.749.647.647 0 0 0 -.731-.558c-1.852.276-3.403.652-4.484 1.085-.507.203-2.044.822-2.044 2.022s1.491 2.09 4.56 2.752c.748.16 1.565.301 2.435.419l-.605 3.486-.007.047c-.108 1.06.614 2.015 1.643 2.173.099.014.195.023.292.023.598 0 1.152-.285 1.516-.746l1.316 14.7c.03.343.313.6.642.6.02 0 .039 0 .06-.003a.658.658 0 0 0 .584-.718l-1.535-17.13.14-1.573a.79.79 0 0 0 .012-.127l.033-.353c1.093.059 2.224.09 3.38.09 1.042 0 2.068-.027 3.062-.074l.11 1.994-1.313 17.188a.655.655 0 0 0 .593.708h.05a.65.65 0 0 0 .643-.61l1.122-14.7c.364.465.918.752 1.519.752.096 0 .193-.007.292-.024 1.028-.16 1.751-1.113 1.643-2.172 0-.017-.005-.031-.007-.047l-.596-3.44c1-.127 1.937-.284 2.784-.465 3.067-.662 4.56-1.561 4.56-2.752 0-1.431-2.236-2.481-6.647-3.124zm-13.322 10.173a.655.655 0 0 1 -.739.523.664.664 0 0 1 -.554-.714l.612-3.533c.495.052 1 .1 1.518.14l-.032.364-.798 3.19-.007.025zm11.948-.188a.668.668 0 0 1 -.555.713.657.657 0 0 1 -.738-.523c0-.004 0-.01-.002-.016l-.744-3.197a.593.593 0 0 0 -.039-.113l-.013-.235c.506-.035 1-.078 1.483-.125zm-25.453-22.035h5.505a.652.652 0 0 0 .645-.659c0-.362-.29-.659-.644-.659h-5.506a.649.649 0 0 0 -.645.658c0 .362.29.659.644.659v.002zm0 2.729h2.75a.652.652 0 0 0 .644-.66c0-.362-.29-.659-.644-.659h-2.75a.652.652 0 0 0 -.644.66c0 .362.29.659.644.659zm38.365-4.049h-5.506a.652.652 0 0 0 -.644.66c0 .362.29.658.644.658h5.506a.652.652 0 0 0 .644-.659c0-.362-.29-.659-.644-.659zm-2.752 2.728h-2.752a.652.652 0 0 0 -.644.66c0 .362.29.658.645.658h2.751a.652.652 0 0 0 .644-.659c0-.362-.29-.659-.644-.659zm-30.453 28.865h-5.506a.652.652 0 0 0 -.644.66c0 .362.29.658.644.658h5.506a.652.652 0 0 0 .644-.659c0-.362-.29-.659-.644-.659zm-2.752 2.728h-2.754a.652.652 0 0 0 -.644.66c0 .362.29.658.644.658h2.752a.652.652 0 0 0 .644-.659c0-.362-.29-.659-.644-.659zm-1.077-28.821a.652.652 0 0 0 -.644.66v2.111c0 .175.07.344.189.466l4.256 4.355a.636.636 0 0 0 .911 0 .67.67 0 0 0 0-.934l-4.067-4.162v-1.838c0-.365-.29-.66-.645-.66v.003zm31.829.001a.652.652 0 0 0 -.644.659v1.838l-2.998 3.067a.67.67 0 0 0 0 .935.636.636 0 0 0 .912 0l3.186-3.26a.665.665 0 0 0 .189-.466v-2.112c0-.364-.29-.659-.645-.659z"/><path d="m6.824 20.511-5.3 5.424a.665.665 0 0 0 -.19.466v3.08c0 .365.29.66.645.66a.654.654 0 0 0 .644-.66v-2.805l5.112-5.23a.67.67 0 0 0 0-.935.638.638 0 0 0 -.913 0z"/></g></svg>
