<svg fill="none" viewBox="0 0 41 40" xmlns="http://www.w3.org/2000/svg" xmlns:xlink="http://www.w3.org/1999/xlink" width="40" height="40">
              <clipPath id="a">
                <path d="m0 0h40v40h-40z" transform="translate(.5)"></path>
              </clipPath>
              <g clip-path="url(#a)">
                <path d="m13.167 32.667a3.333 3.333 0 1 0 0-6.667 3.333 3.333 0 0 0 0 6.667zm-5.677-6.831c.218-.354.47-.686.748-.992m1.221-1.052a6.635 6.635 0 0 1 3.707-1.125c.623 0 1.224.085 1.796.244" stroke="#0d3c15e9" stroke-miterlimit="10" stroke-width="2"></path>
                <path d="m13.833 28.667h-1.333v1.333h1.333z" fill="#0d3c15e9"></path>
                <g stroke="#0d3c15e9" stroke-miterlimit="10" stroke-width="2">
                  <path d="m16.434 28.667h2.756m-14.023 4h15.249m-16.583 0h-1.333m34-25.334h-18.54a4.49 4.49 0 0 0 -3.475 1.647l-4.651 5.687-6.294 3.672a3.438 3.438 0 0 0 -1.707 2.97v5.33c0 1.12.908 2.028 2.028 2.028h6.039m27.934-21.334h1.333m0 6.001h-1.334m-1.333 0h-5.333"></path>
                  <path d="m7.167 16.222v3.778a2 2 0 0 1 -2 2h-3.333m20-8v-3.333a.666.666 0 0 0 -.667-.667h-3.207c-.546 0-1.063.245-1.409.668l-3.987 4.873c-.15.183-.02.459.218.459h9.052m-0-2.666v5.333m.666-14h-1.333m23.666 0h-21.333m-.177 15.566c.314-.21.642-.402.982-.572m1.734-.666a9.333 9.333 0 1 1 -4.371 2.647"></path>
                  <path d="m25.67 26.353-1.62-.81a.39.39 0 0 1 -.001-.697l4.277-2.138a.39.39 0 0 1 .347 0l4.28 2.14a.389.389 0 0 1 -.001.695l-4.278 2.139a.39.39 0 0 1 -.349 0l-1.294-.648"></path>
                  <path d="m33.167 25.194v5.834a.39.39 0 0 1 -.215.348l-4.278 2.139a.388.388 0 0 1 -.349 0l-4.275-2.139a.39.39 0 0 1 -.216-.348v-5.834m4.666 2.528v5.834"></path>
                </g>
              </g>
            </svg>
