<svg xmlns:xlink="http://www.w3.org/1999/xlink" xmlns="http://www.w3.org/2000/svg" width="48" height="48" fill="none"><clipPath id="a"><path d="m0 0h48v48h-48z"></path></clipPath><g clip-path="url(#a)"><path stroke-width="1.75" stroke-miterlimit="10" stroke="#b11e54" d="m4 46.4h36m-13.769 0a1.431 1.431 0 0 1 -.53-2.76l3.1-1.24v-12.091a3.584 3.584 0 0 0 -2.422-3.391l-9.3-3.195a9.673 9.673 0 0 0 -3.14-.523h-10.739a1.6 1.6 0 1 1 0-3.2h11.2m13.616-4.049-2.718 1.705a.99.99 0 0 0 -.096 1.655l.785.579a4.544 4.544 0 0 0 5.691-.185l2.537-2.174a2.824 2.824 0 0 0 .6-3.565l-.98-1.676"></path><path stroke-width="1.75" stroke-miterlimit="10" stroke="#b11e54" d="m17.073 19.673 2.773-3.327a6.398 6.398 0 0 1 2.317-1.752l10.114-4.862a1.51 1.51 0 0 1 1.362 2.691l-6.439 4.04m-11.2-2.863a3.2 3.2 0 0 1 -3.2 3.2c-.88 0-1.68-.36-2.264-.936l-.8-.8a3.22 3.22 0 0 1 -.936-2.264 3.2 3.2 0 0 1 3.2-3.2c.88 0 1.68.36 2.264.936l.8.8a3.22 3.22 0 0 1 .936 2.264z"></path><path fill="#b11e54" d="m9.6 32h-1.6v1.6h1.6zm8 8h-1.6v1.6h1.6zm-4.8-3.2h-1.6v1.6h1.6zm33.6-19.2h-1.6v1.6h1.6zm-1.6-4.8h-1.6v1.6h1.6zm-3.2-4.8h-1.6v1.6h1.6zm-14.4-5.6h-1.6v1.6h1.6zm-4.8.8h-1.6v1.6h1.6zm-4.8 1.6h-1.6v1.6h1.6zm4.8 36.8h-1.6v1.6h1.6zm24.8-19.2h-1.6v1.6h1.6zm-.8 4.8h-1.6v1.6h1.6zm-1.6 4.8h-1.6v1.6h1.6zm-8 8h-1.6v1.6h1.6zm4.8-3.2h-1.6v1.6h1.6zm-33.6-9.6h-1.6v1.6h1.6z"></path><path stroke-width="1.75" stroke-miterlimit="10" stroke="#b11e54" d="m41.6 46.4h2.4m-11.693-36.681-1.687-2.452a1.25 1.25 0 0 1 .174-1.618l3.926-3.669c.248-.233.502-.38.88-.38a1.2 1.2 0 0 1 1.053 1.777l-1.453 3.023 4.322 8.027a3.989 3.989 0 0 1 -.448 4.445l-5.718 6.86a2.4 2.4 0 0 0 -.556 1.537v19.131"></path></g></svg>