<svg fill="none" viewBox="0 0 33 32" xmlns="http://www.w3.org/2000/svg" width="32" height="32">
                      <path d="m21.833 3.733a6.933 6.933 0 0 0 -6.933 6.934c0 1.23.324 2.384.887 3.386l-.887 3.547 3.405-.973a6.892 6.892 0 0 0 3.528.973 6.933 6.933 0 1 0 0-13.867z" stroke="#0d3c15e9" stroke-miterlimit="10" stroke-width="1.75"></path>
                      <path d="m22.366 14.4h-1.066v1.067h1.066zm0-13.333h-1.066v1.067h1.066zm9.067 9.066h-1.066v1.067h1.066zm-2.666-6.4h-1.067v1.067h1.067zm2.133 3.2h-1.066v1.067h1.066zm-5.333-5.333h-1.067v1.067h1.067zm-12.267 8.533h-1.067v1.067h1.067zm2.667-6.4h-1.067v1.067h1.067zm-2.134 3.2h-1.066v1.067h1.066zm5.334-5.333h-1.067v1.067h1.067zm3.199 17.6h-1.066v1.067h1.066zm6.401-2.667h-1.067v1.067h1.067zm2.133-3.199h-1.066v1.066h1.066zm-5.333 5.332h-1.067v1.067h1.067zm-11.734-5.332h-1.066v1.066h1.066zm5.334 5.332h-1.067v1.067h1.067z" fill="#0d3c15e9"></path>
                      <path d="m11.76 28.233c2.48 1.384 5.365 2.167 8.473 2.167h2.133a2.667 2.667 0 0 0 2.667-2.667v-2.666c0-.518-.369-.95-.858-1.047l-5.331-1.066a1.06 1.06 0 0 0 -.807.162l-2.845 1.864a.509.509 0 0 1 -.292.087c-1.6 0-6.4-4.8-6.4-6.4 0-.11.03-.207.087-.292l1.864-2.845a1.063 1.063 0 0 0 .161-.808l-1.066-5.332a1.066 1.066 0 0 0 -1.046-.857h-2.667a2.667 2.667 0 0 0 -2.667 2.667v2.133c0 4.947 1.983 9.328 5.22 12.412m1.379 1.179c.23.176.466.346.706.51m-4.851-1.517a18.922 18.922 0 0 1 -3.67-6.596m6.388 9.189a18.84 18.84 0 0 1 -1.266-1.08m-1.239-18.897v4.8m14.4 14.4h4.8m-5.867-18.666a2.667 2.667 0 1 1 2.667 2.666v1.6" stroke="#0d3c15e9" stroke-miterlimit="10" stroke-width="1.75"></path>
                    </svg>
