<svg viewBox="0 0 200 60" xmlns="http://www.w3.org/2000/svg">
                <g fill="none" fill-rule="evenodd"><path d="m47.47 0 1.7 15.67 7.08-15.48h12.182l-5.331 29.713h9.58l-1.227 6.689h-12.464l-1.04 5.35h9.632l-.943 6.592h-9.727l-1.982 11.466h-8.782l5.099-30.096h3.358c1.544-8.059 2.646-16.208 4.668-24.171-3.21 8.249-7.177 16.306-10.765 24.458h-5.383c-.756-8.312-1.794-16.624-2.265-24.936-1.04 8.216-2.644 16.433-3.967 24.65h-6.893l5.288-29.905zm86.118 35.446c1.15-6.688 14.842-6.306 17.565-.573l-5.288.955c-.882-.924-2.015-1.465-3.4-1.624-2.738.096-2.927 1.72.094 2.484 5.022 1.082 8.232 2.961 7.46 6.592-2.55 7.566-17.785 5.4-18.98-.095l6.044-.86c.692 1.401 2.644 1.942 3.493 1.815 2.676-.287 3.84-1.433 1.606-2.198-7.115-1.592-8.814-3.662-8.594-6.496zm19.473 0c1.149-6.688 14.84-6.306 17.564-.573l-5.288.955c-.881-.924-2.015-1.465-3.4-1.624-2.738.096-2.927 1.72.095 2.484 5.02 1.082 8.231 2.961 7.46 6.592-2.55 7.566-17.785 5.4-18.98-.095l6.043-.86c.692 1.401 2.644 1.942 3.494 1.815 2.675-.287 3.84-1.433 1.605-2.198-7.115-1.592-8.814-3.662-8.593-6.496zm-19.661-4.873-.944 3.727h-8.782l-.661 2.674 7.744.191-.85 3.535-7.65-.19-.661 3.248h9.444l-.85 3.822h-15.393l3.589-17.007zm-29.837-.19c1.699 3.312 3.681 6.624 5.097 9.935.283-3.216 1.132-6.432 1.7-9.65h5.194l-3.59 16.816h-4.722c-2.171-3.471-4.343-6.943-5.948-10.7-.22 3.471-1.385 7.133-2.077 10.7l-5.288-.095 3.777-17.007zm-7.085-.097-.85 4.013h-4.817l-2.641 13.091h-6.244l2.844-13.09h-4.442l.948-4.013h15.203zm-16.808 0-3.589 17.007h-6.138l3.966-17.007zm-43.333 6.645c-2.443-3.179-.046-7 4.34-6.519 5.297.223 5.782 5.93 1.018 7.892l1.356 2.127c.678-.594 1.267-1.555 1.763-2.881l3.596.823c-.633 1.761-1.606 3.408-3.324 4.804.656.412 1.493.548 2.51.412l-.611 3.088c-1.492.572-3.074.228-4.747-1.03-3.505 2.288-8.412 1.488-10.04-1.99-.79-2.882.25-4.987 4.139-6.726zm1.831 2.951c-1.244.48-1.605 1.42-1.221 2.815 1.017.937 2.125 1.051 3.323.342zm2.442-6.725c-1.425.091-1.922 1.602-.475 2.677 1.537-.778 1.763-2.494.475-2.677zm114.792-22.074-.945 3.726h-8.687l-.661 2.675 7.744.191-.85 3.535-7.65-.191-.66 3.248h9.443l-.85 3.822h-15.392l3.588-17.006zm-51.747 7.261c1.321-4.873 4.374-8.154 11.237-7.93 4.753-.071 7.113 2.429 7.838 6.687l-6.044.192c-.378-5.272-5.603-3.266-6.232 1.242-2.11 5.764 3.116 7.866 5.477 2.58l5.57.765c-2.03 4.506-5.271 6.034-9.064 6.209-7.075-.405-9.514-3.989-8.782-9.745zm-17.658-3.153c1.149-6.688 14.84-6.306 17.564-.573l-5.289.955c-.881-.923-2.014-1.464-3.4-1.624-2.738.096-2.926 1.72.095 2.485 5.022 1.082 8.232 2.96 7.46 6.592-2.551 7.564-17.785 5.4-18.98-.096l6.044-.86c.692 1.401 2.643 1.943 3.493 1.815 2.676-.286 3.84-1.432 1.606-2.197-7.115-1.592-8.814-3.662-8.593-6.497zm38.527-4.395 6.515.191-2.928 12.803h8.121l-1.037 4.013h-14.354zm-50.237-.478-2.36 10.988c-.63 2.93 5.319 3.534 5.665-.19l2.265-10.607h5.195l-2.55 11.275c-1.73 8.852-19.61 7.483-16.808-1.242l2.172-10.224z" fill="#17311b"></path><path d="m0 0h200v60h-200z"></path></g>
              </svg>
