<svg viewBox="0 0 200 60" xmlns="http://www.w3.org/2000/svg">
                <g fill="none" fill-rule="evenodd"><path d="m55.232 21.271c4.42-2.204 10.64-2.065 14.734.329 3.684 2.153 5.916 5.981 6.537 11.211.19 1.597.066 4.97-.233 6.362-.555 2.59-1.723 5.29-3.583 7.216a15.182 15.182 0 0 1 -6.582 3.997 15.125 15.125 0 0 1 -4.096.613c-6.216.075-11.811-3.472-13.734-9.435-1.196-3.71-1.196-8.48 0-12.113 1.157-3.522 3.765-6.588 6.957-8.18zm56.573-13.271c.111.002.127 1.54.07 6.838a500.586 500.586 0 0 0 -.034 5.478v.322c.003.655.01 1.035.022 1.035.233 0 .503-.237.71-.328.392-.174.807-.31 1.215-.444.819-.267 1.658-.477 2.509-.612 1.396-.222 2.834-.24 4.222.027.32.062.637.138.95.23 2.286.678 4.283 2.185 5.698 4.09 2.58 3.475 3.2 8.13 2.707 12.338-.585 5.004-3.078 9.6-7.652 12.031-2.878 1.531-6.221 2.03-9.486 1.942-3.264-.088-6.484-.735-9.684-1.379-.022-1.534.037-3.072.06-4.606.091-6.216.138-10.852.142-14.763v-1.233c-.002-2.286-.02-4.338-.052-6.35l-.012-.708c-.093-5.184-.127-6.205-.295-6.978l-.037-.155a7.661 7.661 0 0 0 -.026-.104c-.284-1.082-.694-1.837-1.187-2.186-.191-.135-.711-.327-1.156-.426-1.477-.33-1.397-.277-1.436-.946-.023-.386.02-.64.118-.719.064-.05 2.914-.61 5.891-1.176l.663-.125c2.982-.564 5.894-1.096 6.08-1.093zm59.353 11.777c2.915-.265 7.389.35 9.733 1.336l.427.18.077 2.4c.042 1.32.085 3.089.096 3.93l.02 1.533-.574.211c-.908.335-.968.294-1.473-1.036-1.416-3.727-3.06-5.49-5.624-6.029-1.562-.328-2.867.025-3.815 1.032-.74.786-1.029 1.484-1.098 2.656-.076 1.27.152 1.956.933 2.805.962 1.046 2.54 1.949 5.68 3.253 3.848 1.597 5.683 2.953 6.681 4.935.648 1.287.832 2.315.767 4.294-.05 1.485-.097 1.79-.437 2.787-1.109 3.25-3.594 5.456-7.478 6.393-2.368.57-5.947.582-7.73.356-2.11-.267-5.05-.948-6.17-1.426l-.546-.234-.075-2.692c-.04-1.48-.088-3.46-.105-4.4l-.03-1.707.327-.156c.18-.086.545-.166.809-.178l.48-.023.41 1.002c1.599 3.908 3.473 6.015 5.921 6.656.934.244 2.685.246 3.376.004 1.937-.68 3-2.136 3.008-4.126.011-2.357-1.293-3.49-6.219-5.401-3.052-1.185-4.117-1.794-5.385-3.083-1.367-1.391-2.024-2.974-2.147-5.178-.149-2.664.69-4.91 2.55-6.824 1.872-1.926 4.301-2.97 7.61-3.27zm-30.805 1.363c3.681-1.783 8.715-1.9 11.972-.278 3.669 1.827 5.827 5.473 6.374 10.768.074.714.117 1.562.095 1.886l-.039.589-8.777.03-8.779.03.033 1.031c.078 2.387.594 4.498 1.55 6.334.434.834.78 1.289 1.62 2.13 1.897 1.904 3.784 2.64 6.761 2.64 2.159 0 3.711-.428 5.335-1.47.455-.292.915-.53 1.024-.53.248 0 .818.729.818 1.046 0 .52-1.702 2.193-3.362 3.307-1.36.913-3.516 1.739-5.385 2.064-1.31.228-4.252.222-5.547-.01-5.885-1.055-10.094-5.2-11.469-11.298-.177-.784-.255-1.661-.3-3.36-.07-2.685.15-4.352.848-6.424 1.34-3.977 3.741-6.795 7.228-8.485zm-110.461-12.412h1.165l4.09.007 16.367.034.077.471c.042.26.11 2.918.153 5.91l.078 5.438-.844.254c-1.27.384-1.263.388-1.834-1.114-1.404-3.69-3.013-5.815-5.215-6.889-1.52-.74-2.222-.83-6.511-.83h-3.733l-.065.619c-.12 1.16-.31 8.623-.31 12.138l.002 3.506 1.097-.006a61.966 61.966 0 0 0 2.645-.098c1.279-.076 1.659-.144 2.194-.39 1.315-.604 2.21-1.936 2.758-4.102l.282-1.12.969-.034.968-.034v14.16l-.968-.034-.97-.034-.274-1.12c-.517-2.103-1.511-3.609-2.74-4.148-.567-.25-1.97-.392-4.686-.474l-1.275-.038v2.66c0 2.898.16 6.82.366 8.948.286 2.967 1.05 4.606 2.42 5.2.262.113 1.09.296 1.84.408.75.111 1.458.251 1.572.31.29.148.307 1.684.02 1.794-.097.036-3.996.056-8.439.06h-3.28c-4.924-.004-9.553-.026-9.653-.067-.099-.039-.148-.333-.148-.877v-.28c.009-.691.14-.69 1.838-1.003 1.458-.269 1.98-.544 2.624-1.382 1.248-1.626 1.518-4.757 1.521-17.65.003-12.109-.232-14.656-1.523-16.527-.573-.831-1.538-1.282-3.156-1.474l-1.245-.148-.069-1.932.39-.07c.118-.02 2.426-.034 5.966-.04h.62l.317-.001h.653l.335-.001zm68.003 10.941c1.635 0 3.269.53 3.269 1.06 0 .356-2.88 7.916-3.039 7.977-.077.03-.64-.184-1.25-.475-1.272-.606-2.465-.902-3.623-.9-1.442.003-3.054.531-3.69 1.209a2.782 2.782 0 0 0 -.035.038l-.033.037c-.204.253-.211.626-.272 4.562a136.77 136.77 0 0 0 -.016 1.644v.84c.006 3.655.138 7.428.335 9.137.207 1.792.686 2.675 1.676 3.086.33.136 2.42.42 3.101.422.052 0 .079.41.06.913l-.035.914-8.778.027c-.644.002-1.273.004-1.88.004h-1.185c-3.355-.003-5.801-.031-5.867-.073-.108-.068-.144-.34-.119-.912l.036-.814.415-.088c.228-.049.719-.144 1.09-.213 1.148-.213 1.809-.833 2.18-2.046.302-.988.436-4.15.443-10.499.009-7.765-.154-9.598-.945-10.637-.428-.564-.737-.724-1.776-.922-.513-.098-1.053-.203-1.2-.234-.238-.049-.267-.125-.267-.703 0-.562.036-.663.267-.758.165-.067 2.772-.603 5.562-1.16l.672-.133c3.029-.602 6.06-1.185 6.248-1.185h.293l-.057 1.738c-.032.956-.082 2.348-.112 3.094l-.055 1.355.425-.762c1.363-2.442 2.892-3.958 4.924-4.883 1.115-.508 1.86-.66 3.238-.66zm-33.532 3.112c-1.128-1.012-2.883-1.344-4.15-.783-1.848.818-3.034 3.238-3.596 7.334-.4 2.918-.359 8.872.08 11.55.693 4.223 2.075 6.892 4.023 7.77.786.354 2.222.335 3.035-.041 2.24-1.037 3.442-4.02 3.834-9.52.546-7.663-.72-14.06-3.226-16.31zm52.224.964c-1.069-.503-2.576-.565-3.976-.164l-.95.272-.106 3.712c-.028.936-.04 2.325-.042 3.95v.661c.001 1.684.013 3.575.033 5.457l.009.752c.06 5.126.176 9.967.287 10.1.074.09.33.181.57.207 1.072.112 2.273.073 2.834-.093.87-.256 1.982-1.041 2.652-1.871 1.382-1.712 2.374-4.363 2.919-7.796.261-1.645.296-6.266.058-7.596-.732-4.085-2.142-6.58-4.288-7.59zm31.06-1.67c-.992-.619-2.191-.386-3.092.293-1.887 1.422-2.6 3.942-3.043 6.14-.22 1.086-.351 3.156-.351 3.156h9.092c-.072-1.877-.1-3.702-.516-5.55-.327-1.452-.726-3.188-2.09-4.039z" fill="#17311b"></path><path d="m0 0h200v60h-200z"></path></g>
              </svg>
