<svg viewBox="0 0 200 60" xmlns="http://www.w3.org/2000/svg">
                <g fill="none" fill-rule="evenodd"><path d="M35.868 9v5.308h-6.753V26.86h5.233v5.358h-5.22v13.366h6.77v5.329c-.277.025-.53.069-.782.07-3.715.003-7.431-.014-11.147.017-.698.006-.893-.216-.892-.899.016-13.421.012-26.842.014-40.263 0-.258.031-.517.052-.838h12.725zm157.298 0v36.596c2.006 0 3.9.036 5.792-.018.798-.022 1.076.2 1.039 1.025-.066 1.424-.018 2.852-.018 4.326-.373.024-.63.054-.886.054-3.657.003-7.313-.016-10.97.017-.723.006-.945-.203-.944-.936.02-13.405.014-26.81.017-40.215 0-.257.036-.513.062-.849h5.908zm-155.56.007c1.733 0 3.367-.03 4.997.032.233.01.578.422.656.706 1.192 4.337 2.347 8.684 3.513 13.028.392 1.46.792 2.918 1.372 4.357V9.087h5.702V50.99c-1.426 0-2.84.036-4.25-.038-.213-.011-.5-.505-.583-.82a930.644 930.644 0 01-1.045-3.984l-2.065-7.974c-.776-2.986-1.564-5.97-2.555-8.94v21.707h-5.741zM167.522 9v41.996c-1.452 0-2.923.02-4.39-.03-.158-.005-.377-.4-.442-.647-1.8-6.874-3.586-13.752-5.376-20.629-.07-.265-.17-.523-.419-.755V50.97h-5.612V9.026h5.45l4.831 17.995.183-.01V9h5.775zm-33.333.03c3.81 0 7.542-.082 11.268.027 2.555.076 3.942 1.45 4.06 4 .155 3.363.134 6.736.15 10.105.008 1.668-.02 3.34-.122 5.004-.11 1.775-.97 3.03-2.722 3.55-.104.031-.193.118-.359.223l3.964 19.06h-6.02c-.714-3.551-1.422-7.068-2.126-10.586-.482-2.406-.948-4.816-1.452-7.217-.079-.373-.005-1.056-.842-.751v18.523h-5.799zM122.34 9c.02.394.055.76.056 1.128.002 11.214-.005 22.43.024 33.644.001.557.223 1.533.505 1.592.936.196 1.95.102 2.925.017.177-.016.368-.5.445-.795.08-.304.034-.64.034-.962V9.04h6.15v18.535l-.007 17.613c-.001.67-.05 1.347-.16 2.007-.395 2.358-1.828 3.655-4.307 3.74-2.395.082-4.797.09-7.191.001-2.647-.099-4.309-1.744-4.513-4.28a19.76 19.76 0 01-.059-1.58c-.003-11.595-.003-23.19-.003-34.786V9zm59.273 0l4.712 42h-5.79c-.132-1.432-.269-2.85-.391-4.269-.08-.934-.108-1.874-.228-2.803-.03-.24-.311-.638-.488-.644-1.497-.052-2.997-.03-4.58-.03l-.793 7.717h-5.679L173.41 9zM96.58 9v.907c0 11.898.007 23.796-.015 35.695 0 .777-.136 1.575-.344 2.328-.497 1.793-1.859 2.826-3.65 2.933-2.724.164-5.485.211-8.198-.03-2.436-.217-3.82-1.827-3.961-4.29-.138-2.393-.03-4.799-.03-7.3h6.006c.028.228.076.45.078.672.008 1.084.035 2.17-.002 3.253-.073 2.127.216 2.423 1.648 2.438h.292c.255-.002.541-.01.862-.015.685-.01 1.053-.382 1.137-1.018.045-.346.034-.701.034-1.052V9h6.143zm5.492.199c2.815-.226 5.68-.284 8.49-.045 2.672.227 3.92 1.843 3.938 4.505.036 5.412.011 10.825.011 16.238h.016c0 5.033.001 10.066-.002 15.098l.005.669c0 .334-.008.668-.055.996-.391 2.75-2.03 4.214-4.917 4.296a99.507 99.507 0 01-6.525-.02c-2.638-.097-4.369-1.75-4.624-4.287-.07-.698-.112-1.4-.113-2.101-.007-9.744-.008-19.487.001-29.23 0-.789.047-1.58.135-2.364.234-2.097 1.457-3.58 3.64-3.755zm-39.808-.133c2.777-.023 5.57-.17 8.327.067 2.237.193 3.485 1.488 3.637 3.634.188 2.649.045 5.319.045 8.073H68.23c0-1.269.003-2.492-.002-3.716a54.366 54.366 0 00-.032-1.67c-.025-.709-.433-1.089-1.146-1.095-2.448-.02-2.855-.243-2.762 2.45.049 1.434.066 2.875-.008 4.307-.072 1.392.471 2.475 1.399 3.486 2.472 2.693 4.906 5.42 7.347 8.14.863.96 1.329 2.075 1.324 3.365-.012 3.37.048 6.74-.04 10.108-.077 2.92-1.91 4.643-4.948 4.736-2.147.066-4.3.068-6.447-.011-2.9-.107-4.66-1.844-4.73-4.637-.057-2.336-.011-4.674-.011-7.075h6.123c0 1.604-.002 3.177 0 4.75.002 1.35.25 1.595 1.622 1.617l.373.005h.33c1.553-.013 1.61-.288 1.606-2.182-.003-1.612.082-3.232-.066-4.83-.073-.79-.407-1.682-.925-2.286a246.482 246.482 0 00-7.203-8.027c-1.31-1.4-1.973-2.914-1.91-4.838.105-3.25-.008-6.506.059-9.758.04-1.914.841-3.468 2.78-4.26.414-.17.865-.35 1.3-.353zM16.933 9.1h.138c1.365.053 2.734.017 4.144.017v41.8h-5.993V26.872l-.199-.049c-.133.3-.28.595-.397.901a3541.046 3541.046 0 00-3.193 8.43c-.152.405-.213.793-.853.796-.663.002-.69-.442-.836-.82-1.117-2.916-2.222-5.835-3.333-8.753-.07-.183-.152-.36-.372-.524v24.052H0V9.12c1.523 0 2.959-.034 4.39.03.26.012.619.377.73.655 1.73 4.307 3.427 8.626 5.132 12.942.085.213.183.42.354.812.551-1.382 1.047-2.605 1.528-3.833 1.287-3.288 2.579-6.575 3.84-9.873.207-.542.47-.775 1.097-.751zm90.613 5.343c-2.249-.58-3.121.055-3.121 2.274V43.33c0 2.165.15 2.308 2.345 2.276 1.386-.021 1.629-.253 1.63-1.604.003-4.655.001-9.31.001-13.965V26.61c0-3.572-.003-7.143.004-10.715 0-.655-.075-1.249-.86-1.452zm69.865 3.63l-.259.002-1.862 19.74h3.93l-1.81-19.742zm-34.66-3.641c-.887-.044-1.777-.01-2.715-.01v12.534h1.958c1.51-.004 1.8-.299 1.804-1.862.006-1.902.002-3.805.001-5.707 0-1.2.013-2.4-.01-3.6-.012-.694-.22-1.314-1.038-1.355zM58.12 9l-1.867 9.24h-1.552V9z" fill="#17311b"></path><path d="M0 0h200v60H0z"></path></g>
              </svg>
