<svg xmlns="http://www.w3.org/2000/svg" width="32" height="32" fill="none"><path stroke-width="1.5" stroke-miterlimit="10" stroke="#333" d="m27.787 21.746a13.824 13.824 0 0 0 1.013-5.213c0-1.26-.168-2.48-.483-3.64m-1.697 11.107c.222-.346.428-.702.618-1.067m-2.243 3.142c.284-.3.554-.611.81-.934m-3.152 2.912c.396-.265.776-.55 1.14-.853m-20.269-18.55a13.794 13.794 0 0 0 -2.417 6.817m4.611-9.296c-.424.377-.824.78-1.198 1.206m25.598 4.225a16.12 16.12 0 0 0 -5.283-7.605m5.775 9.811c-.054-.305-.116-.61-.188-.915m-13.436-10.076a14.006 14.006 0 0 0 -6.242.494m9.938.599a13.791 13.791 0 0 0 -2.472-.854"/><path fill="#333" d="m5.333 21.334h-1.066v1.066h1.066z"/><g stroke-width="1.5" stroke-miterlimit="10" stroke="#333"><path d="m21.662 8.329-.609-.61a4.506 4.506 0 0 0 -3.884-1.265m-1.264.396c-.45.217-.864.51-1.225.87l-.609.61m-1.004 18.07 1.026-1.026c.505-.505.88-.766 1.374-.84 1.158-.176 2.054-.455 2.666-1.067l6.368-6.368a1.933 1.933 0 0 0 0-2.732l-5.269-5.267a1.932 1.932 0 0 0 -2.731 0l-5.234 5.234a.233.233 0 0 1 -.168.067.23.23 0 0 1 -.224-.187l-.773-3.862a1.6 1.6 0 0 0 -3.148.573l1.013 6.264a2.575 2.575 0 0 1 -.721 2.233l-.58.579"/><path d="m11.946 30.72 1.355-1.354a1.932 1.932 0 0 0 0-2.732l-6.868-6.868a1.932 1.932 0 0 0 -2.732 0l-1.355 1.355"/></g></svg>