<svg xmlns:xlink="http://www.w3.org/1999/xlink" xmlns="http://www.w3.org/2000/svg" width="32" height="32" fill="none"><clipPath id="a"><path d="m0 0h32v32h-32z"/></clipPath><g clip-path="url(#a)"><path stroke-width="1.5" stroke-miterlimit="10" stroke="#333" d="m10.133 26.133a2.667 2.667 0 1 0 0-5.333 2.667 2.667 0 0 0 0 5.333zm-4.541-5.464c.174-.284.376-.55.598-.794m.977-.841a5.34 5.34 0 0 1 4.403-.705"/><path fill="#333" d="m10.667 22.933h-1.067v1.067h1.067z"/><g stroke-width="1.5" stroke-miterlimit="10" stroke="#333"><path d="m12.747 22.934h2.205m-11.219 3.199h12.2m-13.266 0h-1.067m27.2-20.266h-14.832a3.591 3.591 0 0 0 -2.78 1.317l-3.721 4.55-5.037 2.936a2.75 2.75 0 0 0 -1.364 2.375v4.265c0 .896.726 1.622 1.622 1.622h4.832m22.347-17.065h1.066m0 4.799h-1.066m-1.067 0h-4.267"/><path d="m5.333 12.977v3.023a1.6 1.6 0 0 1 -1.6 1.6h-2.666m16-6.4v-2.667a.533.533 0 0 0 -.534-.533h-2.565c-.437 0-.85.196-1.128.534l-3.189 3.898a.225.225 0 0 0 .174.368h7.242m0-2.134v4.267m.533-11.2h-1.067m18.934 0h-17.067m-.142 12.454c.251-.168.514-.322.786-.459m1.386-.532a7.467 7.467 0 1 1 -3.497 2.118"/><path d="m20.135 21.082-1.295-.647a.312.312 0 0 1 -.001-.558l3.422-1.711a.312.312 0 0 1 .277 0l3.424 1.712a.311.311 0 0 1 0 .556l-3.423 1.711a.311.311 0 0 1 -.279 0l-1.036-.518"/><path d="m26.133 20.155v4.667c0 .122-.07.227-.172.278l-3.422 1.711a.311.311 0 0 1 -.279 0l-3.42-1.71a.312.312 0 0 1 -.173-.28v-4.666m3.733 2.023v4.666"/></g></g></svg>