<svg viewBox="0 0 200 60" xmlns="http://www.w3.org/2000/svg">
                <g fill="none" fill-rule="evenodd"><path d="m144.614 32.212v11.16c0 1.114-.088 2.08-.428 2.753-.34.674-.912 1.06-1.905 1.06-.43 0-.747-.07-.993-.227s-.425-.4-.552-.78c-.254-.759-.304-2.046-.304-4.042 0-3.511.124-5.49.718-6.848.58-1.326 1.637-2.077 3.464-3.076zm.138-.241-.097.054c-1.918 1.04-3.02 1.813-3.63 3.209s-.73 3.388-.73 6.902c0 1.998.037 3.286.303 4.083.133.399.33.682.607.86.277.177.631.241 1.076.241 1.032 0 1.671-.431 2.03-1.141.357-.71.441-1.685.441-2.807zm-66.012-13.335c2.705 0 4.6 1.68 5.092 2.108l.014.013c.05.025.102.034.152.027a.195.195 0 0 0 .124-.067c.065-.073.096-.191.125-.336.054-.276.088-.697.138-1.222h1.821v8.917h-2.277l-.372-2.927c-.192-1.552-.59-2.528-1.215-3.129-.626-.602-1.464-.806-2.512-.806-1.053 0-1.755.288-2.18.806-.427.518-.567 1.249-.567 2.135 0 1.526.326 2.647 1.09 3.84.765 1.194 1.963 2.461 3.686 4.298 1.804 1.942 3.132 3.442 4.016 5.063.884 1.62 1.325 3.36 1.325 5.801 0 2.33-.66 4.258-1.89 5.6-1.231 1.342-3.034 2.095-5.37 2.095-2.655 0-4.278-1.36-4.982-2.149l-.014-.013a.435.435 0 0 0 -.441-.027 1.06 1.06 0 0 0 -.387.363c-.224.324-.398.812-.51 1.302h-1.919v-9.655h2.291l.414 2.7c.329 2.029.834 3.294 1.532 4.055.699.761 1.599 1.007 2.65 1.007 1.243 0 2.053-.329 2.54-.954.486-.625.648-1.521.648-2.672 0-1.45-.403-2.582-1.2-3.774-.798-1.192-1.99-2.447-3.575-4.203-1.833-2.022-3.181-3.51-4.058-5.09s-1.297-3.265-1.297-5.68c0-2.566.848-4.41 2.153-5.627s3.082-1.8 4.955-1.8zm0-.135c-1.903 0-3.717.582-5.052 1.827-1.335 1.244-2.194 3.139-2.194 5.734 0 2.43.423 4.148 1.31 5.747.889 1.6 2.24 3.081 4.072 5.104 1.588 1.757 2.773 3.026 3.561 4.203s1.173 2.268 1.173 3.693c0 1.138-.165 2.006-.62 2.592-.457.586-1.197.9-2.416.9-1.03 0-1.87-.225-2.54-.954-.669-.73-1.177-1.972-1.504-3.988l-.428-2.767-.013-.067h-2.54v9.938h2.153l.014-.054c.108-.499.293-.988.51-1.303.11-.157.225-.27.332-.322.106-.052.2-.054.303.013.728.81 2.387 2.203 5.08 2.203 2.367 0 4.22-.79 5.479-2.162 1.258-1.373 1.918-3.327 1.918-5.68 0-2.457-.444-4.23-1.339-5.87-.894-1.64-2.238-3.147-4.044-5.089-1.722-1.836-2.904-3.095-3.657-4.27-.753-1.176-1.076-2.267-1.076-3.774 0-.871.143-1.574.538-2.055.395-.48 1.044-.752 2.07-.752 1.03 0 1.824.196 2.415.766.592.57.984 1.526 1.173 3.062l.387 2.98.014.054h2.539v-9.185h-2.113v.067c-.053.56-.085.992-.137 1.262a.674.674 0 0 1 -.097.269c-.016.018-.028.025-.042.027a.136.136 0 0 1 -.055-.014c-.001 0-.012.002-.014 0-.495-.43-2.403-2.135-5.161-2.135zm46.125.135c2.856 0 4.818.967 6.086 3.357 1.263 2.38 1.831 6.18 1.836 11.831h-10.448v1.021c0 5.643.062 8.942.607 10.85.273.954.669 1.567 1.242 1.934.574.367 1.314.497 2.264.497.646 0 1.203-.044 1.684-.215.48-.171.886-.476 1.187-.994.596-1.025.834-2.898.759-6.244h2.153c.316 3.995-.203 6.545-1.45 8.084-1.253 1.549-3.25 2.095-5.92 2.095-2.8 0-5.127-.974-6.763-3.451-1.636-2.478-2.58-6.468-2.581-12.45 0-5.446 1.026-9.527 2.705-12.246 1.68-2.72 4.011-4.07 6.639-4.07zm0-.135c-2.678 0-5.05 1.387-6.75 4.137-1.698 2.75-2.732 6.85-2.732 12.314 0 5.995.948 10.003 2.609 12.516 1.66 2.513 4.04 3.532 6.873 3.532 2.69 0 4.742-.57 6.031-2.162 1.29-1.592 1.806-4.192 1.477-8.246v-.067h-2.429v.08c.082 3.403-.172 5.258-.746 6.245a1.98 1.98 0 0 1 -1.104.927c-.453.161-1.002.201-1.642.201-.938 0-1.642-.111-2.18-.457-.54-.344-.92-.917-1.188-1.853-.535-1.87-.607-5.182-.607-10.823v-.887h10.448v-.067c0-5.7-.561-9.538-1.85-11.965-1.288-2.428-3.322-3.425-6.21-3.425zm18.232.135c2.262 0 4.249.395 5.659 1.557s2.263 3.09 2.263 6.191v19.378c0 .879-.005 1.386.083 1.693.044.152.124.26.234.322s.245.08.415.08c.182 0 .34-.028.469-.12.128-.093.215-.24.276-.484.117-.477.137-1.356.138-2.86h1.835c-.005 2.14-.234 3.763-.91 4.834-.685 1.084-1.827 1.625-3.727 1.625-1.658 0-2.652-.331-3.298-.967-.647-.636-.956-1.586-1.23-2.806l-.04-.189-.097.175c-.436.795-1.047 1.748-1.946 2.498-.9.75-2.074 1.289-3.671 1.289-1.462 0-2.811-.445-3.796-1.692-.984-1.247-1.601-3.301-1.6-6.486 0-4.117.68-6.518 2.332-8.219 1.652-1.7 4.288-2.712 8.225-4.015l.042-.013v-5.48c0-1.437.013-2.436-.4-3.102-.207-.333-.522-.571-.98-.725s-1.066-.228-1.863-.228c-.557 0-1.229.1-1.836.268s-1.144.405-1.435.658l-.07.067.083.04c2.013.98 2.942 2.072 3.175 3.05.232.976-.217 1.857-.994 2.43-.75.548-1.567.691-2.305.51-.737-.181-1.406-.693-1.863-1.504-1.083-1.948-.8-3.887.455-5.345 1.256-1.458 3.494-2.43 6.377-2.43zm0-.135c-2.916 0-5.198.988-6.487 2.485-1.288 1.496-1.575 3.502-.47 5.492.474.839 1.18 1.38 1.96 1.571.78.192 1.636.032 2.416-.537.811-.598 1.294-1.532 1.049-2.565-.241-1.01-1.186-2.1-3.133-3.075.273-.208.729-.424 1.283-.577.596-.165 1.257-.27 1.795-.27.789 0 1.387.07 1.821.216.435.145.707.366.897.671.38.612.387 1.598.387 3.035v5.399c-3.903 1.293-6.565 2.291-8.24 4.015-1.684 1.734-2.374 4.18-2.374 8.313 0 3.203.63 5.285 1.643 6.567 1.012 1.281 2.413 1.759 3.906 1.759 1.63 0 2.848-.576 3.768-1.343.875-.73 1.455-1.627 1.89-2.404.267 1.151.579 2.088 1.229 2.726.68.668 1.717 1.021 3.395 1.021 1.928 0 3.14-.58 3.85-1.706.71-1.125.925-2.782.925-4.969v-.067h-2.112v.067c0 1.57-.025 2.431-.137 2.888-.057.228-.13.35-.22.416-.093.066-.216.094-.387.094a.706.706 0 0 1 -.346-.067c-.074-.042-.127-.11-.165-.242-.076-.266-.083-.773-.083-1.652v-19.378c0-3.126-.871-5.105-2.319-6.298-1.447-1.193-3.463-1.585-5.741-1.585zm28.362-7.587h2.112v8.245h4.872v2.216h-4.927v24.227c0 .828.06 1.44.262 1.853.2.412.554.604 1.118.604s.944-.193 1.16-.631c.214-.439.29-1.107.29-2.042v-4.928h2.207v4.459c0 2.303-.558 3.778-1.518 4.686s-2.33 1.249-3.988 1.249c-2.562 0-4.001-.47-4.803-1.558-.804-1.087-.98-2.82-.98-5.345v-22.628h-2.195v-2.161h.594c1.048 0 1.888-.218 2.76-1.37.867-1.143 1.788-3.214 3.036-6.875zm-.11-.134-.014.04c-1.258 3.697-2.17 5.764-3.022 6.89-.852 1.124-1.622 1.315-2.65 1.315h-.734v2.431h2.195v22.493c0 2.531.17 4.29 1.008 5.426.838 1.135 2.334 1.625 4.914 1.625 1.678 0 3.09-.361 4.085-1.303.995-.941 1.559-2.455 1.559-4.78v-4.594h-2.498v5.063c0 .928-.066 1.575-.262 1.974-.196.4-.504.564-1.035.564s-.812-.164-.994-.536c-.182-.373-.249-.964-.249-1.787v-24.091h4.928v-2.485h-4.872v-8.245h-2.36zm-171.197-1.988h10.434l5.673 26.2v.027h.137v-.027l5.342-26.2h10.158v1.988h-.856c-.566 0-.96.227-1.187.698-.227.47-.303 1.173-.303 2.135v31.88c0 .963.076 1.665.303 2.136.227.47.621.698 1.187.698h.856v2.001h-12.16v-2h1.464c.567 0 .946-.228 1.174-.699.228-.47.317-1.173.317-2.135v-27.302h-.069l-.069-.013v.013h-.014v.054l-6.873 32.029h-3.174l-6.875-31.975v-.014l-.069.014h-.068v26.67c0 .964.133 1.79.427 2.39.295.601.764.967 1.394.967h1.243v2.001h-8.392v-2h.8c.578 0 1.044-.368 1.353-.968s.47-1.424.47-2.39v-30.873c0-.993-.16-1.824-.47-2.404-.309-.58-.777-.913-1.353-.913h-.8v-1.988zm-.152-.147v2.269h.953c.519 0 .934.295 1.228.846.293.55.455 1.359.455 2.337v30.873c0 .95-.161 1.765-.455 2.337-.294.57-.712.886-1.229.886h-.952v2.27h8.681v-2.27h-1.379c-.576 0-.99-.316-1.27-.886s-.415-1.385-.415-2.337v-26.012l6.75 31.397.013.054h3.395l.014-.054 6.75-31.438v26.577c0 .954-.08 1.648-.29 2.081-.21.434-.521.618-1.05.618h-1.614v2.27h12.449v-2.27h-.994c-.528 0-.853-.184-1.063-.618-.21-.433-.29-1.127-.29-2.081v-31.88c0-.955.08-1.635.29-2.069s.535-.631 1.063-.631h.994v-2.269h-10.407l-.013.053-5.287 25.972-5.63-25.972v-.053zm88.317.147h12.283v1.988h-1.187c-.29 0-.541.017-.745.08a.896.896 0 0 0 -.483.35c-.242.343-.317.904-.317 1.866v15.081h8.447v-15.081c0-.962-.082-1.524-.332-1.867a.955.955 0 0 0 -.497-.349c-.201-.063-.44-.08-.718-.08h-1.186v-1.988h12.228v1.988h-1.035c-.29 0-.528.017-.732.08a.929.929 0 0 0 -.497.35c-.242.343-.317.904-.317 1.866v32.954c0 .935.076 1.503.317 1.853.121.175.293.295.497.363s.44.08.732.08h1.035v2.001h-12.228v-2h1.186c.278 0 .517-.013.718-.081a.986.986 0 0 0 .497-.363c.249-.349.331-.917.331-1.853v-15.51h-8.447v15.511c0 .935.076 1.503.318 1.853.121.175.28.295.483.363.204.068.455.08.745.08h1.187v2.001h-12.283v-2h1.076c.58 0 .967-.058 1.215-.256.249-.197.345-.52.345-.98v-34.016c0-.962-.088-1.523-.331-1.867a.896.896 0 0 0 -.483-.349c-.204-.063-.455-.08-.746-.08h-1.076zm-.138-.147v2.269h1.214c.284 0 .523.024.705.08.18.057.309.149.414.296.208.295.29.832.29 1.786v34.016c0 .444-.073.711-.277.873-.203.162-.563.228-1.132.228h-1.215v2.27h12.561v-2.27h-1.326c-.282 0-.51-.02-.69-.08a.81.81 0 0 1 -.427-.31c-.21-.302-.29-.844-.29-1.772v-15.376h8.17v15.375c0 .927-.101 1.47-.317 1.773a.795.795 0 0 1 -.414.309c-.179.06-.407.08-.677.08h-1.325v2.27h12.505v-2.27h-1.173c-.284 0-.51-.02-.69-.08a.774.774 0 0 1 -.414-.31c-.21-.302-.29-.844-.29-1.772v-32.954c0-.954.082-1.491.29-1.786a.75.75 0 0 1 .414-.296c.18-.056.406-.08.69-.08h1.173v-2.269h-12.505v2.269h1.325c.27 0 .498.024.677.08a.77.77 0 0 1 .414.296c.215.296.317.832.317 1.786v14.947h-8.17v-14.947c0-.954.081-1.491.29-1.786a.75.75 0 0 1 .414-.296c.18-.056.42-.08.703-.08h1.326v-2.269h-12.561zm74.832-.498v38.998c0 .434.074.734.249.927s.45.255.814.255h1.242v2.001h-9.978v-2h.47c.194 0 .354-.006.482-.04a.576.576 0 0 0 .304-.189c.143-.178.165-.444.165-.846v-35.345c0-.433-.071-.72-.248-.9s-.451-.228-.814-.228h-1.132v-1.988zm.139-.147-.07.013-8.584.632-.07.013v2.256h1.27c.35 0 .581.049.718.188.138.14.207.387.207.806v35.345c0 .396-.034.638-.137.766a.433.433 0 0 1 -.236.134c-.107.03-.253.04-.44.04h-.622v2.202h.083v.068h10.186v-2.27h-1.381c-.347 0-.566-.062-.705-.215-.138-.153-.22-.414-.22-.833v-39.145zm-91.809.832a3.053 3.053 0 0 1 1.339.094 3.964 3.964 0 0 1 2.139 1.585c.892 1.343 1.068 2.731.345 4.298-.719 1.555-2.34 3.274-5.038 5.25l-1.27-1.343c1.248-1.164 2.743-2.617 3.396-3.357l.07-.067-.084-.04c-1.82-.767-2.847-1.842-3.174-2.915-.328-1.072.026-2.143.993-2.927a2.697 2.697 0 0 1 1.284-.578zm-.028-.134c-.468.076-.919.264-1.338.604-1.004.813-1.392 1.953-1.05 3.075.338 1.105 1.371 2.193 3.161 2.968-.674.755-2.149 2.183-3.381 3.33l-.042.041.042.054 1.366 1.437.042.04.055-.027c2.74-1.999 4.394-3.757 5.134-5.358s.553-3.059-.359-4.432a4.102 4.102 0 0 0 -2.222-1.638 3.218 3.218 0 0 0 -1.408-.094zm53.55 12.543c.541 0 .92.08 1.188.322.268.243.443.658.552 1.383.215 1.442.166 4.069.165 8.649h-4.292c.083-4.684.21-7.302.552-8.716.173-.711.398-1.114.69-1.343.292-.228.66-.295 1.146-.295zm0-.134c-.498 0-.913.065-1.241.322-.328.256-.556.697-.732 1.423-.352 1.452-.47 4.071-.552 8.81l-.013.067h4.582v-.067c0-4.631.055-7.252-.166-8.73-.11-.738-.288-1.2-.594-1.476-.305-.277-.73-.35-1.283-.35zm-83.913.134c.54 0 .918.08 1.186.322.27.243.445.658.552 1.383.216 1.442.167 4.07.166 8.649h-4.292c.082-4.684.21-7.302.552-8.716.173-.71.398-1.114.69-1.343.293-.228.66-.295 1.146-.295zm0-.134c-.499 0-.914.065-1.242.322-.328.256-.556.684-.732 1.41-.352 1.452-.47 4.085-.552 8.823v.067h4.568v-.067c0-4.63.055-7.252-.165-8.73-.11-.737-.288-1.2-.594-1.476-.306-.277-.73-.35-1.283-.35zm0-2.471c2.855 0 4.818.967 6.086 3.357 1.263 2.38 1.831 6.18 1.836 11.831h-10.448v1.021c0 5.643.062 8.942.607 10.85.273.954.668 1.567 1.242 1.934s1.314.497 2.264.497c.645 0 1.204-.044 1.684-.215s.885-.476 1.187-.994c.596-1.025.834-2.898.759-6.244h2.153c.316 3.995-.203 6.545-1.45 8.084-1.254 1.549-3.25 2.095-5.92 2.095-2.8 0-5.127-.974-6.763-3.451-1.636-2.478-2.581-6.468-2.581-12.45 0-5.446 1.026-9.527 2.705-12.246 1.68-2.72 4.01-4.07 6.639-4.07zm0-.135c-2.68 0-5.051 1.387-6.75 4.137-1.698 2.75-2.732 6.85-2.732 12.314 0 5.995.949 10.003 2.608 12.516 1.66 2.513 4.039 3.532 6.874 3.532 2.69 0 4.742-.57 6.031-2.162 1.29-1.592 1.807-4.192 1.477-8.246v-.067h-2.443l.014.08c.082 3.403-.171 5.258-.746 6.245a1.98 1.98 0 0 1 -1.104.927c-.453.161-1.003.201-1.642.201-.938 0-1.642-.111-2.18-.457-.54-.344-.92-.917-1.188-1.853-.535-1.87-.607-5.182-.607-10.823v-.887h10.448v-.067c0-5.7-.56-9.538-1.85-11.965-1.288-2.428-3.323-3.425-6.21-3.425zm22.234.135c1.929 0 3.219.51 4.044 1.49.826.98 1.187 2.444 1.187 4.351v22.723c0 .432.05.718.221.9.17.182.438.228.828.228h.428v2.001h-9.33v-2h.538c.307 0 .568-.032.76-.189.19-.156.289-.422.289-.832v-21.663c0-1.093-.027-1.897-.29-2.444a1.302 1.302 0 0 0 -.593-.617c-.268-.136-.618-.201-1.05-.201-1.196 0-1.92.52-2.332 1.37-.412.848-.524 2.022-.524 3.33v20.385c0 .323.026.541.166.685.139.143.37.174.731.174h.524v2.001h-9.813v-2h.966c.445 0 .755-.06.94-.27.183-.208.234-.536.234-1.02v-24.105c0-.592-.103-.99-.304-1.236-.2-.245-.504-.322-.87-.322h-1.02v-2l8.335-.578v3.626l.138-.202c1.415-2.17 3.306-3.585 5.797-3.585zm0-.135c-2.47 0-4.366 1.378-5.782 3.465v-3.316l-.084.013-8.474.577h-.069v2.269h1.16c.344 0 .59.076.759.282.168.207.276.564.276 1.142v24.105c0 .474-.063.763-.207.927-.145.164-.399.228-.829.228h-1.104v2.27h10.104v-2.27h-.677c-.35 0-.542-.038-.635-.134s-.124-.275-.124-.59v-20.388c0-1.3.116-2.449.51-3.263.395-.814 1.053-1.302 2.209-1.302.417 0 .74.066.98.188s.403.298.524.55c.243.504.29 1.3.29 2.39v21.662c0 .388-.084.602-.234.725-.151.123-.382.16-.677.16h-.677v2.271h9.607v-2.27h-.566c-.376 0-.588-.05-.718-.188s-.193-.386-.193-.806v-22.721c0-1.924-.358-3.428-1.215-4.445-.856-1.016-2.2-1.53-4.154-1.53zm59.218 13.159c.166-9.476.493-10.488 2.462-10.488 2.188 0 1.97 1.225 1.97 10.488zm-52.277-11.5c5.468-3.99 6.563-6.971 4.759-9.686-.985-1.49-3.228-2.448-4.87-1.118-1.97 1.597-1.476 4.417 2.19 5.96-.659.747-2.19 2.237-3.447 3.408zm109.453 30.236h9.246v-2.13h-.603c-.71 0-.821-.16-.821-.798v-20.386c0-2.608.438-4.632 2.791-4.632 1.695 0 1.859 1.012 1.859 3.194v21.663c0 .798-.382.96-.984.96h-.6v2.129h9.46v-2.13h-.491c-.765 0-.984-.213-.984-1.064v-22.728c0-3.834-1.422-5.908-5.307-5.908-2.516 0-4.32 1.436-5.744 3.617v-14.103l-8.59.638v2.13h1.097c.709 0 1.094.318 1.094 1.49v34.702c0 .96-.219 1.225-1.094 1.225h-.329v2.13zm-24.316 0h10.12v-2.13h-1.314c-.71 0-.984-.266-.984-1.119v-39.068l-8.588.638v2.13h1.203c.712 0 .986.212.986 1.063v35.345c0 .798-.112 1.011-.875 1.011h-.547v2.13zm-67.012 0h12.418v-2.13h-1.259c-1.15 0-1.477-.374-1.477-2.237v-15.434h8.316v15.435c0 1.863-.385 2.237-1.479 2.237h-1.257v2.13h12.362v-2.13h-1.094c-1.149 0-1.475-.374-1.475-2.237v-32.947c0-1.918.326-2.236 1.475-2.236h1.094v-2.13h-12.362v2.13h1.257c1.094 0 1.479.318 1.479 2.236v15.009h-8.316v-15.009c0-1.918.327-2.236 1.477-2.236h1.259v-2.13h-12.418v2.13h1.148c1.149 0 1.476.318 1.476 2.236v34.011c0 .906-.327 1.173-1.476 1.173h-1.148zm-88.176 0h8.537v-2.13h-1.313c-1.206 0-1.75-1.385-1.75-3.301v-26.667l6.89 32.043h3.283l6.893-32.149v27.304c0 1.917-.329 2.77-1.423 2.77h-1.531v2.13h12.307v-2.13h-.93c-1.094 0-1.421-.853-1.421-2.77v-31.881c0-1.916.327-2.768 1.421-2.768h.93v-2.13h-10.283l-5.362 26.297-5.689-26.297h-10.559v2.13h.877c1.095 0 1.751 1.277 1.751 3.248v30.87c0 1.916-.656 3.302-1.75 3.302h-.879v2.129zm167.113-6.443c0 5.058.711 6.975 5.854 6.975 3.336 0 5.579-1.386 5.579-6.015v-4.525h-2.351v5.004c0 1.863-.274 2.608-1.368 2.608s-1.313-.745-1.313-2.395v-24.165h4.922v-2.34h-4.867v-8.252h-2.243c-2.517 7.398-3.666 8.251-5.745 8.251h-.655v2.288h2.188v22.567zm-118.288 6.443h9.957v-2.13h-.603c-.711 0-.82-.16-.82-.798v-20.386c0-2.608.437-4.632 2.79-4.632 1.695 0 1.86 1.012 1.86 3.194v21.663c0 .798-.384.96-.985.96h-.602v2.129h9.463v-2.13h-.49c-.766 0-.985-.213-.985-1.064v-22.728c0-3.834-1.423-5.908-5.306-5.908-2.518 0-4.432 1.436-5.855 3.617v-3.46l-8.478.586v2.13h1.094c.712 0 1.095.32 1.095 1.49v24.111c0 .96-.22 1.225-1.095 1.225h-1.039v2.13zm90.645.532c3.227 0 4.814-2.237 5.69-3.834.546 2.448 1.256 3.834 4.594 3.834 3.829 0 4.703-2.237 4.703-6.6h-1.967c0 3.14-.111 3.46-.82 3.46-.659 0-.659-.267-.659-2.025v-19.374c0-6.229-3.444-7.823-7.985-7.823-5.8 0-9.082 3.938-6.893 7.876.93 1.65 2.735 2.13 4.265 1.012 1.589-1.17 1.862-3.62-2.186-5.588.546-.48 2.133-.906 3.227-.906 3.173 0 3.173 1.12 3.173 3.993v5.429c-7.877 2.61-10.612 4.045-10.612 12.297-.001 6.386 2.515 8.25 5.47 8.25zm-14.68 0c5.362 0 8.097-2.237 7.439-10.327h-2.296c.164 6.813-.985 7.452-3.556 7.452-3.775 0-4.049-1.918-4.049-13.2v-.959h10.448c0-11.39-2.241-15.328-7.986-15.328-5.307 0-9.41 5.481-9.41 16.392 0 11.976 3.777 15.97 9.41 15.97zm-44.93 0c4.704 0 7.33-3.089 7.33-7.774 0-4.896-1.749-7.023-5.361-10.91-3.445-3.673-4.758-5.057-4.758-8.09 0-1.757.602-2.875 2.68-2.875s3.283.799 3.665 3.885l.383 2.982h2.407v-9.048h-1.97c-.107 1.117-.107 1.755-.437 1.594-.491-.424-2.406-2.126-5.141-2.126-3.775 0-7.167 2.34-7.167 7.503 0 4.844 1.696 6.76 5.361 10.807 3.174 3.512 4.758 5.055 4.758 7.928 0 2.29-.655 3.567-3.116 3.567-2.08 0-3.448-.958-4.103-5.004l-.438-2.767h-2.407v9.795h2.024c.219-1.013.766-1.971 1.258-1.652.71.8 2.352 2.185 5.033 2.185zm-38.985 0c5.362 0 8.097-2.237 7.439-10.327h-2.296c.162 6.813-.987 7.452-3.557 7.452-3.775 0-4.048-1.918-4.048-13.2v-.959h10.447c0-11.39-2.243-15.328-7.986-15.328-5.308 0-9.41 5.481-9.41 16.392.001 11.976 3.776 15.97 9.41 15.97zm-2.462-19.268c.163-9.476.493-10.488 2.462-10.488 2.188 0 1.968 1.225 1.968 10.488zm103.791 15.595c-1.752 0-1.914-1.12-1.914-5.112 0-7.025.492-7.983 4.322-10.06v11.284c0 2.238-.383 3.888-2.408 3.888zm45.052-39.108v14.276l.138-.202c1.415-2.171 3.184-3.585 5.673-3.585 1.928 0 3.232.51 4.057 1.49.826.98 1.187 2.444 1.187 4.351v22.723c0 .432.05.718.22.9.172.182.44.228.83.228h.427v2.001h-9.33v-2h.538c.308 0 .568-.032.76-.189.191-.156.29-.422.29-.832v-21.663c0-1.093-.04-1.897-.304-2.444a1.274 1.274 0 0 0 -.58-.617c-.268-.136-.618-.201-1.05-.201-1.196 0-1.92.52-2.331 1.37-.412.848-.525 2.022-.525 3.33v20.385c0 .323.026.541.166.685.139.143.37.174.731.174h.525v2.001h-9.096v-2h.249c.445 0 .754-.06.938-.27.184-.208.235-.536.235-1.02v-34.7c0-.593-.103-.977-.304-1.223-.2-.245-.503-.335-.87-.335h-1.02v-1.988zm.138-.147-.069.013-8.585.632-.069.013v2.256h1.16c.345 0 .59.076.759.282.168.206.262.563.262 1.141v34.701c0 .474-.049.763-.193.927s-.398.228-.828.228h-.401v2.202h.07v.068h9.316v-2.27h-.663c-.35 0-.542-.038-.635-.134s-.124-.275-.124-.59v-20.388c0-1.3.116-2.449.51-3.263.395-.814 1.053-1.302 2.209-1.302.416 0 .74.066.98.188s.403.298.524.55c.243.504.29 1.3.29 2.39v21.662c0 .388-.097.602-.248.725s-.368.16-.663.16h-.676v2.271h9.606v-2.27h-.566c-.376 0-.601-.05-.732-.188-.13-.138-.179-.386-.179-.806v-22.721c0-1.924-.358-3.428-1.214-4.445-.857-1.016-2.214-1.53-4.168-1.53-2.476 0-4.261 1.384-5.673 3.478z" fill="#17311b"></path><path d="m0 0h200v60h-200z"></path></g>
              </svg>
