<svg fill="none" viewBox="0 0 33 32" xmlns="http://www.w3.org/2000/svg" width="32" height="32">
                      <g clip-path="url(#a)">
                        <path d="m3.85 14.746 12.933 1.756c.168.023.337.031.507.031a3.74 3.74 0 0 0 3.648-2.92L23.74 1.12M9.897 20.467 1.72 25.832M9.39 26.666l-4.476 2.938M3.45 17.797l-2.344 1.538M21.48 24.499l1.792-1.176M11.339 31.154l8.719-5.722" stroke="#0d3c15e9" stroke-width="1.75" stroke-miterlimit="10"></path>
                        <path d="M27.7 9.6h-1.067v1.067H27.7V9.6ZM28.767 11.2H27.7v1.067h1.067V11.2ZM29.833 12.8h-1.066v1.066h1.066V12.8Z" fill="#0d3c15e9"></path>
                        <path d="M9.472 23.01s1.846 2.704 2.46 3.607c.24.354.641.583 1.101.583.277 0 .533-.084.746-.228l17.6-12.267a1.34 1.34 0 0 0 .588-1.105c0-.276-.087-.538-.231-.75L23.739 1.12a1.331 1.331 0 0 0-1.851-.36l-17.6 12.268a1.332 1.332 0 0 0-.36 1.85L7.14 19.59M6.733 7.816l-1.315.917M15.245 1.883 8.242 6.764" stroke="#0d3c15e9" stroke-width="1.75" stroke-miterlimit="10"></path>
                      </g>
                      <defs>
                        <clipPath id="a">
                          <path fill="#fff" transform="translate(.5)" d="M0 0h32v32H0z"></path>
                        </clipPath>
                      </defs>
                    </svg>
