<svg xmlns="http://www.w3.org/2000/svg" fill="none" height="40" width="40"><mask height="40" width="40" y="0" x="0" maskUnits="userSpaceOnUse" style="mask-type:alpha" id="a"><path d="M0 0h40v40H0z" fill="#D9D9D9"></path></mask><g stroke-linejoin="round" stroke-linecap="round" stroke-width="1.5" stroke="#244442" mask="url(#a)"><path d="M29.187 32.882a10.386 10.386 0 0 0 3.452-7.742c0-5.75-4.666-10.418-10.418-10.418-5.752 0-10.417 4.666-10.417 10.418 0 5.752 4.493 10.243 10.098 10.409"></path><path d="M20.152 32.493a7.603 7.603 0 0 1-3.334-1.95 7.617 7.617 0 0 1-2.235-5.403 7.633 7.633 0 0 1 7.638-7.639c2.11 0 4.022.854 5.403 2.236a7.617 7.617 0 0 1 2.236 5.403c0 2.11-.808 3.92-2.128 5.29"></path><path d="M25.603 15.285C18.49 12.557 15.09 8.767 10.657 3.062A5.796 5.796 0 0 0 6.715.87 5.835 5.835 0 0 0 2.373 2.15c-.282.233-.53.478-.733.721A7.077 7.077 0 0 0 .144 8.816c1.23 6.402 5.952 15.659 14.998 23.964"></path><path d="M4.565 13.66c1.02 2.42 2.457 5.088 4.364 7.844M2.865 8.258c.13.675.306 1.398.532 2.16M38.21 32.007c-1.2-1.093-3.579-.698-5.313.879-1.735 1.576-2.167 3.739-.966 4.83 1.2 1.09 3.579.697 5.313-.88 1.735-1.576 2.167-3.738.966-4.829Z"></path><path d="M36.808 33.548c.062.164-.106.966-.966 1.747-.775.704-1.604.956-2.12.956M20.82 30.62c1.2-1.093 3.578-.698 5.313.878 1.734 1.577 2.166 3.74.966 4.83-1.2 1.09-3.58.698-5.314-.879-1.734-1.576-2.166-3.739-.966-4.83Z"></path><path d="M22.22 32.16c-.063.165.105.967.965 1.748.775.704 1.604.955 2.121.955M23.7 27.49c-.768-.761-.498-2.275.603-3.38 1.103-1.108 2.615-1.386 3.384-.626.768.76.498 2.275-.603 3.38-1.1 1.105-2.615 1.386-3.384.625ZM19.835 27.173c1.13-.289 1.871-1.745 1.655-3.25-.216-1.509-1.306-2.493-2.436-2.205-1.132.289-1.872 1.745-1.656 3.251.216 1.506 1.307 2.493 2.437 2.204Z"></path><path d="M19.444 23.794s-.347.65 0 1.346M26.15 25.14c-.006.27-.416.795-.89.853"></path></g></svg>