<svg viewBox="0 0 200 60" xmlns="http://www.w3.org/2000/svg">
                <g fill="none" fill-rule="evenodd"><path d="M151.862 34.462c3.469 0 5.712 1.72 5.712 4.958 0 2.768-1.245 4.359-3.899 4.766L159.711 51h-3.23l-5.843-6.71h-2.02V51h-2.84V34.462zM53.558 33.8l11.801 10.924V34.058h2.795V51L56.359 39.89v10.852h-2.801V33.8zm27.778 0c1.963 0 3.752.487 5.15 1.352v2.909c-1.453-1.062-3.043-1.793-5.088-1.793-1.76 0-3.075.65-3.075 2.002 0 1.224.826 1.713 2.28 2.205l2.813.975c2.726.947 3.978 2.417 3.978 4.832 0 3.04-2.706 4.718-6.257 4.718-2.332 0-4.317-.645-5.538-1.459v-2.964c1.588 1.222 3.495 1.928 5.538 1.928 1.99 0 3.388-.676 3.388-2.172 0-1.302-.89-1.813-2.451-2.385l-2.525-.867c-2.328-.817-4.097-2.01-4.097-4.752 0-2.934 2.68-4.529 5.884-4.529zm55.818.662v2.476h-7.708v3.98h6.913v2.449h-6.913v5.13h7.708V51h-10.616V34.462h10.616zm-39.808 0V51h-2.654V34.462h2.654zm-51.75 0V51h-2.654V34.462h2.654zm66.812 0c4.956 0 8.16 3.231 8.16 8.264 0 5.04-3.204 8.274-8.16 8.274h-6.437V34.462zm-.106 2.477h-3.486v11.558h3.486c3.525 0 5.41-2.238 5.41-5.77 0-3.558-1.885-5.788-5.41-5.788zm39.505-.051h-3.19v5.063h3.19c1.89 0 2.954-.998 2.954-2.531 0-1.534-1.065-2.532-2.954-2.532zM76.03 8c1.962 0 3.753.507 5.146 1.41v3.013c-1.45-1.1-3.042-1.859-5.089-1.859-1.763 0-3.071.676-3.071 2.085 0 1.267.825 1.775 2.275 2.282l2.815 1.014c2.73.987 3.98 2.507 3.98 5.015 0 3.155-2.7 4.902-6.255 4.902-2.332 0-4.322-.677-5.544-1.522v-3.07c1.592 1.267 3.497 2 5.544 2 1.99 0 3.383-.704 3.383-2.254 0-1.352-.88-1.888-2.445-2.48l-2.53-.9c-2.332-.846-4.095-2.085-4.095-4.93C70.144 9.661 72.817 8 76.03 8zm69.664 0c1.961 0 3.753.507 5.146 1.41v3.013c-1.45-1.099-3.042-1.86-5.09-1.86-1.762 0-3.07.677-3.07 2.085 0 1.268.824 1.775 2.274 2.283l2.815 1.014c2.729.985 3.98 2.507 3.98 5.014 0 3.155-2.7 4.903-6.254 4.903-2.332 0-4.323-.677-5.545-1.522v-3.07c1.592 1.267 3.497 2 5.545 2 1.989 0 3.383-.705 3.383-2.255 0-1.35-.882-1.887-2.445-2.478l-2.53-.901c-2.333-.846-4.095-2.086-4.095-4.931 0-3.043 2.673-4.705 5.886-4.705zm-45.03 0l11.802 11.345V8.269h2.793v17.593l-11.794-11.537v11.267h-2.802V8zm62.361.084c1.936 0 3.703.502 5.077 1.394v2.984c-1.43-1.088-3.001-1.84-5.022-1.84-1.738 0-3.029.669-3.029 2.063 0 1.255.814 1.756 2.245 2.259l2.776 1.003c2.693.976 3.928 2.482 3.928 4.963 0 3.123-2.665 4.852-6.171 4.852-2.302 0-4.264-.67-5.47-1.506v-3.039c1.57 1.255 3.45 1.98 5.47 1.98 1.963 0 3.337-.697 3.337-2.231 0-1.338-.87-1.868-2.412-2.453l-2.497-.892c-2.3-.837-4.039-2.065-4.039-4.88 0-3.012 2.637-4.657 5.807-4.657zM133.173 8v2.576h-7.707v4.139h6.912v2.547h-6.912v5.336h7.707V25.2h-10.615V8h10.615zM92.038 8v17.2h-2.653V8h2.653zM52.522 8v9.868c0 3.252 1.416 4.768 4.021 4.768s4.021-1.516 4.021-4.768V8h2.946v10.199c0 4.63-2.804 7.001-6.967 7.001-4.134 0-6.966-2.37-6.966-7.028V8h2.945zm-15.429.02c3.628 0 5.895 1.594 5.895 4.67 0 1.845-.991 3.187-2.267 3.635 1.645.53 2.834 2.124 2.834 3.942 0 3.214-2.267 4.92-5.894 4.92H31V8.021zm.51 9.618h-3.74v5.032h3.74c1.985 0 3.061-.978 3.061-2.516 0-1.565-1.076-2.516-3.06-2.516zm-.538-7.1h-3.202v4.696h3.202c2.013 0 3.09-.755 3.09-2.377 0-1.62-1.077-2.32-3.09-2.32z" fill="#17311b"></path><path d="M0 0h200v60H0z"></path></g>
              </svg>
