<svg xmlns:xlink="http://www.w3.org/1999/xlink" xmlns="http://www.w3.org/2000/svg" width="40" height="40" fill="none"><clipPath id="a"><path transform="translate(0 1.667)" d="m0 0h40v35.351h-40z"/></clipPath><g stroke-width="1.75" stroke-linejoin="round" stroke-linecap="round" stroke="#244442" clip-path="url(#a)"><path d="m31.917 26.606a13.887 13.887 0 0 0 2.038-7.265c0-7.706-6.247-13.955-13.955-13.955a13.893 13.893 0 0 0 -8.83 3.147 3.185 3.185 0 0 0 -1.155 2.379 3.15 3.15 0 0 0 1.055 2.419c1.373 1.23 2.76 3.17 2.767 6.008-.007 2.838-1.396 4.774-2.767 6.008a3.15 3.15 0 0 0 -1.055 2.418c.023.923.44 1.79 1.155 2.38a13.893 13.893 0 0 0 8.83 3.145 13.94 13.94 0 0 0 9.87-4.086"/><path d="m10.794 13.052c-1.683-1.681-3.972-.107-3.972 6.291s2.289 7.972 3.972 6.291"/><path d="m7.77 13.81c0-1.704.068-2.995-1.722-2.995s-5.413 4.257-5.429 8.525c.016 4.269 3.64 8.526 5.426 8.526s1.723-1.291 1.723-2.996"/><path d="m33.178 36.396-3.219-3.219a16.89 16.89 0 0 1 -9.961 3.219c-6.472 0-12.1-3.606-14.992-8.916m.003-16.278c2.891-5.31 8.52-8.916 14.991-8.916 9.42 0 17.055 7.636 17.055 17.055 0 2.504-.535 4.877-1.512 7.014l3.838 3.838"/><path d="m31.916 26.606-1.319-1.32s-3.553-2.843-5.943-3.552m12.788 10.398-5.526-5.526m-2.049 2.604-1.08-1.08s-6.461 1.235-8.917-1.87m15.247 8.198-5.25-5.248m.728-3.926s-.13-3.745-1.292-5.91c0 0-3.327-1.36-4.651-3.136m4.651 3.138-2.26-6.366m1.375 3.87s1.597-.574 1.597-2.77"/><path d="m22.65 24.64s2.004 2.643 2.004 3.68m-6.204 2.038s2.974.68 5.202-2.164m-19.156-13.44a8.242 8.242 0 0 0 0 9.415"/></g></svg>
