<svg fill="none" viewBox="0 0 41 40" xmlns="http://www.w3.org/2000/svg" xmlns:xlink="http://www.w3.org/1999/xlink" width="40" height="40">
  <clipPath id="a">
    <path d="m0 0h40v40h-40z" transform="translate(.5)"></path>
  </clipPath>
  <g clip-path="url(#a)">
    <path d="m14.67 16a4.667 4.667 0 1 0 3.14-1.949m-4.644 9.282h10.667" stroke="#0d3c15e9" stroke-miterlimit="10" stroke-width="2"></path>
    <path d="m19.167 25.333h-1.334v1.334h1.334zm0 2.667h-1.334v1.333h1.334zm0 2.667h-1.334v1.333h1.334z" fill="#0d3c15e9"></path>
    <g stroke="#0d3c15e9" stroke-miterlimit="10" stroke-width="2">
      <path d="m11.708 21.776c-5.47 2.66-9.208 8.03-9.208 14.224 0 .677.045 1.344.131 2m32.015-.396 3.782-1.903c.453-.225.739-.688.739-1.193v-2.88c0-.574-.368-1.083-.913-1.265l-2.573-.858a2.056 2.056 0 0 1 -1.137-.964 16.204 16.204 0 0 0 -4.331-4.983l.902-3.191a1.333 1.333 0 0 0 -1.877-1.56l-3.98 1.99m9.242-11.464v-7.333m-2.666 10v-7.333m0 10.666v-2m-29.334-9.333c1.328 0 2.651-.163 3.94-.485a28.418 28.418 0 0 1 6.89-.848h4.065c.708 0 1.386.28 1.886.781l5.104 5.105c.5.5.782 1.178.782 1.885v6.229"></path>
      <path d="m21.833 12.667v-.114c0-.354-.14-.693-.39-.943l-2.553-2.552c-.25-.25-.59-.391-.943-.391h-5.115a1.666 1.666 0 0 0 -.3 3.306l3.934.721a1.666 1.666 0 0 1 -.3 3.306h-4.709c-2.353 0-4.643-.763-6.525-2.175l-2.15-1.613"></path>
    </g>
  </g>
</svg>
