<svg xmlns="http://www.w3.org/2000/svg" width="48" height="48" fill="none"><g fill="#b11e54"><path d="m37.206 26.251c1.54-1.669 2.287-3.556 2.287-5.773 0-2.428-.774-4.652-2.242-6.433-1.35-1.64-3.18-2.76-5.159-3.16-2.59-.524-5.886.208-7.92 3.604-.82-1.364-1.88-2.418-3.108-3.084-1.475-.8-3.153-1.037-4.848-.685-1.964.407-3.777 1.575-5.11 3.285-1.433 1.846-2.192 4.153-2.192 6.675 0 5.131 4.038 7.517 7.285 9.434.575.34 1.117.661 1.623.986 3.304 2.12 5.492 4.947 5.788 5.932a.718.718 0 0 0 .689.511h.017a.718.718 0 0 0 .68-.54c.245-.966 2.648-3.866 5.712-6.04.597-.424 1.25-.834 1.942-1.267 1.596-1 3.246-2.032 4.554-3.447zm-7.33 3.546c-2.235 1.585-4.462 3.814-5.578 5.478-1.09-1.634-3.229-3.797-5.694-5.377-.528-.34-1.083-.666-1.667-1.012-3.235-1.912-6.583-3.888-6.583-8.204 0-2.202.654-4.207 1.893-5.797 1.12-1.442 2.637-2.423 4.265-2.762.422-.089.837-.13 1.241-.13 2.438 0 4.54 1.56 5.768 4.357a.722.722 0 0 0 1.325-.005c1.335-3.15 3.94-4.667 6.965-4.055 4.1.828 6.246 4.745 6.246 8.19 0 4.147-3.135 6.11-6.167 8.01-.71.445-1.382.865-2.011 1.312l-.002-.005z"></path><path d="m34.976 23.646h-6.128l-1.256-2.887a.723.723 0 0 0 -1.332.03l-2.02 5.275-2.063-7.566a.713.713 0 0 0 -.698-.529.717.717 0 0 0 -.691.538l-1.328 5.143h-5.822a.716.716 0 1 0 0 1.43h6.38a.717.717 0 0 0 .696-.538l.79-3.055 1.926 7.075c.081.3.348.514.659.529h.037a.717.717 0 0 0 .67-.462l2.18-5.687.742 1.705c.113.263.372.43.659.43h6.6a.716.716 0 1 0 0-1.43zm-10.769-17.787c.397 0 .718-.32.718-.715v-4.429a.716.716 0 0 0 -.718-.715.716.716 0 0 0 -.718.715v4.426c0 .396.321.715.718.715zm0 2.991c.397 0 .718-.32.718-.716v-.46a.716.716 0 0 0 -.718-.714.716.716 0 0 0 -.718.715v.46c0 .395.321.715.718.715zm0 30.259a.716.716 0 0 0 -.718.715v.59c0 .395.321.715.718.715s.718-.32.718-.715v-.59a.716.716 0 0 0 -.718-.715zm0 3.258a.716.716 0 0 0 -.718.716v4.202c0 .396.321.715.718.715s.718-.32.718-.715v-4.202a.716.716 0 0 0 -.718-.716zm-19.162-18.389a.716.716 0 0 0 -.718-.715h-3.61a.716.716 0 1 0 0 1.43h3.61c.397 0 .718-.32.718-.715zm3.111 0a.716.716 0 0 0 -.718-.715h-.747a.716.716 0 1 0 0 1.43h.747c.398 0 .718-.32.718-.715zm35.791-.715h-3.237a.716.716 0 1 0 0 1.43h3.236a.716.716 0 1 0 0-1.43zm3.335 0h-.696a.716.716 0 1 0 0 1.43h.696a.716.716 0 1 0 0-1.43zm-35.117-17.2a.723.723 0 0 0 .99.236.713.713 0 0 0 .234-.986l-1.308-2.113a.72.72 0 0 0 -1.223.752l1.307 2.113zm1.794 2.895a.723.723 0 0 0 .99.235.713.713 0 0 0 .233-.985l-.278-.45a.72.72 0 0 0 -.99-.233.713.713 0 0 0 -.234.985l.279.45zm19.209 28.133a.72.72 0 0 0 -.99-.233.713.713 0 0 0 -.234.985l.42.676a.723.723 0 0 0 .989.236.713.713 0 0 0 .234-.986l-.42-.675v-.003zm1.966 3.18a.72.72 0 0 0 -1.224.752l1.685 2.72a.723.723 0 0 0 .99.237.713.713 0 0 0 .234-.986l-1.685-2.72zm-30.671-7.085-.614.312a.715.715 0 0 0 .328 1.354.706.706 0 0 0 .325-.078l.615-.313a.713.713 0 0 0 .313-.963.72.72 0 0 0 -.967-.312zm5.24-2.656-2.59 1.314a.716.716 0 1 0 .65 1.276l2.591-1.315a.716.716 0 1 0 -.651-1.278v.002zm34.597-17.581-3.24 1.641a.713.713 0 0 0 -.313.964.718.718 0 0 0 .967.312l3.24-1.642a.716.716 0 1 0 -.652-1.278l-.003.003zm2.469.267a.706.706 0 0 0 .326-.078l.513-.26a.715.715 0 0 0 .313-.964.72.72 0 0 0 -.967-.315l-.513.26a.715.715 0 0 0 .328 1.355zm-45.666-2.007.515.305a.716.716 0 1 0 .73-1.231l-.515-.305a.719.719 0 0 0 -.984.253.713.713 0 0 0 .254.98zm2.857 1.683 3.375 1.988a.716.716 0 1 0 .73-1.231l-3.375-1.988a.719.719 0 0 0 -.985.253.713.713 0 0 0 .255.98zm37.137 20.198-2.83-1.666a.719.719 0 0 0 -.984.253.713.713 0 0 0 .254.98l2.83 1.667a.716.716 0 1 0 .73-1.231zm2.958 1.743-.363-.214a.719.719 0 0 0 -.984.253.713.713 0 0 0 .254.98l.363.214a.716.716 0 1 0 .73-1.231zm-29.373 5.197a.719.719 0 0 0 -.985.253l-1.613 2.72a.713.713 0 0 0 .254.981.716.716 0 0 0 .984-.25l1.614-2.72a.713.713 0 0 0 -.254-.981zm1.796-3.027a.719.719 0 0 0 -.985.253l-.31.523a.713.713 0 0 0 .254.98.716.716 0 0 0 .984-.25l.31-.523a.713.713 0 0 0 -.253-.98zm16.586-27.952a.716.716 0 0 0 .984-.25l.18-.303a.719.719 0 0 0 -1.238-.727l-.18.302a.713.713 0 0 0 .254.98zm1.335-2.249a.716.716 0 0 0 .984-.25l1.675-2.826a.719.719 0 0 0 -1.239-.727l-1.677 2.825a.713.713 0 0 0 .254.98z"></path></g></svg>