<svg width="22" height="38" viewBox="0 0 22 38" fill="none" xmlns="http://www.w3.org/2000/svg">
<path fill-rule="evenodd" clip-rule="evenodd" d="M10.4741 37.0889L0.975333 25.9014C0.797364 25.6917 0.759552 25.4148 0.875099 25.1651C0.990646 24.9154 1.22635 24.7649 1.50119 24.7649H5.92533V15.3382C5.92533 14.5784 6.54549 13.9583 7.30525 13.9583H8.2715L7.81486 17.8716C7.77295 18.2248 7.84725 18.582 8.02654 18.8892C8.20582 19.1964 8.48032 19.4368 8.80846 19.574C9.13608 19.7126 9.49993 19.7406 9.84491 19.6538C10.1899 19.5671 10.4972 19.3702 10.7203 19.0932L14.8628 13.9687C15.5438 14.0521 16.0747 14.6352 16.0747 15.3383V24.765H20.4988C20.7737 24.765 21.0094 24.9156 21.1249 25.1653C21.2404 25.415 21.2028 25.6917 21.0246 25.9015L11.526 37.0889C11.3902 37.2488 11.2097 37.3323 11 37.3323C10.7903 37.3323 10.6096 37.2485 10.4741 37.0889ZM12.0046 1.08214C12.0147 0.908701 11.915 0.755185 11.7524 0.693935C11.5899 0.632607 11.4137 0.682138 11.3068 0.819013L3.7719 10.4667C3.67775 10.5873 3.66158 10.741 3.72869 10.8785C3.79572 11.016 3.92674 11.0978 4.07971 11.0978H9.86369L9.05635 18.0164C9.03588 18.1917 9.13025 18.3532 9.29299 18.4217C9.45572 18.4902 9.63713 18.4446 9.74807 18.3072L17.6803 8.49495C17.7771 8.37511 17.7953 8.22018 17.7289 8.08112C17.6625 7.94206 17.5306 7.85886 17.3764 7.85886H11.6099L12.0046 1.08214Z" fill="#B11E54"/>
</svg>
